<svg xmlns="http://www.w3.org/2000/svg" xmlns:xlink="http://www.w3.org/1999/xlink" width="500" zoomAndPan="magnify" viewBox="0 0 375 374.999991" height="500" preserveAspectRatio="xMidYMid meet" version="1.0"><defs><clipPath id="b5993edbff"><path d="M 192.265625 210.058594 L 192.621094 210.058594 L 192.621094 210.335938 L 192.265625 210.335938 Z M 192.265625 210.058594 " clip-rule="nonzero"/></clipPath><clipPath id="5459f6308f"><path d="M 192.601562 210.226562 C 191.925781 210.523438 192.523438 210.074219 192.523438 210.074219 " clip-rule="nonzero"/></clipPath><clipPath id="ab8695810f"><path d="M 0.265625 0.0585938 L 0.621094 0.0585938 L 0.621094 0.335938 L 0.265625 0.335938 Z M 0.265625 0.0585938 " clip-rule="nonzero"/></clipPath><clipPath id="78ce6629e4"><path d="M 0.601562 0.226562 C -0.0742188 0.523438 0.523438 0.0742188 0.523438 0.0742188 " clip-rule="nonzero"/></clipPath><clipPath id="dce868456a"><rect x="0" width="1" y="0" height="1"/></clipPath><clipPath id="d595bbfd37"><path d="M 21.097656 21.097656 L 354 21.097656 L 354 354 L 21.097656 354 Z M 21.097656 21.097656 " clip-rule="nonzero"/></clipPath></defs><g clip-path="url(#b5993edbff)"><g clip-path="url(#5459f6308f)"><g transform="matrix(1, 0, 0, 1, 192, 210)"><g clip-path="url(#dce868456a)"><g clip-path="url(#ab8695810f)"><g clip-path="url(#78ce6629e4)"><rect x="-274.5" width="540" fill="#ffffff" height="539.999987" y="-292.499998" fill-opacity="1"/></g></g></g></g></g></g><g clip-path="url(#d595bbfd37)"><path fill="#ffffff" d="M 187.53125 21.097656 C 279.445312 21.097656 353.960938 95.617188 353.960938 187.53125 C 353.960938 279.445312 279.445312 353.960938 187.53125 353.960938 C 95.617188 353.960938 21.097656 279.445312 21.097656 187.53125 C 21.097656 95.617188 95.617188 21.097656 187.53125 21.097656 Z M 207.765625 79.953125 C 220.3125 79.953125 230.484375 90.125 230.484375 102.667969 C 230.484375 115.226562 220.3125 125.402344 207.765625 125.402344 C 195.222656 125.402344 185.035156 115.226562 185.035156 102.667969 C 185.035156 90.125 195.207031 79.953125 207.765625 79.953125 Z M 145.652344 164.734375 C 160.335938 135.027344 222.886719 125.386719 211.746094 166.078125 C 205.378906 189.324219 188.511719 251 185.890625 261.34375 C 182.648438 274.15625 197.328125 274.839844 213.054688 267.835938 C 199.683594 302.332031 132.15625 307.855469 146.589844 262.203125 C 146.589844 262.203125 165.71875 192.476562 170.945312 176.6875 C 176.734375 159.179688 157.027344 158.960938 145.652344 164.71875 Z M 187.546875 36.839844 C 104.324219 36.839844 36.871094 104.308594 36.871094 187.515625 C 36.871094 270.738281 104.339844 338.1875 187.546875 338.1875 C 270.769531 338.1875 338.21875 270.722656 338.21875 187.515625 C 338.21875 104.292969 270.753906 36.839844 187.546875 36.839844 Z M 187.546875 36.839844 " fill-opacity="1" fill-rule="nonzero"/></g></svg>