<svg xmlns="http://www.w3.org/2000/svg" xmlns:xlink="http://www.w3.org/1999/xlink" width="1080" zoomAndPan="magnify" viewBox="0 0 810 809.999993" height="1080" preserveAspectRatio="xMidYMid meet" version="1.2"><defs><clipPath id="7538a6e173"><path d="M 483.964844 122.015625 L 486.835938 122.015625 L 486.835938 124.453125 L 483.964844 124.453125 Z M 483.964844 122.015625 "/></clipPath><clipPath id="8b230882ca"><path d="M 486.824219 122.851562 C 485.550781 124.875 484.351562 124.5 484.125 124.125 C 483.824219 123.675781 484.050781 122.476562 484.425781 122.175781 C 484.875 121.800781 486.449219 122.25 486.449219 122.25 "/></clipPath><clipPath id="b18d43c7c4"><path d="M 0 69 L 506.792969 69 L 506.792969 741 L 0 741 Z M 0 69 "/></clipPath><clipPath id="e269affc3b"><path d="M 495.328125 69 L 809.492188 69 L 809.492188 741 L 495.328125 741 Z M 495.328125 69 "/></clipPath></defs><g id="057c6778e6"><g clip-rule="nonzero" clip-path="url(#7538a6e173)"><g clip-rule="nonzero" clip-path="url(#8b230882ca)"><path style=" stroke:none;fill-rule:nonzero;fill:#ffffff;fill-opacity:1;" d="M 481.125 119.175781 L 489.910156 119.175781 L 489.910156 127.726562 L 481.125 127.726562 Z M 481.125 119.175781 "/></g></g><g clip-rule="nonzero" clip-path="url(#b18d43c7c4)"><path style=" stroke:none;fill-rule:nonzero;fill:#ff751f;fill-opacity:1;" d="M 917.890625 332.042969 L 249.355469 332.042969 C 249.355469 332.042969 390.195312 192.21875 393.914062 187.433594 C 403.574219 175.050781 409.378906 159.511719 409.378906 142.605469 C 409.378906 123.917969 402.320312 106.9375 390.785156 93.984375 L 384.867188 88.0625 C 371.9375 76.527344 354.929688 69.449219 336.246094 69.449219 C 317.039062 69.449219 299.585938 76.957031 286.535156 89.082031 C 286.535156 89.082031 16.789062 358.398438 15.417969 360.175781 C 5.875 372.539062 0.140625 387.957031 0.140625 404.792969 C 0.140625 421.585938 5.875 437.027344 15.394531 449.363281 C 19.253906 454.363281 289.898438 723.847656 289.898438 723.847656 C 302.449219 734.03125 318.4375 740.140625 335.867188 740.140625 C 376.246094 740.140625 409 707.410156 409 667.03125 C 409 649.316406 402.699219 633.070312 392.230469 620.425781 L 249.355469 477.546875 L 917.890625 477.546875 C 958.082031 477.546875 990.644531 444.960938 990.644531 404.792969 C 990.644531 364.605469 958.082031 332.042969 917.890625 332.042969 "/></g><g clip-rule="nonzero" clip-path="url(#e269affc3b)"><path style=" stroke:none;fill-rule:nonzero;fill:#ff751f;fill-opacity:1;" d="M 737.238281 332.042969 L 68.699219 332.042969 C 68.699219 332.042969 209.542969 192.21875 213.257812 187.433594 C 222.921875 175.050781 228.722656 159.511719 228.722656 142.605469 C 228.722656 123.917969 221.667969 106.9375 210.132812 93.984375 L 204.210938 88.0625 C 191.28125 76.527344 174.277344 69.449219 155.59375 69.449219 C 136.386719 69.449219 118.929688 76.957031 105.882812 89.082031 C 105.882812 89.082031 -163.863281 358.398438 -165.234375 360.175781 C -174.78125 372.539062 -180.511719 387.957031 -180.511719 404.792969 C -180.511719 421.585938 -174.78125 437.027344 -165.261719 449.363281 C -161.398438 454.363281 109.246094 723.847656 109.246094 723.847656 C 121.796875 734.03125 137.78125 740.140625 155.214844 740.140625 C 195.59375 740.140625 228.34375 707.410156 228.34375 667.03125 C 228.34375 649.316406 222.046875 633.070312 211.578125 620.425781 L 68.699219 477.546875 L 737.238281 477.546875 C 777.425781 477.546875 809.992188 444.960938 809.992188 404.792969 C 809.992188 364.605469 777.425781 332.042969 737.238281 332.042969 "/></g></g></svg>