<svg xmlns="http://www.w3.org/2000/svg" xmlns:xlink="http://www.w3.org/1999/xlink" width="500" zoomAndPan="magnify" viewBox="0 0 375 374.999991" height="500" preserveAspectRatio="xMidYMid meet" version="1.0"><defs><clipPath id="e5c8af71fa"><path d="M 262.339844 37.453125 L 266.636719 37.453125 L 266.636719 41.097656 L 262.339844 41.097656 Z M 262.339844 37.453125 " clip-rule="nonzero"/></clipPath><clipPath id="808c988451"><path d="M 266.625 38.773438 C 264.675781 41.773438 262.949219 41.175781 262.574219 40.574219 C 262.125 39.898438 262.5 38.101562 263.101562 37.648438 C 263.699219 37.199219 266.023438 37.800781 266.023438 37.800781 " clip-rule="nonzero"/></clipPath><clipPath id="34d7901a9e"><path d="M 0.339844 0.453125 L 4.636719 0.453125 L 4.636719 4.097656 L 0.339844 4.097656 Z M 0.339844 0.453125 " clip-rule="nonzero"/></clipPath><clipPath id="6b291581bc"><path d="M 4.625 1.773438 C 2.675781 4.773438 0.949219 4.175781 0.574219 3.574219 C 0.125 2.898438 0.5 1.101562 1.101562 0.648438 C 1.699219 0.199219 4.023438 0.800781 4.023438 0.800781 " clip-rule="nonzero"/></clipPath><clipPath id="48a23ac5bc"><rect x="0" width="5" y="0" height="5"/></clipPath><clipPath id="bea2cf05b2"><path d="M 261.816406 37.453125 L 266.113281 37.453125 L 266.113281 41.097656 L 261.816406 41.097656 Z M 261.816406 37.453125 " clip-rule="nonzero"/></clipPath><clipPath id="a4809c02fa"><path d="M 266.101562 38.773438 C 264.148438 41.773438 262.425781 41.175781 261.976562 40.574219 C 261.601562 39.898438 261.976562 38.101562 262.574219 37.648438 C 263.101562 37.199219 265.5 37.800781 265.5 37.800781 " clip-rule="nonzero"/></clipPath><clipPath id="780662e98c"><path d="M 0.816406 0.453125 L 5.113281 0.453125 L 5.113281 4.097656 L 0.816406 4.097656 Z M 0.816406 0.453125 " clip-rule="nonzero"/></clipPath><clipPath id="da30fa67de"><path d="M 5.101562 1.773438 C 3.148438 4.773438 1.425781 4.175781 0.976562 3.574219 C 0.601562 2.898438 0.976562 1.101562 1.574219 0.648438 C 2.101562 0.199219 4.5 0.800781 4.5 0.800781 " clip-rule="nonzero"/></clipPath><clipPath id="5e21a48aaf"><rect x="0" width="6" y="0" height="5"/></clipPath></defs><g clip-path="url(#e5c8af71fa)"><g clip-path="url(#808c988451)"><g transform="matrix(1, 0, 0, 1, 262, 37)"><g clip-path="url(#48a23ac5bc)"><g clip-path="url(#34d7901a9e)"><g clip-path="url(#6b291581bc)"><rect x="-344.5" width="540" fill="#e6e6e6" height="539.999987" y="-119.499998" fill-opacity="1"/></g></g></g></g></g></g><g clip-path="url(#bea2cf05b2)"><g clip-path="url(#a4809c02fa)"><g transform="matrix(1, 0, 0, 1, 261, 37)"><g clip-path="url(#5e21a48aaf)"><g clip-path="url(#780662e98c)"><g clip-path="url(#da30fa67de)"><rect x="-343.5" width="540" fill="#e6e6e6" height="539.999987" y="-119.499998" fill-opacity="1"/></g></g></g></g></g></g><path fill="#f16712" d="M 265.203125 108.550781 L 246.710938 108.550781 L 246.710938 118.421875 C 246.710938 119.070312 246.648438 119.710938 246.519531 120.347656 C 246.394531 120.980469 246.207031 121.597656 245.960938 122.199219 C 245.710938 122.796875 245.40625 123.363281 245.046875 123.902344 C 244.6875 124.441406 244.277344 124.941406 243.820312 125.398438 C 243.363281 125.855469 242.863281 126.265625 242.324219 126.625 C 241.785156 126.984375 241.21875 127.289062 240.617188 127.539062 C 240.019531 127.785156 239.402344 127.972656 238.765625 128.101562 C 238.132812 128.226562 237.488281 128.289062 236.84375 128.289062 C 236.195312 128.289062 235.550781 128.226562 234.917969 128.101562 C 234.28125 127.972656 233.664062 127.785156 233.066406 127.539062 C 232.46875 127.289062 231.898438 126.984375 231.359375 126.625 C 230.820312 126.265625 230.320312 125.855469 229.863281 125.398438 C 229.40625 124.941406 228.996094 124.441406 228.636719 123.902344 C 228.277344 123.363281 227.972656 122.796875 227.726562 122.199219 C 227.476562 121.597656 227.289062 120.980469 227.164062 120.347656 C 227.035156 119.710938 226.972656 119.070312 226.972656 118.421875 L 226.972656 108.550781 L 197.367188 108.550781 L 197.367188 118.421875 C 197.367188 119.070312 197.304688 119.710938 197.179688 120.347656 C 197.050781 120.980469 196.863281 121.597656 196.617188 122.199219 C 196.371094 122.796875 196.066406 123.363281 195.707031 123.902344 C 195.34375 124.441406 194.9375 124.941406 194.476562 125.398438 C 194.019531 125.855469 193.519531 126.265625 192.984375 126.625 C 192.445312 126.984375 191.875 127.289062 191.277344 127.539062 C 190.679688 127.785156 190.0625 127.972656 189.425781 128.101562 C 188.789062 128.226562 188.148438 128.289062 187.5 128.289062 C 186.851562 128.289062 186.210938 128.226562 185.574219 128.101562 C 184.9375 127.972656 184.320312 127.785156 183.722656 127.539062 C 183.125 127.289062 182.554688 126.984375 182.015625 126.625 C 181.480469 126.265625 180.980469 125.855469 180.523438 125.398438 C 180.0625 124.941406 179.65625 124.441406 179.292969 123.902344 C 178.933594 123.363281 178.628906 122.796875 178.382812 122.199219 C 178.132812 121.597656 177.949219 120.980469 177.820312 120.347656 C 177.695312 119.710938 177.632812 119.070312 177.632812 118.421875 L 177.632812 108.550781 L 148.027344 108.550781 L 148.027344 118.421875 C 148.027344 119.070312 147.964844 119.710938 147.835938 120.347656 C 147.710938 120.980469 147.523438 121.597656 147.273438 122.199219 C 147.027344 122.796875 146.722656 123.363281 146.363281 123.902344 C 146.003906 124.441406 145.59375 124.941406 145.136719 125.398438 C 144.675781 125.855469 144.179688 126.265625 143.640625 126.625 C 143.101562 126.984375 142.53125 127.289062 141.933594 127.539062 C 141.335938 127.785156 140.71875 127.972656 140.082031 128.101562 C 139.449219 128.226562 138.804688 128.289062 138.15625 128.289062 C 137.511719 128.289062 136.867188 128.226562 136.234375 128.101562 C 135.597656 127.972656 134.980469 127.785156 134.382812 127.539062 C 133.78125 127.289062 133.214844 126.984375 132.675781 126.625 C 132.136719 126.265625 131.636719 125.855469 131.179688 125.398438 C 130.722656 124.941406 130.3125 124.441406 129.953125 123.902344 C 129.59375 123.363281 129.289062 122.796875 129.039062 122.199219 C 128.792969 121.597656 128.605469 120.980469 128.480469 120.347656 C 128.351562 119.710938 128.289062 119.070312 128.289062 118.421875 L 128.289062 108.550781 L 109.796875 108.550781 C 109.066406 108.554688 108.34375 108.625 107.628906 108.765625 C 106.914062 108.910156 106.222656 109.121094 105.546875 109.398438 C 104.875 109.679688 104.234375 110.019531 103.628906 110.425781 C 103.023438 110.832031 102.460938 111.292969 101.945312 111.804688 C 101.429688 112.320312 100.96875 112.882812 100.5625 113.488281 C 100.15625 114.09375 99.816406 114.734375 99.535156 115.40625 C 99.253906 116.078125 99.042969 116.773438 98.902344 117.488281 C 98.757812 118.203125 98.683594 118.925781 98.683594 119.65625 L 98.683594 148.027344 L 276.316406 148.027344 L 276.316406 119.65625 C 276.316406 118.925781 276.242188 118.203125 276.097656 117.488281 C 275.957031 116.773438 275.746094 116.078125 275.464844 115.40625 C 275.183594 114.734375 274.84375 114.09375 274.4375 113.488281 C 274.03125 112.882812 273.570312 112.320312 273.054688 111.804688 C 272.539062 111.292969 271.976562 110.832031 271.371094 110.425781 C 270.765625 110.019531 270.125 109.679688 269.453125 109.398438 C 268.777344 109.121094 268.085938 108.910156 267.371094 108.765625 C 266.65625 108.625 265.933594 108.554688 265.203125 108.550781 Z M 265.203125 108.550781 " fill-opacity="1" fill-rule="nonzero"/><path fill="#f16712" d="M 98.683594 255.34375 C 98.683594 256.074219 98.757812 256.796875 98.902344 257.511719 C 99.042969 258.226562 99.253906 258.917969 99.535156 259.59375 C 99.816406 260.265625 100.15625 260.90625 100.5625 261.511719 C 100.96875 262.117188 101.429688 262.679688 101.945312 263.195312 C 102.460938 263.707031 103.023438 264.167969 103.628906 264.574219 C 104.234375 264.980469 104.875 265.320312 105.546875 265.601562 C 106.222656 265.878906 106.914062 266.089844 107.628906 266.234375 C 108.34375 266.375 109.066406 266.445312 109.796875 266.449219 L 265.203125 266.449219 C 265.933594 266.445312 266.65625 266.375 267.371094 266.234375 C 268.085938 266.089844 268.777344 265.878906 269.453125 265.601562 C 270.125 265.320312 270.765625 264.980469 271.371094 264.574219 C 271.976562 264.167969 272.539062 263.707031 273.054688 263.195312 C 273.570312 262.679688 274.03125 262.117188 274.4375 261.511719 C 274.84375 260.90625 275.183594 260.265625 275.464844 259.59375 C 275.746094 258.917969 275.957031 258.226562 276.097656 257.511719 C 276.242188 256.796875 276.316406 256.074219 276.316406 255.34375 L 276.316406 167.761719 L 98.683594 167.761719 Z M 150.917969 210.128906 C 151.375 209.671875 151.875 209.261719 152.414062 208.902344 C 152.953125 208.542969 153.519531 208.238281 154.117188 207.988281 C 154.71875 207.742188 155.335938 207.554688 155.96875 207.429688 C 156.605469 207.300781 157.246094 207.238281 157.894531 207.238281 C 158.542969 207.238281 159.183594 207.300781 159.820312 207.429688 C 160.453125 207.554688 161.070312 207.742188 161.671875 207.988281 C 162.269531 208.238281 162.835938 208.542969 163.375 208.902344 C 163.914062 209.261719 164.414062 209.671875 164.871094 210.128906 L 177.632812 222.886719 L 210.128906 190.390625 C 210.589844 189.945312 211.089844 189.550781 211.625 189.203125 C 212.164062 188.855469 212.730469 188.5625 213.328125 188.324219 C 213.921875 188.085938 214.535156 187.910156 215.164062 187.789062 C 215.792969 187.671875 216.429688 187.617188 217.070312 187.621094 C 217.710938 187.628906 218.34375 187.695312 218.972656 187.824219 C 219.601562 187.953125 220.210938 188.140625 220.800781 188.390625 C 221.390625 188.636719 221.953125 188.9375 222.484375 189.296875 C 223.015625 189.652344 223.507812 190.058594 223.960938 190.511719 C 224.414062 190.964844 224.820312 191.457031 225.175781 191.988281 C 225.535156 192.519531 225.835938 193.082031 226.085938 193.671875 C 226.332031 194.265625 226.519531 194.875 226.648438 195.5 C 226.777344 196.128906 226.847656 196.761719 226.851562 197.402344 C 226.859375 198.042969 226.800781 198.679688 226.683594 199.308594 C 226.566406 199.941406 226.386719 200.550781 226.148438 201.148438 C 225.914062 201.742188 225.621094 202.308594 225.273438 202.847656 C 224.925781 203.386719 224.527344 203.882812 224.082031 204.34375 L 184.609375 243.820312 C 184.148438 244.277344 183.652344 244.6875 183.113281 245.046875 C 182.574219 245.40625 182.007812 245.710938 181.40625 245.957031 C 180.808594 246.207031 180.191406 246.390625 179.554688 246.519531 C 178.921875 246.644531 178.28125 246.707031 177.632812 246.707031 C 176.984375 246.707031 176.34375 246.644531 175.707031 246.519531 C 175.070312 246.390625 174.453125 246.207031 173.855469 245.957031 C 173.257812 245.710938 172.6875 245.40625 172.148438 245.046875 C 171.609375 244.6875 171.113281 244.277344 170.65625 243.820312 L 150.917969 224.082031 C 150.460938 223.625 150.050781 223.125 149.691406 222.585938 C 149.332031 222.046875 149.027344 221.480469 148.78125 220.882812 C 148.53125 220.28125 148.34375 219.664062 148.21875 219.03125 C 148.089844 218.394531 148.027344 217.753906 148.027344 217.105469 C 148.027344 216.457031 148.089844 215.816406 148.21875 215.179688 C 148.34375 214.546875 148.53125 213.929688 148.78125 213.328125 C 149.027344 212.730469 149.332031 212.164062 149.691406 211.625 C 150.050781 211.085938 150.460938 210.585938 150.917969 210.128906 Z M 150.917969 210.128906 " fill-opacity="1" fill-rule="nonzero"/><path fill="#f16712" d="M 187.5 0 C 184.429688 0 181.363281 0.0742188 178.300781 0.226562 C 175.234375 0.375 172.175781 0.601562 169.121094 0.902344 C 166.066406 1.203125 163.023438 1.578125 159.988281 2.03125 C 156.953125 2.480469 153.929688 3.003906 150.921875 3.601562 C 147.910156 4.203125 144.917969 4.875 141.941406 5.617188 C 138.964844 6.363281 136.007812 7.183594 133.070312 8.074219 C 130.136719 8.964844 127.222656 9.925781 124.332031 10.960938 C 121.445312 11.996094 118.582031 13.097656 115.746094 14.273438 C 112.910156 15.445312 110.105469 16.691406 107.332031 18.003906 C 104.558594 19.3125 101.820312 20.691406 99.113281 22.140625 C 96.40625 23.585938 93.738281 25.097656 91.105469 26.675781 C 88.472656 28.253906 85.882812 29.894531 83.332031 31.597656 C 80.777344 33.304688 78.269531 35.070312 75.804688 36.898438 C 73.339844 38.726562 70.921875 40.613281 68.550781 42.558594 C 66.179688 44.507812 63.855469 46.511719 61.582031 48.570312 C 59.308594 50.632812 57.085938 52.746094 54.917969 54.917969 C 52.746094 57.085938 50.632812 59.308594 48.570312 61.582031 C 46.511719 63.855469 44.507812 66.179688 42.558594 68.550781 C 40.613281 70.921875 38.726562 73.339844 36.898438 75.804688 C 35.070312 78.269531 33.304688 80.777344 31.597656 83.332031 C 29.894531 85.882812 28.253906 88.472656 26.675781 91.105469 C 25.097656 93.738281 23.585938 96.40625 22.140625 99.113281 C 20.691406 101.820312 19.3125 104.558594 18.003906 107.332031 C 16.691406 110.105469 15.445312 112.910156 14.273438 115.746094 C 13.097656 118.582031 11.996094 121.445312 10.960938 124.332031 C 9.925781 127.222656 8.964844 130.136719 8.074219 133.070312 C 7.183594 136.007812 6.363281 138.964844 5.617188 141.941406 C 4.875 144.917969 4.203125 147.910156 3.601562 150.921875 C 3.003906 153.929688 2.480469 156.953125 2.03125 159.988281 C 1.578125 163.023438 1.203125 166.066406 0.902344 169.121094 C 0.601562 172.175781 0.375 175.234375 0.226562 178.300781 C 0.0742188 181.363281 0 184.429688 0 187.5 C 0 190.570312 0.0742188 193.636719 0.226562 196.699219 C 0.375 199.765625 0.601562 202.824219 0.902344 205.878906 C 1.203125 208.933594 1.578125 211.976562 2.03125 215.011719 C 2.480469 218.046875 3.003906 221.070312 3.601562 224.078125 C 4.203125 227.089844 4.875 230.082031 5.617188 233.058594 C 6.363281 236.035156 7.183594 238.992188 8.074219 241.929688 C 8.964844 244.863281 9.925781 247.777344 10.960938 250.667969 C 11.996094 253.554688 13.097656 256.417969 14.273438 259.253906 C 15.445312 262.089844 16.691406 264.894531 18.003906 267.667969 C 19.3125 270.441406 20.691406 273.179688 22.140625 275.886719 C 23.585938 278.59375 25.097656 281.261719 26.675781 283.894531 C 28.253906 286.527344 29.894531 289.117188 31.597656 291.667969 C 33.304688 294.222656 35.070312 296.730469 36.898438 299.195312 C 38.726562 301.660156 40.613281 304.078125 42.558594 306.449219 C 44.507812 308.820312 46.511719 311.144531 48.570312 313.417969 C 50.632812 315.691406 52.746094 317.914062 54.917969 320.082031 C 57.085938 322.253906 59.308594 324.367188 61.582031 326.429688 C 63.855469 328.488281 66.179688 330.492188 68.550781 332.4375 C 70.921875 334.386719 73.339844 336.273438 75.804688 338.101562 C 78.269531 339.929688 80.777344 341.695312 83.332031 343.402344 C 85.882812 345.105469 88.472656 346.746094 91.105469 348.324219 C 93.738281 349.902344 96.40625 351.414062 99.113281 352.859375 C 101.820312 354.308594 104.558594 355.6875 107.332031 356.996094 C 110.105469 358.308594 112.910156 359.554688 115.746094 360.726562 C 118.582031 361.902344 121.445312 363.003906 124.332031 364.039062 C 127.222656 365.074219 130.136719 366.035156 133.070312 366.925781 C 136.007812 367.816406 138.964844 368.636719 141.941406 369.378906 C 144.917969 370.125 147.910156 370.796875 150.921875 371.398438 C 153.929688 371.996094 156.953125 372.519531 159.988281 372.96875 C 163.023438 373.421875 166.066406 373.796875 169.121094 374.097656 C 172.175781 374.398438 175.234375 374.625 178.300781 374.773438 C 181.363281 374.925781 184.429688 375 187.5 375 C 190.570312 375 193.636719 374.925781 196.699219 374.773438 C 199.765625 374.625 202.824219 374.398438 205.878906 374.097656 C 208.933594 373.796875 211.976562 373.421875 215.011719 372.96875 C 218.046875 372.519531 221.070312 371.996094 224.078125 371.398438 C 227.089844 370.796875 230.082031 370.125 233.058594 369.378906 C 236.035156 368.636719 238.992188 367.816406 241.929688 366.925781 C 244.863281 366.035156 247.777344 365.074219 250.667969 364.039062 C 253.554688 363.003906 256.417969 361.902344 259.253906 360.726562 C 262.089844 359.554688 264.894531 358.308594 267.667969 356.996094 C 270.441406 355.6875 273.179688 354.308594 275.886719 352.859375 C 278.59375 351.414062 281.261719 349.902344 283.894531 348.324219 C 286.527344 346.746094 289.117188 345.105469 291.667969 343.402344 C 294.222656 341.695312 296.730469 339.929688 299.195312 338.101562 C 301.660156 336.273438 304.078125 334.386719 306.449219 332.4375 C 308.820312 330.492188 311.144531 328.488281 313.417969 326.429688 C 315.691406 324.367188 317.914062 322.253906 320.082031 320.082031 C 322.253906 317.914062 324.367188 315.691406 326.429688 313.417969 C 328.488281 311.144531 330.492188 308.820312 332.4375 306.449219 C 334.386719 304.078125 336.273438 301.660156 338.101562 299.195312 C 339.929688 296.730469 341.695312 294.222656 343.402344 291.667969 C 345.105469 289.117188 346.746094 286.527344 348.324219 283.894531 C 349.902344 281.261719 351.414062 278.59375 352.859375 275.886719 C 354.308594 273.179688 355.6875 270.441406 356.996094 267.667969 C 358.308594 264.894531 359.554688 262.089844 360.726562 259.253906 C 361.902344 256.417969 363.003906 253.554688 364.039062 250.667969 C 365.074219 247.777344 366.035156 244.863281 366.925781 241.929688 C 367.816406 238.992188 368.636719 236.035156 369.378906 233.058594 C 370.125 230.082031 370.796875 227.089844 371.398438 224.078125 C 371.996094 221.070312 372.519531 218.046875 372.96875 215.011719 C 373.421875 211.976562 373.796875 208.933594 374.097656 205.878906 C 374.398438 202.824219 374.625 199.765625 374.773438 196.699219 C 374.925781 193.636719 375 190.570312 375 187.5 C 374.996094 184.433594 374.917969 181.367188 374.765625 178.304688 C 374.609375 175.238281 374.382812 172.179688 374.078125 169.128906 C 373.773438 166.074219 373.398438 163.03125 372.945312 160 C 372.492188 156.964844 371.964844 153.941406 371.363281 150.933594 C 370.761719 147.925781 370.085938 144.933594 369.339844 141.960938 C 368.59375 138.984375 367.773438 136.03125 366.878906 133.09375 C 365.988281 130.160156 365.023438 127.25 363.988281 124.359375 C 362.953125 121.472656 361.847656 118.613281 360.671875 115.777344 C 359.496094 112.945312 358.253906 110.140625 356.9375 107.371094 C 355.625 104.597656 354.246094 101.859375 352.800781 99.152344 C 351.351562 96.449219 349.839844 93.78125 348.261719 91.152344 C 346.683594 88.519531 345.042969 85.929688 343.335938 83.378906 C 341.632812 80.828125 339.867188 78.324219 338.039062 75.859375 C 336.210938 73.394531 334.324219 70.976562 332.375 68.605469 C 330.429688 66.234375 328.425781 63.914062 326.367188 61.640625 C 324.304688 59.367188 322.191406 57.148438 320.023438 54.976562 C 317.851562 52.808594 315.632812 50.695312 313.359375 48.632812 C 311.085938 46.574219 308.765625 44.570312 306.394531 42.625 C 304.023438 40.675781 301.605469 38.789062 299.140625 36.960938 C 296.675781 35.132812 294.171875 33.367188 291.621094 31.664062 C 289.070312 29.957031 286.480469 28.316406 283.847656 26.738281 C 281.21875 25.160156 278.550781 23.648438 275.847656 22.199219 C 273.140625 20.753906 270.402344 19.375 267.628906 18.0625 C 264.859375 16.746094 262.054688 15.503906 259.222656 14.328125 C 256.386719 13.152344 253.527344 12.046875 250.640625 11.011719 C 247.75 9.976562 244.839844 9.011719 241.90625 8.121094 C 238.96875 7.226562 236.015625 6.40625 233.039062 5.660156 C 230.066406 4.914062 227.074219 4.238281 224.066406 3.636719 C 221.058594 3.035156 218.035156 2.507812 215 2.054688 C 211.96875 1.601562 208.925781 1.226562 205.871094 0.921875 C 202.820312 0.617188 199.761719 0.390625 196.695312 0.234375 C 193.632812 0.0820312 190.566406 0.00390625 187.5 0 Z M 296.050781 255.34375 C 296.050781 256.355469 296 257.363281 295.902344 258.367188 C 295.800781 259.371094 295.652344 260.371094 295.453125 261.359375 C 295.253906 262.351562 295.007812 263.328125 294.714844 264.292969 C 294.421875 265.261719 294.082031 266.210938 293.695312 267.144531 C 293.304688 268.074219 292.875 268.988281 292.398438 269.878906 C 291.921875 270.769531 291.402344 271.632812 290.839844 272.472656 C 290.28125 273.3125 289.679688 274.121094 289.039062 274.902344 C 288.398438 275.683594 287.71875 276.429688 287.003906 277.144531 C 286.289062 277.859375 285.542969 278.535156 284.761719 279.175781 C 283.980469 279.816406 283.171875 280.417969 282.332031 280.976562 C 281.492188 281.539062 280.628906 282.058594 279.738281 282.535156 C 278.847656 283.011719 277.933594 283.441406 277.003906 283.828125 C 276.070312 284.214844 275.121094 284.554688 274.152344 284.851562 C 273.1875 285.144531 272.210938 285.390625 271.21875 285.585938 C 270.230469 285.785156 269.230469 285.933594 268.226562 286.03125 C 267.222656 286.132812 266.214844 286.183594 265.203125 286.183594 L 109.796875 286.183594 C 108.785156 286.183594 107.777344 286.132812 106.773438 286.03125 C 105.769531 285.933594 104.769531 285.785156 103.78125 285.585938 C 102.789062 285.390625 101.8125 285.144531 100.847656 284.851562 C 99.878906 284.554688 98.929688 284.214844 97.996094 283.828125 C 97.066406 283.441406 96.152344 283.011719 95.261719 282.535156 C 94.371094 282.058594 93.507812 281.539062 92.667969 280.976562 C 91.828125 280.417969 91.019531 279.816406 90.238281 279.175781 C 89.457031 278.535156 88.710938 277.859375 87.996094 277.144531 C 87.28125 276.429688 86.601562 275.683594 85.960938 274.902344 C 85.320312 274.121094 84.71875 273.3125 84.160156 272.472656 C 83.597656 271.632812 83.078125 270.769531 82.601562 269.878906 C 82.125 268.988281 81.695312 268.074219 81.304688 267.144531 C 80.917969 266.210938 80.578125 265.261719 80.285156 264.292969 C 79.992188 263.328125 79.746094 262.351562 79.546875 261.359375 C 79.347656 260.371094 79.199219 259.371094 79.097656 258.367188 C 79 257.363281 78.949219 256.355469 78.949219 255.34375 L 78.949219 119.65625 C 78.949219 118.644531 79 117.636719 79.097656 116.632812 C 79.199219 115.628906 79.347656 114.628906 79.546875 113.640625 C 79.746094 112.648438 79.992188 111.671875 80.285156 110.707031 C 80.578125 109.738281 80.917969 108.789062 81.304688 107.855469 C 81.695312 106.925781 82.125 106.011719 82.601562 105.121094 C 83.078125 104.230469 83.597656 103.367188 84.160156 102.527344 C 84.71875 101.6875 85.320312 100.878906 85.960938 100.097656 C 86.601562 99.316406 87.28125 98.570312 87.996094 97.855469 C 88.710938 97.140625 89.457031 96.464844 90.238281 95.824219 C 91.019531 95.183594 91.828125 94.582031 92.667969 94.023438 C 93.507812 93.460938 94.371094 92.941406 95.261719 92.464844 C 96.152344 91.988281 97.066406 91.558594 97.996094 91.171875 C 98.929688 90.785156 99.878906 90.445312 100.847656 90.148438 C 101.8125 89.855469 102.789062 89.609375 103.78125 89.414062 C 104.769531 89.214844 105.769531 89.066406 106.773438 88.96875 C 107.777344 88.867188 108.785156 88.816406 109.796875 88.816406 L 128.289062 88.816406 L 128.289062 78.949219 C 128.289062 78.300781 128.351562 77.65625 128.480469 77.023438 C 128.605469 76.386719 128.792969 75.769531 129.039062 75.171875 C 129.289062 74.570312 129.59375 74.003906 129.953125 73.464844 C 130.3125 72.925781 130.722656 72.425781 131.179688 71.96875 C 131.636719 71.511719 132.136719 71.101562 132.675781 70.742188 C 133.214844 70.382812 133.78125 70.078125 134.382812 69.832031 C 134.980469 69.582031 135.597656 69.394531 136.234375 69.269531 C 136.867188 69.140625 137.511719 69.078125 138.15625 69.078125 C 138.804688 69.078125 139.449219 69.140625 140.082031 69.269531 C 140.71875 69.394531 141.335938 69.582031 141.933594 69.832031 C 142.53125 70.078125 143.101562 70.382812 143.640625 70.742188 C 144.179688 71.101562 144.675781 71.511719 145.136719 71.96875 C 145.59375 72.425781 146.003906 72.925781 146.363281 73.464844 C 146.722656 74.003906 147.027344 74.570312 147.273438 75.171875 C 147.523438 75.769531 147.710938 76.386719 147.835938 77.023438 C 147.964844 77.65625 148.027344 78.300781 148.027344 78.949219 L 148.027344 88.816406 L 177.632812 88.816406 L 177.632812 78.949219 C 177.632812 78.300781 177.695312 77.65625 177.820312 77.023438 C 177.949219 76.386719 178.132812 75.769531 178.382812 75.171875 C 178.628906 74.570312 178.933594 74.003906 179.292969 73.464844 C 179.65625 72.925781 180.0625 72.425781 180.523438 71.96875 C 180.980469 71.511719 181.480469 71.101562 182.015625 70.742188 C 182.554688 70.382812 183.125 70.078125 183.722656 69.832031 C 184.320312 69.582031 184.9375 69.394531 185.574219 69.269531 C 186.210938 69.140625 186.851562 69.078125 187.5 69.078125 C 188.148438 69.078125 188.789062 69.140625 189.425781 69.269531 C 190.0625 69.394531 190.679688 69.582031 191.277344 69.832031 C 191.875 70.078125 192.445312 70.382812 192.984375 70.742188 C 193.519531 71.101562 194.019531 71.511719 194.476562 71.96875 C 194.9375 72.425781 195.34375 72.925781 195.707031 73.464844 C 196.066406 74.003906 196.371094 74.570312 196.617188 75.171875 C 196.863281 75.769531 197.050781 76.386719 197.179688 77.023438 C 197.304688 77.65625 197.367188 78.300781 197.367188 78.949219 L 197.367188 88.816406 L 226.972656 88.816406 L 226.972656 78.949219 C 226.972656 78.300781 227.035156 77.65625 227.164062 77.023438 C 227.289062 76.386719 227.476562 75.769531 227.726562 75.171875 C 227.972656 74.570312 228.277344 74.003906 228.636719 73.464844 C 228.996094 72.925781 229.40625 72.425781 229.863281 71.96875 C 230.320312 71.511719 230.820312 71.101562 231.359375 70.742188 C 231.898438 70.382812 232.46875 70.078125 233.066406 69.832031 C 233.664062 69.582031 234.28125 69.394531 234.917969 69.269531 C 235.550781 69.140625 236.195312 69.078125 236.84375 69.078125 C 237.488281 69.078125 238.132812 69.140625 238.765625 69.269531 C 239.402344 69.394531 240.019531 69.582031 240.617188 69.832031 C 241.21875 70.078125 241.785156 70.382812 242.324219 70.742188 C 242.863281 71.101562 243.363281 71.511719 243.820312 71.96875 C 244.277344 72.425781 244.6875 72.925781 245.046875 73.464844 C 245.40625 74.003906 245.710938 74.570312 245.960938 75.171875 C 246.207031 75.769531 246.394531 76.386719 246.519531 77.023438 C 246.648438 77.65625 246.710938 78.300781 246.710938 78.949219 L 246.710938 88.816406 L 265.203125 88.816406 C 266.214844 88.816406 267.222656 88.867188 268.226562 88.96875 C 269.230469 89.066406 270.230469 89.214844 271.21875 89.414062 C 272.210938 89.609375 273.1875 89.855469 274.152344 90.148438 C 275.121094 90.445312 276.070312 90.785156 277.003906 91.171875 C 277.933594 91.558594 278.847656 91.988281 279.738281 92.464844 C 280.628906 92.941406 281.492188 93.460938 282.332031 94.023438 C 283.171875 94.582031 283.980469 95.183594 284.761719 95.824219 C 285.542969 96.464844 286.289062 97.140625 287.003906 97.855469 C 287.71875 98.570312 288.398438 99.316406 289.039062 100.097656 C 289.679688 100.878906 290.28125 101.6875 290.839844 102.527344 C 291.402344 103.367188 291.921875 104.230469 292.398438 105.121094 C 292.875 106.011719 293.304688 106.925781 293.695312 107.855469 C 294.082031 108.789062 294.421875 109.738281 294.714844 110.707031 C 295.007812 111.671875 295.253906 112.648438 295.453125 113.640625 C 295.652344 114.628906 295.800781 115.628906 295.902344 116.632812 C 296 117.636719 296.050781 118.644531 296.050781 119.65625 Z M 296.050781 255.34375 " fill-opacity="1" fill-rule="nonzero"/></svg>