<svg xmlns="http://www.w3.org/2000/svg" xmlns:xlink="http://www.w3.org/1999/xlink" width="1080" zoomAndPan="magnify" viewBox="0 0 810 809.999993" height="1080" preserveAspectRatio="xMidYMid meet" version="1.2"><defs><clipPath id="eeb90295af"><path d="M 380.539062 414.921875 L 383.410156 414.921875 L 383.410156 417.359375 L 380.539062 417.359375 Z M 380.539062 414.921875 "/></clipPath><clipPath id="2810d75675"><path d="M 383.398438 415.800781 C 382.125 417.824219 380.925781 417.449219 380.699219 417 C 380.398438 416.550781 380.625 415.351562 381 415.050781 C 381.449219 414.75 383.023438 415.199219 383.023438 415.199219 "/></clipPath></defs><g id="a4cd8beeba"><path style=" stroke:none;fill-rule:evenodd;fill:#2a5df5;fill-opacity:1;" d="M 405.019531 809.996094 C 628.054688 809.996094 809.996094 628.054688 809.996094 405.019531 C 809.996094 181.984375 628.054688 0.00390625 405.019531 0.00390625 C 181.984375 0.00390625 0.00390625 181.945312 0.00390625 405.019531 C 0.00390625 628.09375 181.945312 809.996094 405.019531 809.996094 Z M 405.019531 809.996094 "/><path style=" stroke:none;fill-rule:nonzero;fill:#ffffff;fill-opacity:1;" d="M 140.972656 546.109375 L 283.84375 403.238281 L 140.972656 260.328125 Z M 140.972656 546.109375 "/><path style=" stroke:none;fill-rule:nonzero;fill:#ffffff;fill-opacity:1;" d="M 640.683594 576.511719 L 496.785156 432.609375 L 450.152344 479.246094 C 437.71875 491.675781 421.371094 497.890625 405.019531 497.890625 C 388.671875 497.890625 372.28125 491.675781 359.851562 479.246094 L 313.21875 432.609375 L 169.320312 576.511719 Z M 640.683594 576.511719 "/><path style=" stroke:none;fill-rule:nonzero;fill:#ffffff;fill-opacity:1;" d="M 669.066406 260.328125 L 526.15625 403.238281 L 669.066406 546.109375 Z M 669.066406 260.328125 "/><path style=" stroke:none;fill-rule:nonzero;fill:#ffffff;fill-opacity:1;" d="M 172.878906 233.527344 L 327.90625 388.550781 L 389.226562 449.871094 C 393.542969 454.1875 399.28125 456.363281 405.019531 456.363281 C 410.761719 456.363281 416.460938 454.1875 420.777344 449.871094 L 637.121094 233.527344 Z M 172.878906 233.527344 "/><g clip-rule="nonzero" clip-path="url(#eeb90295af)"><g clip-rule="nonzero" clip-path="url(#2810d75675)"><path style=" stroke:none;fill-rule:nonzero;fill:#ffffff;fill-opacity:1;" d="M 377.699219 412.050781 L 386.484375 412.050781 L 386.484375 420.601562 L 377.699219 420.601562 Z M 377.699219 412.050781 "/></g></g></g></svg>