<svg xmlns="http://www.w3.org/2000/svg" xmlns:xlink="http://www.w3.org/1999/xlink" width="1080" zoomAndPan="magnify" viewBox="0 0 810 809.999993" height="1080" preserveAspectRatio="xMidYMid meet" version="1.2"><defs><clipPath id="5a55a85e2a"><path d="M 380.539062 414.921875 L 383.410156 414.921875 L 383.410156 417.359375 L 380.539062 417.359375 Z M 380.539062 414.921875 "/></clipPath><clipPath id="f07dfcf493"><path d="M 383.398438 415.800781 C 382.125 417.824219 380.925781 417.449219 380.699219 417 C 380.398438 416.550781 380.625 415.351562 381 415.050781 C 381.449219 414.75 383.023438 415.199219 383.023438 415.199219 "/></clipPath><clipPath id="c64d7660a0"><path d="M 260.25 114 L 558.601562 114 L 558.601562 455.378906 L 260.25 455.378906 Z M 260.25 114 "/></clipPath><clipPath id="302c268c31"><path d="M 261 348.375 C 263.699219 286.050781 265.425781 274.5 265.875 261.824219 C 266.324219 248.925781 264.976562 235.949219 265.425781 222.898438 C 265.800781 209.625 263.101562 195.375 268.425781 182.925781 C 274.574219 168.449219 290.851562 152.25 304.125 143.023438 C 315.601562 135.074219 328.800781 132.226562 341.699219 128.25 C 354.675781 124.273438 368.175781 121.425781 381.824219 119.101562 C 395.925781 116.773438 410.851562 114.226562 424.875 114.300781 C 438.375 114.375 451.726562 114.449219 464.324219 119.023438 C 477.976562 124.050781 491.25 135.601562 503.398438 144.976562 C 515.175781 153.898438 527.25 162.226562 536.175781 173.773438 C 545.550781 185.851562 555 201.523438 557.773438 216.148438 C 560.476562 230.25 555.148438 245.101562 553.648438 259.726562 C 552.148438 274.648438 549.898438 290.476562 548.699219 304.875 C 547.648438 318 547.050781 329.625 546.75 342.601562 C 546.449219 356.476562 549.75 372 547.050781 385.648438 C 544.351562 399.074219 538.949219 413.023438 530.773438 423.824219 C 522.523438 434.773438 510.449219 445.726562 497.324219 450.601562 C 483.300781 455.773438 462.523438 457.125 448.574219 452.25 C 435.300781 447.601562 418.273438 422.625 414.898438 423.675781 C 413.851562 424.050781 414.523438 426 413.925781 427.5 C 413.101562 429.75 411.375 433.125 409.648438 435.675781 C 407.925781 438.148438 405.824219 440.550781 403.574219 442.574219 C 401.25 444.601562 398.699219 446.398438 396 447.75 C 393.300781 449.175781 390.300781 450.300781 387.375 451.050781 C 384.375 451.800781 378.226562 452.175781 378.226562 452.175781 C 378.226562 452.175781 366.601562 452.699219 359.25 452.398438 C 348.824219 452.023438 334.5 452.773438 321.601562 449.25 C 306.523438 444.976562 284.925781 437.476562 275.023438 426.148438 C 266.324219 416.101562 264.449219 400.648438 262.125 387.523438 C 259.800781 374.699219 261 348.375 261 348.375 M 350.699219 237.601562 C 400.125 237.375 414.601562 231.226562 427.199219 233.773438 C 439.800781 236.324219 456.675781 256.5 462.601562 253.199219 C 467.851562 250.273438 468.824219 229.125 464.175781 220.726562 C 459.148438 211.726562 442.726562 205.425781 430.648438 202.351562 C 418.5 199.273438 404.324219 199.5 391.5 202.574219 C 377.625 205.875 355.800781 214.949219 350.851562 222.898438 C 348 227.398438 350.699219 237.601562 350.699219 237.601562 "/></clipPath><clipPath id="147194d1ec"><path d="M 166.402344 75.898438 L 643.402344 75.898438 L 643.402344 734 L 166.402344 734 Z M 166.402344 75.898438 "/></clipPath><clipPath id="e4f4eb7421"><path d="M 298.386719 176.945312 L 490.75 176.945312 L 490.75 263.4375 L 298.386719 263.4375 Z M 298.386719 176.945312 "/></clipPath><clipPath id="ff502f36b3"><path d="M 336.976562 185.925781 C 378.226562 184.875 394.050781 181.648438 408.148438 180.226562 C 421.800781 178.800781 439.351562 176.550781 448.726562 177.074219 C 453.824219 177.300781 456.523438 178.050781 460.351562 179.25 C 464.398438 180.449219 468.675781 182.101562 472.273438 184.425781 C 475.875 186.824219 479.25 189.898438 481.875 193.199219 C 484.574219 196.574219 486.75 200.550781 488.175781 204.601562 C 489.601562 208.648438 490.425781 213.148438 490.5 217.425781 C 490.574219 221.699219 489.976562 226.199219 488.625 230.25 C 487.351562 234.375 485.324219 238.425781 482.773438 241.875 C 480.226562 245.324219 477 248.550781 473.476562 250.949219 C 470.023438 253.425781 465.898438 255.449219 461.773438 256.648438 C 457.726562 257.851562 453.148438 258.449219 448.875 258.300781 C 444.601562 258.148438 440.175781 257.25 436.125 255.75 C 432.148438 254.25 428.175781 251.925781 424.875 249.226562 C 421.574219 246.523438 418.574219 243.074219 416.324219 239.476562 C 414 235.875 412.273438 231.675781 411.226562 227.476562 C 410.25 223.351562 409.949219 218.773438 410.324219 214.5 C 410.699219 210.226562 411.824219 205.800781 413.550781 201.898438 C 415.273438 198 417.75 194.175781 420.675781 191.023438 C 423.523438 187.875 427.125 185.023438 430.875 183 C 434.625 180.898438 438.898438 179.324219 443.101562 178.574219 C 447.300781 177.824219 451.875 177.75 456.148438 178.351562 C 460.351562 178.949219 464.699219 180.375 468.523438 182.25 C 472.351562 184.199219 476.023438 186.898438 479.023438 189.976562 C 482.023438 193.050781 484.648438 196.726562 486.523438 200.625 C 488.398438 204.449219 489.675781 208.800781 490.199219 213.074219 C 490.726562 217.273438 490.574219 221.851562 489.75 226.050781 C 488.925781 230.25 487.273438 234.523438 485.175781 238.199219 C 483 241.949219 480.148438 245.476562 476.925781 248.25 C 473.699219 251.101562 469.800781 253.5 465.898438 255.226562 C 461.925781 256.875 457.5 257.925781 453.226562 258.226562 C 448.949219 258.523438 440.324219 257.550781 440.324219 257.023438 C 440.25 256.800781 443.773438 256.273438 443.773438 256.125 C 443.625 255.375 385.050781 262.050781 365.398438 262.875 C 353.625 263.324219 343.875 263.175781 336.976562 262.726562 C 333.074219 262.5 330.75 262.351562 327.824219 261.601562 C 324.824219 260.851562 321.824219 259.726562 319.125 258.300781 C 316.425781 256.875 313.800781 255.074219 311.476562 253.050781 C 309.226562 251.023438 307.125 248.625 305.398438 246.148438 C 303.601562 243.601562 302.175781 240.824219 301.050781 237.898438 C 300 235.050781 299.25 231.976562 298.875 228.976562 C 298.5 225.898438 298.5 222.75 298.875 219.675781 C 299.25 216.675781 300 213.523438 301.050781 210.675781 C 302.175781 207.824219 303.601562 204.976562 305.398438 202.5 C 307.125 199.949219 309.226562 197.625 311.550781 195.523438 C 313.800781 193.5 316.425781 191.699219 319.125 190.273438 C 321.824219 188.851562 324.824219 187.726562 327.824219 187.050781 C 330.75 186.300781 336.976562 185.925781 336.976562 185.925781 "/></clipPath><clipPath id="12887731e0"><path d="M 261.667969 143.394531 L 549 143.394531 L 549 459.914062 L 261.667969 459.914062 Z M 261.667969 143.394531 "/></clipPath><clipPath id="91a510d3d6"><path d="M 261.675781 391.425781 C 280.050781 339.226562 286.273438 336.824219 286.875 333.824219 C 287.25 332.101562 285.824219 331.574219 285.300781 329.324219 C 283.949219 322.875 282.375 304.199219 282 291.375 C 281.625 278.324219 280.351562 264.976562 283.199219 251.550781 C 286.351562 236.773438 292.875 218.773438 301.425781 206.699219 C 309.226562 195.75 321.074219 190.050781 330.824219 180.824219 C 341.25 170.925781 349.800781 154.875 361.875 148.949219 C 373.199219 143.398438 387.300781 145.351562 400.199219 144.523438 C 413.476562 143.699219 426.75 142.949219 440.550781 144.148438 C 455.398438 145.5 474 146.175781 486.449219 152.851562 C 497.625 158.925781 505.425781 170.101562 513 180.300781 C 520.726562 190.574219 527.175781 201.898438 532.199219 214.425781 C 537.601562 228 541.273438 244.273438 543.523438 258.976562 C 545.699219 273.074219 545.023438 286.949219 545.773438 300.976562 C 546.523438 314.925781 548.550781 328.949219 548.25 342.976562 C 547.875 357.226562 548.851562 372.75 543.824219 385.875 C 538.726562 399.300781 528.601562 413.398438 517.425781 422.476562 C 506.550781 431.324219 491.25 435.226562 478.199219 440.101562 C 465.898438 444.675781 454.273438 448.726562 441.375 451.125 C 427.875 453.675781 413.023438 453.226562 398.851562 454.425781 C 384.675781 455.699219 370.648438 458.175781 356.476562 458.550781 C 342.375 458.925781 327.300781 460.648438 314.023438 456.675781 C 300.449219 452.699219 284.773438 445.050781 276 434.25 C 267.226562 423.375 261.675781 391.425781 261.675781 391.425781 M 363.375 291.226562 C 394.050781 284.175781 404.550781 281.101562 405 280.800781 C 405 280.726562 405 280.726562 405 280.726562 C 405.226562 280.5 407.476562 278.625 408.601562 277.5 C 409.800781 276.300781 410.851562 274.648438 411.898438 273.824219 C 412.574219 273.226562 413.324219 273.148438 414 272.625 C 414.675781 272.175781 415.050781 271.5 415.800781 270.976562 C 416.925781 270.300781 418.800781 269.773438 420.300781 269.101562 C 421.726562 268.351562 423.300781 267.148438 424.5 266.699219 C 425.398438 266.324219 426.148438 266.476562 426.898438 266.25 C 427.648438 265.949219 428.25 265.5 429.148438 265.273438 C 430.425781 264.898438 432.375 265.050781 434.023438 264.824219 C 435.601562 264.601562 438.75 263.925781 438.75 263.925781 C 438.75 263.925781 457.5 260.550781 457.648438 260.550781 C 457.648438 260.550781 457.648438 260.550781 457.648438 260.476562 C 457.726562 260.476562 460.425781 260.324219 460.875 259.875 C 461.101562 259.574219 461.175781 259.273438 460.949219 258.75 C 459.675781 255.449219 441.601562 234 429.601562 230.175781 C 418.050781 226.5 401.550781 228.976562 390.675781 234.976562 C 379.273438 241.351562 367.351562 258 363.523438 268.800781 C 360.75 276.523438 363.375 291.226562 363.375 291.226562 "/></clipPath><clipPath id="36ff2e1032"><path d="M 243.242188 146.742188 L 566.492188 146.742188 L 566.492188 469.992188 L 243.242188 469.992188 Z M 243.242188 146.742188 "/></clipPath></defs><g id="13459194c1"><rect x="0" width="810" y="0" height="809.999993" style="fill:#ffffff;fill-opacity:1;stroke:none;"/><rect x="0" width="810" y="0" height="809.999993" style="fill:#1f80ff;fill-opacity:1;stroke:none;"/><g clip-rule="nonzero" clip-path="url(#5a55a85e2a)"><g clip-rule="nonzero" clip-path="url(#f07dfcf493)"><path style=" stroke:none;fill-rule:nonzero;fill:#ffffff;fill-opacity:1;" d="M 377.699219 412.050781 L 386.484375 412.050781 L 386.484375 420.601562 L 377.699219 420.601562 Z M 377.699219 412.050781 "/></g></g><g clip-rule="nonzero" clip-path="url(#c64d7660a0)"><g clip-rule="nonzero" clip-path="url(#302c268c31)"><path style=" stroke:none;fill-rule:nonzero;fill:#1f80ff;fill-opacity:1;" d="M 258 111.300781 L 560.851562 111.300781 L 560.851562 455.378906 L 258 455.378906 Z M 258 111.300781 "/></g></g><g clip-rule="nonzero" clip-path="url(#147194d1ec)"><path style=" stroke:none;fill-rule:nonzero;fill:#ffffff;fill-opacity:1;" d="M 366.761719 611.066406 C 357.429688 583.847656 340.347656 559.949219 317.621094 542.304688 L 261.75 498.933594 C 204.378906 454.394531 169.539062 386.847656 166.519531 314.28125 C 166.519531 182.625 273.246094 75.898438 404.902344 75.898438 C 536.558594 75.898438 643.285156 182.625 643.285156 314.28125 C 640.261719 386.847656 605.421875 454.394531 548.050781 498.933594 L 492.179688 542.304688 C 469.457031 559.949219 452.375 583.847656 443.042969 611.066406 L 436.472656 630.234375 C 431.847656 643.722656 419.164062 652.785156 404.902344 652.785156 C 390.640625 652.785156 377.957031 643.722656 373.328125 630.234375 Z M 404.902344 733.835938 C 352.238281 733.835938 309.546875 727.429688 309.546875 719.53125 C 309.546875 711.632812 352.238281 705.230469 404.902344 705.230469 C 457.566406 705.230469 500.253906 711.632812 500.253906 719.53125 C 500.253906 727.429688 457.566406 733.835938 404.902344 733.835938 Z M 404.902344 500.21875 C 510.226562 500.21875 595.609375 414.835938 595.609375 309.511719 C 595.609375 204.191406 510.226562 118.808594 404.902344 118.808594 C 299.574219 118.808594 214.195312 204.191406 214.195312 309.511719 C 214.195312 414.835938 299.574219 500.21875 404.902344 500.21875 Z M 472.269531 192.722656 C 487.617188 198.976562 496.148438 207.222656 497.851562 217.453125 L 509.699219 291.070312 C 509.757812 291.453125 509.789062 291.835938 509.789062 292.222656 L 509.789062 375.835938 C 509.789062 381.847656 504.921875 386.71875 498.910156 386.71875 L 310.894531 386.71875 C 304.882812 386.71875 300.011719 381.847656 300.011719 375.835938 L 300.011719 292.183594 C 300.011719 291.824219 300.042969 291.46875 300.09375 291.109375 L 311.097656 217.453125 C 312.804688 207.222656 321.332031 198.976562 336.683594 192.722656 C 356.011719 184.769531 378.609375 180.785156 404.472656 180.785156 C 430.339844 180.785156 452.941406 184.769531 472.269531 192.722656 Z M 470.5 373.035156 C 478.511719 373.035156 485.007812 379.53125 485.007812 387.542969 L 485.007812 409.308594 C 485.007812 417.320312 478.511719 423.820312 470.5 423.820312 C 462.484375 423.820312 455.984375 417.320312 455.984375 409.308594 L 455.984375 387.542969 C 455.984375 379.53125 462.484375 373.035156 470.5 373.035156 Z M 336.289062 373.035156 C 344.300781 373.035156 350.796875 379.53125 350.796875 387.542969 L 350.796875 409.308594 C 350.796875 417.320312 344.300781 423.820312 336.289062 423.820312 C 328.273438 423.820312 321.773438 417.320312 321.773438 409.308594 L 321.773438 387.542969 C 321.773438 379.53125 328.273438 373.035156 336.289062 373.035156 Z M 353.367188 354.054688 C 357.039062 350.519531 358.878906 346.101562 358.878906 340.804688 C 358.878906 335.503906 357.039062 331.085938 353.367188 327.554688 C 349.6875 324.019531 345.34375 322.253906 340.328125 322.253906 C 335.316406 322.253906 330.972656 324.019531 327.292969 327.554688 C 323.613281 331.085938 321.773438 335.503906 321.773438 340.804688 C 321.773438 346.101562 323.613281 350.519531 327.292969 354.054688 C 330.972656 357.585938 335.316406 359.351562 340.328125 359.351562 C 345.34375 359.351562 349.6875 357.585938 353.367188 354.054688 Z M 480.164062 354.054688 C 483.945312 350.519531 485.835938 346.101562 485.835938 340.804688 C 485.835938 335.503906 483.945312 331.085938 480.164062 327.554688 C 476.386719 324.019531 471.921875 322.253906 466.769531 322.253906 C 461.617188 322.253906 457.324219 324.019531 453.886719 327.554688 C 450.449219 331.085938 448.734375 335.503906 448.734375 340.804688 C 448.734375 346.101562 450.449219 350.519531 453.886719 354.054688 C 457.324219 357.585938 461.617188 359.351562 466.769531 359.351562 C 471.921875 359.351562 476.386719 357.585938 480.164062 354.054688 Z M 372.121094 198.921875 C 366.355469 198.921875 361.675781 203.597656 361.675781 209.367188 C 361.675781 215.132812 366.355469 219.808594 372.121094 219.808594 L 434.792969 219.808594 C 440.5625 219.808594 445.234375 215.132812 445.234375 209.367188 C 445.234375 203.597656 440.5625 198.921875 434.792969 198.921875 Z M 332.6875 235.363281 C 330.804688 235.363281 329.011719 236.890625 328.679688 238.773438 L 318.820312 295.054688 C 318.488281 296.941406 319.972656 298.46875 322.128906 298.46875 L 488.214844 298.46875 C 490.371094 298.46875 491.851562 296.941406 491.523438 295.054688 L 481.664062 238.773438 C 481.332031 236.890625 479.539062 235.363281 477.65625 235.363281 Z M 332.6875 235.363281 "/></g><g clip-rule="nonzero" clip-path="url(#e4f4eb7421)"><g clip-rule="nonzero" clip-path="url(#ff502f36b3)"><path style=" stroke:none;fill-rule:nonzero;fill:#1f80ff;fill-opacity:1;" d="M 295.875 174.074219 L 493.621094 174.074219 L 493.621094 265.949219 L 295.875 265.949219 Z M 295.875 174.074219 "/></g></g><g clip-rule="nonzero" clip-path="url(#12887731e0)"><g clip-rule="nonzero" clip-path="url(#91a510d3d6)"><path style=" stroke:none;fill-rule:nonzero;fill:#1f80ff;fill-opacity:1;" d="M 258.675781 141.148438 L 551.25 141.148438 L 551.25 461.410156 L 258.675781 461.410156 Z M 258.675781 141.148438 "/></g></g><g clip-rule="nonzero" clip-path="url(#36ff2e1032)"><path style=" stroke:none;fill-rule:nonzero;fill:#ffffff;fill-opacity:1;" d="M 404.867188 146.742188 C 315.742188 146.742188 243.242188 219.238281 243.242188 308.367188 C 243.242188 397.492188 315.742188 469.992188 404.867188 469.992188 C 493.996094 469.992188 566.492188 397.492188 566.492188 308.367188 C 566.492188 219.238281 493.996094 146.742188 404.867188 146.742188 Z M 555.417969 308.367188 C 555.417969 391.378906 487.882812 458.914062 404.867188 458.914062 C 321.855469 458.914062 254.320312 391.378906 254.320312 308.367188 C 254.320312 225.351562 321.855469 157.816406 404.867188 157.816406 C 487.882812 157.816406 555.417969 225.351562 555.417969 308.367188 Z M 555.417969 308.367188 "/></g><path style=" stroke:none;fill-rule:nonzero;fill:#ffffff;fill-opacity:1;" d="M 310.4375 268.378906 C 311.957031 264.65625 314.71875 263.105469 318.6875 263.445312 C 320.085938 263.570312 321.511719 263.476562 323.09375 263.476562 C 323.09375 276.257812 323.09375 288.976562 323.09375 301.789062 C 320.582031 301.789062 318.070312 301.945312 315.585938 301.757812 C 312.886719 301.539062 311.617188 299.398438 310.4375 297.257812 C 310.4375 287.613281 310.4375 277.996094 310.4375 268.378906 Z M 310.4375 268.378906 "/><path style=" stroke:none;fill-rule:nonzero;fill:#ffffff;fill-opacity:1;" d="M 499.300781 297.226562 C 498.710938 298.128906 498.308594 299.277344 497.5 299.867188 C 496.261719 300.734375 494.800781 301.539062 493.34375 301.757812 C 491.171875 302.066406 488.90625 301.851562 486.582031 301.851562 C 486.582031 289.007812 486.582031 276.320312 486.582031 263.539062 C 489.0625 263.539062 491.453125 263.351562 493.808594 263.601562 C 496.664062 263.878906 498.214844 265.957031 499.300781 268.410156 C 499.300781 277.996094 499.300781 287.613281 499.300781 297.226562 Z M 499.300781 297.226562 "/><path style=" stroke:none;fill-rule:nonzero;fill:#ffffff;fill-opacity:1;" d="M 340.589844 378.941406 C 336.09375 378.722656 332.648438 377.015625 330.136719 373.574219 C 328.246094 371 327.6875 368.050781 327.6875 364.917969 C 327.6875 339.820312 327.6875 314.757812 327.6875 289.660156 C 327.6875 277.03125 327.746094 264.40625 327.6875 251.78125 C 327.625 242.195312 330.355469 233.507812 336.496094 226.15625 C 343.601562 217.6875 352.75 212.691406 363.859375 212.382812 C 375.429688 212.042969 387.03125 212.257812 398.601562 212.257812 C 413.183594 212.257812 427.792969 212.320312 442.375 212.226562 C 449.074219 212.195312 455.402344 213.53125 461.296875 216.695312 C 467.96875 220.292969 473.210938 225.472656 476.871094 232.175781 C 480.191406 238.253906 481.617188 244.800781 481.585938 251.6875 C 481.585938 289.070312 481.460938 326.453125 481.679688 363.832031 C 481.710938 372.179688 477.210938 378.445312 468.679688 379.003906 C 468.679688 382.910156 468.742188 386.820312 468.648438 390.761719 C 468.617188 392.496094 468.402344 394.265625 467.96875 395.910156 C 466.695312 400.5 462.167969 404.191406 457.390625 404.378906 C 452.144531 404.566406 446.902344 404.597656 441.660156 404.378906 C 435.921875 404.128906 430.925781 399.105469 430.523438 393.367188 C 430.246094 389.332031 430.367188 385.300781 430.339844 381.234375 C 430.339844 380.523438 430.339844 379.839844 430.339844 379.003906 C 413.214844 379.003906 396.183594 379.003906 378.964844 379.003906 C 378.964844 382.972656 379.058594 386.882812 378.933594 390.789062 C 378.871094 392.558594 378.625 394.390625 378.128906 396.097656 C 376.761719 400.625 372.296875 404.222656 367.582031 404.378906 C 362.335938 404.566406 357.09375 404.597656 351.851562 404.378906 C 346.082031 404.128906 341.023438 398.917969 340.746094 393.148438 C 340.558594 389.054688 340.652344 384.957031 340.621094 380.863281 C 340.589844 380.273438 340.589844 379.652344 340.589844 378.941406 Z M 468.835938 250.789062 C 425.964844 250.789062 383.214844 250.789062 340.527344 250.789062 C 340.527344 276.476562 340.527344 302.035156 340.527344 327.597656 C 383.371094 327.597656 426.058594 327.597656 468.835938 327.597656 C 468.835938 301.945312 468.835938 276.445312 468.835938 250.789062 Z M 379.121094 225.007812 C 379.121094 229.320312 379.121094 233.539062 379.121094 237.789062 C 396.214844 237.789062 413.183594 237.789062 430.214844 237.789062 C 430.214844 233.476562 430.214844 229.289062 430.214844 225.007812 C 413.089844 225.007812 396.121094 225.007812 379.121094 225.007812 Z M 340.527344 353.59375 C 340.871094 360.824219 346.765625 366.375 353.804688 366.066406 C 360.816406 365.757812 366.402344 359.800781 366.152344 352.976562 C 365.875 345.746094 359.917969 340.164062 352.875 340.503906 C 345.773438 340.875 340.21875 346.738281 340.527344 353.59375 Z M 455.992188 366.097656 C 463.003906 366.066406 468.773438 360.328125 468.773438 353.285156 C 468.804688 346.273438 463.003906 340.503906 455.929688 340.535156 C 448.859375 340.566406 443.089844 346.335938 443.117188 353.347656 C 443.179688 360.328125 448.980469 366.097656 455.992188 366.097656 Z M 455.992188 366.097656 "/></g></svg>