<svg xmlns="http://www.w3.org/2000/svg" xmlns:xlink="http://www.w3.org/1999/xlink" width="1080" zoomAndPan="magnify" viewBox="0 0 810 809.999993" height="1080" preserveAspectRatio="xMidYMid meet" version="1.2"><defs><clipPath id="c0f1676f5a"><path d="M 483.964844 122.015625 L 486.835938 122.015625 L 486.835938 124.453125 L 483.964844 124.453125 Z M 483.964844 122.015625 "/></clipPath><clipPath id="6cf5a50462"><path d="M 486.824219 122.851562 C 485.550781 124.875 484.351562 124.5 484.125 124.125 C 483.824219 123.675781 484.050781 122.476562 484.425781 122.175781 C 484.875 121.800781 486.449219 122.25 486.449219 122.25 "/></clipPath></defs><g id="994d7d173b"><g clip-rule="nonzero" clip-path="url(#c0f1676f5a)"><g clip-rule="nonzero" clip-path="url(#6cf5a50462)"><path style=" stroke:none;fill-rule:nonzero;fill:#ffffff;fill-opacity:1;" d="M 481.125 119.175781 L 489.910156 119.175781 L 489.910156 127.726562 L 481.125 127.726562 Z M 481.125 119.175781 "/></g></g><path style=" stroke:none;fill-rule:evenodd;fill:#ffffff;fill-opacity:1;" d="M 196.023438 436.664062 L 551.585938 792.222656 C 568.941406 809.578125 597.085938 809.578125 614.441406 792.222656 C 631.796875 774.867188 631.796875 747.191406 614.441406 729.835938 L 289.839844 405.234375 L 614.441406 80.632812 C 631.796875 63.277344 631.796875 35.132812 614.441406 17.777344 C 597.085938 0.421875 568.941406 0.421875 551.585938 17.777344 L 195.554688 373.804688 C 178.199219 391.164062 178.199219 419.308594 196.023438 436.664062 Z M 196.023438 436.664062 "/></g></svg>