<svg xmlns="http://www.w3.org/2000/svg" xmlns:xlink="http://www.w3.org/1999/xlink" width="500" zoomAndPan="magnify" viewBox="0 0 375 374.999991" height="500" preserveAspectRatio="xMidYMid meet" version="1.0"><defs><clipPath id="77671090af"><path d="M 46 118 L 360 118 L 360 360.332031 L 46 360.332031 Z M 46 118 " clip-rule="nonzero"/></clipPath><clipPath id="8e115b9035"><path d="M 237.925781 36.402344 L 242.1875 36.402344 L 242.1875 40.046875 L 237.925781 40.046875 Z M 237.925781 36.402344 " clip-rule="nonzero"/></clipPath><clipPath id="8b0aafb214"><path d="M 242.175781 37.648438 C 240.300781 40.726562 238.5 40.125 238.125 39.523438 C 237.75 38.851562 238.050781 37.050781 238.648438 36.601562 C 239.25 36.148438 241.648438 36.75 241.648438 36.75 " clip-rule="nonzero"/></clipPath><clipPath id="66f408486d"><path d="M 0.925781 0.402344 L 5.1875 0.402344 L 5.1875 4.046875 L 0.925781 4.046875 Z M 0.925781 0.402344 " clip-rule="nonzero"/></clipPath><clipPath id="dc87c9b37a"><path d="M 5.175781 1.648438 C 3.300781 4.726562 1.5 4.125 1.125 3.523438 C 0.75 2.851562 1.050781 1.050781 1.648438 0.601562 C 2.25 0.148438 4.648438 0.75 4.648438 0.75 " clip-rule="nonzero"/></clipPath><clipPath id="ed68452e92"><rect x="0" width="6" y="0" height="5"/></clipPath></defs><path fill="#e6e6e6" d="M 219.46875 98.648438 L 189.0625 84.011719 C 188.183594 83.585938 187.148438 83.585938 186.261719 84.011719 L 99.851562 125.527344 C 98.734375 126.0625 98.019531 127.191406 98.019531 128.4375 C 98.019531 129.675781 98.730469 130.800781 99.847656 131.34375 L 130.253906 145.984375 C 130.703125 146.199219 131.175781 146.308594 131.660156 146.308594 C 132.136719 146.308594 132.617188 146.195312 133.058594 145.984375 L 219.46875 104.46875 C 220.589844 103.929688 221.296875 102.796875 221.296875 101.558594 C 221.292969 100.3125 220.589844 99.183594 219.46875 98.648438 Z M 219.46875 98.648438 " fill-opacity="1" fill-rule="nonzero"/><path fill="#e6e6e6" d="M 85.023438 143.425781 C 84.082031 144.015625 83.511719 145.050781 83.511719 146.160156 L 83.511719 242.054688 C 83.511719 243.296875 84.222656 244.425781 85.339844 244.964844 L 175.121094 288.195312 C 175.5625 288.410156 176.046875 288.503906 176.523438 288.503906 C 177.125 288.503906 177.71875 288.339844 178.242188 288.019531 C 179.183594 287.429688 179.753906 286.390625 179.753906 285.285156 L 179.753906 189.386719 C 179.753906 188.148438 179.046875 187.011719 177.925781 186.476562 L 88.140625 143.253906 C 87.144531 142.769531 85.964844 142.832031 85.023438 143.425781 Z M 106.472656 188.9375 C 107.769531 186.234375 110.546875 184.484375 113.546875 184.484375 C 114.734375 184.484375 115.878906 184.75 116.972656 185.28125 L 150.054688 201.1875 C 151.945312 202.097656 153.367188 203.6875 154.058594 205.679688 C 154.75 207.65625 154.632812 209.792969 153.71875 211.695312 C 151.925781 215.441406 147.105469 217.242188 143.230469 215.351562 L 110.144531 199.441406 C 108.253906 198.539062 106.835938 196.953125 106.140625 194.96875 C 105.4375 192.988281 105.554688 190.847656 106.472656 188.9375 Z M 106.472656 188.9375 " fill-opacity="1" fill-rule="nonzero"/><path fill="#e6e6e6" d="M 195.503906 189.390625 L 195.503906 285.289062 C 195.503906 286.394531 196.070312 287.433594 197.011719 288.023438 C 197.535156 288.34375 198.132812 288.507812 198.730469 288.507812 C 199.207031 288.507812 199.6875 288.414062 200.128906 288.199219 L 289.917969 244.96875 C 291.039062 244.429688 291.75 243.300781 291.75 242.058594 L 291.75 146.214844 C 291.75 145.101562 291.179688 144.070312 290.238281 143.476562 C 289.300781 142.886719 288.113281 142.824219 287.121094 143.296875 L 197.328125 186.476562 C 196.207031 187.015625 195.503906 188.152344 195.503906 189.390625 Z M 195.503906 189.390625 " fill-opacity="1" fill-rule="nonzero"/><path fill="#e6e6e6" d="M 275.425781 125.601562 L 245.074219 110.980469 C 244.191406 110.554688 243.160156 110.554688 242.273438 110.980469 L 155.851562 152.492188 C 154.734375 153.03125 154.019531 154.15625 154.019531 155.402344 C 154.019531 156.640625 154.730469 157.777344 155.851562 158.308594 L 186.230469 172.929688 C 186.671875 173.140625 187.148438 173.253906 187.628906 173.253906 C 188.109375 173.253906 188.589844 173.140625 189.03125 172.929688 L 275.425781 131.417969 C 276.546875 130.882812 277.257812 129.753906 277.257812 128.507812 C 277.253906 127.273438 276.546875 126.148438 275.425781 125.601562 Z M 275.425781 125.601562 " fill-opacity="1" fill-rule="nonzero"/><path fill="#e6e6e6" d="M 35.960938 258.167969 C 36.964844 258.167969 37.984375 257.980469 38.972656 257.585938 C 43.109375 255.914062 45.109375 251.214844 43.445312 247.074219 C 17.742188 183.234375 36.523438 111.300781 90.175781 68.085938 C 145.929688 23.171875 223.515625 23.195312 278.878906 63.339844 L 263.628906 75.617188 C 261.078125 77.667969 260.023438 81.050781 260.941406 84.183594 C 261.859375 87.3125 264.578125 89.59375 267.824219 89.9375 L 314.46875 94.953125 C 314.757812 94.984375 315.046875 95.003906 315.34375 95.003906 C 319.414062 95.003906 322.914062 91.9375 323.359375 87.796875 L 328.390625 41.175781 C 328.742188 37.925781 327.097656 34.785156 324.234375 33.226562 C 321.363281 31.652344 317.84375 31.960938 315.296875 34.023438 L 291.878906 52.875 C 230.550781 5.960938 142.777344 4.96875 80.046875 55.507812 C 20.816406 103.214844 0.09375 182.625 28.464844 253.101562 C 29.734375 256.253906 32.765625 258.167969 35.960938 258.167969 Z M 35.960938 258.167969 " fill-opacity="1" fill-rule="nonzero"/><g clip-path="url(#77671090af)"><path fill="#e6e6e6" d="M 346.167969 123.410156 C 344.464844 119.296875 339.742188 117.34375 335.609375 119.050781 C 331.492188 120.757812 329.539062 125.484375 331.246094 129.597656 C 357.496094 192.847656 338.527344 267.074219 285.128906 310.101562 C 229.378906 355.011719 151.789062 354.980469 96.417969 314.832031 L 111.660156 302.554688 C 114.207031 300.511719 115.261719 297.125 114.339844 294 C 113.421875 290.863281 110.707031 288.589844 107.460938 288.242188 L 60.828125 283.207031 C 58.660156 282.964844 56.566406 283.601562 54.894531 284.945312 C 53.230469 286.289062 52.167969 288.242188 51.9375 290.371094 L 46.914062 337.003906 C 46.5625 340.246094 48.203125 343.386719 51.066406 344.945312 C 52.28125 345.605469 53.613281 345.941406 54.9375 345.941406 C 56.746094 345.941406 58.539062 345.335938 60.007812 344.148438 L 83.425781 325.296875 C 113.824219 348.550781 150.703125 360.550781 187.832031 360.542969 C 225.605469 360.542969 263.625 348.160156 295.261719 322.675781 C 354.214844 275.183594 375.144531 193.246094 346.167969 123.410156 Z M 346.167969 123.410156 " fill-opacity="1" fill-rule="nonzero"/></g><g clip-path="url(#8e115b9035)"><g clip-path="url(#8b0aafb214)"><g transform="matrix(1, 0, 0, 1, 237, 36)"><g clip-path="url(#ed68452e92)"><g clip-path="url(#66f408486d)"><g clip-path="url(#dc87c9b37a)"><rect x="-319.5" width="540" fill="#e6e6e6" height="539.999987" y="-118.499998" fill-opacity="1"/></g></g></g></g></g></g></svg>