<svg xmlns="http://www.w3.org/2000/svg" xmlns:xlink="http://www.w3.org/1999/xlink" width="1080" zoomAndPan="magnify" viewBox="0 0 810 809.999993" height="1080" preserveAspectRatio="xMidYMid meet" version="1.2"><defs><clipPath id="e8f5fe514b"><path d="M 483.964844 122.015625 L 486.835938 122.015625 L 486.835938 124.453125 L 483.964844 124.453125 Z M 483.964844 122.015625 "/></clipPath><clipPath id="a2a1d9ba2c"><path d="M 486.824219 122.851562 C 485.550781 124.875 484.351562 124.5 484.125 124.125 C 483.824219 123.675781 484.050781 122.476562 484.425781 122.175781 C 484.875 121.800781 486.449219 122.25 486.449219 122.25 "/></clipPath></defs><g id="8e7b06d001"><g clip-rule="nonzero" clip-path="url(#e8f5fe514b)"><g clip-rule="nonzero" clip-path="url(#a2a1d9ba2c)"><path style=" stroke:none;fill-rule:nonzero;fill:#ffffff;fill-opacity:1;" d="M 481.125 119.175781 L 489.910156 119.175781 L 489.910156 127.726562 L 481.125 127.726562 Z M 481.125 119.175781 "/></g></g><path style=" stroke:none;fill-rule:evenodd;fill:#ffffff;fill-opacity:1;" d="M 584.203125 127.78125 C 565.921875 170.023438 516.96875 189.375 474.726562 171.210938 C 432.609375 153.066406 413.246094 104.046875 431.398438 61.917969 C 449.679688 19.730469 498.574219 0.332031 540.691406 18.546875 C 583.007812 36.710938 602.355469 85.652344 584.203125 127.78125 Z M 584.203125 127.78125 "/><path style=" stroke:none;fill-rule:nonzero;fill:#ffffff;fill-opacity:1;" d="M 480.121094 224.371094 C 472.332031 224.371094 464.785156 226.890625 458.609375 231.503906 L 363.40625 302.199219 C 356.148438 307.675781 351.179688 315.570312 349.5 324.507812 L 321.40625 440.382812 C 318.828125 453.992188 322.96875 464.644531 330.21875 472.03125 L 292.585938 527.757812 L 236.558594 489.941406 C 215.402344 475.675781 186.941406 481.117188 172.6875 502.277344 L 76.855469 644.101562 C 62.597656 665.191406 68.109375 693.722656 89.199219 707.988281 L 101.601562 716.363281 C 103.335938 711.265625 105.730469 706.421875 108.789062 701.984375 C 127.484375 674.304688 165.058594 666.996094 192.738281 685.679688 C 204.542969 693.652344 213.113281 705.457031 217 719.125 L 383.816406 472.25 C 387.890625 466.207031 390.949219 459.546875 392.332031 453.921875 L 417.734375 351.886719 L 442.777344 333.25 L 442.777344 448.710938 C 442.777344 458.167969 446.078125 467.347656 451.890625 474.769531 L 560.410156 613.316406 L 581.625 742.132812 C 588.390625 800.851562 677.308594 786.289062 665.035156 728.421875 L 642.265625 588.800781 C 641.128906 581.796875 638.195312 575.191406 633.765625 569.566406 L 551.3125 464.519531 L 551.792969 356.847656 L 580.128906 397.402344 C 583.007812 401.425781 586.664062 404.84375 590.921875 407.421875 L 668.519531 454.878906 C 709.625 480.039062 747.257812 418.382812 706.207031 393.269531 L 635.019531 349.773438 L 558.132812 239.753906 C 551.359375 230.113281 540.335938 224.359375 528.53125 224.359375 L 480.121094 224.359375 Z M 480.121094 224.371094 "/><path style=" stroke:none;fill-rule:nonzero;fill:#ffffff;fill-opacity:1;" d="M 448.609375 510.914062 L 430.6875 577.964844 L 340.503906 711.65625 C 304.851562 759.113281 379.996094 809.804688 410.609375 758.871094 L 504.867188 619.378906 C 510.195312 611.476562 513.910156 605.296875 513.910156 594.324219 Z M 448.609375 510.914062 "/><path style=" stroke:none;fill-rule:evenodd;fill:#ffffff;fill-opacity:1;" d="M 159.847656 695.699219 C 146.179688 695.332031 133.304688 701.984375 125.632812 713.316406 C 113.230469 731.710938 118.027344 756.699219 136.425781 769.101562 C 154.820312 781.558594 179.75 776.714844 192.210938 758.320312 C 204.613281 739.925781 199.757812 714.996094 181.417969 702.523438 C 175.023438 698.21875 167.519531 695.875 159.847656 695.699219 Z M 159.847656 695.699219 "/></g></svg>