<svg xmlns="http://www.w3.org/2000/svg" xmlns:xlink="http://www.w3.org/1999/xlink" width="1080" zoomAndPan="magnify" viewBox="0 0 810 809.999993" height="1080" preserveAspectRatio="xMidYMid meet" version="1.2"><defs><clipPath id="b509a42126"><path d="M 380.539062 414.921875 L 383.410156 414.921875 L 383.410156 417.359375 L 380.539062 417.359375 Z M 380.539062 414.921875 "/></clipPath><clipPath id="bca9d36b31"><path d="M 383.398438 415.800781 C 382.125 417.824219 380.925781 417.449219 380.699219 417 C 380.398438 416.550781 380.625 415.351562 381 415.050781 C 381.449219 414.75 383.023438 415.199219 383.023438 415.199219 "/></clipPath><clipPath id="2086213500"><path d="M 381.363281 415.183594 L 381.769531 415.183594 L 381.769531 415.511719 L 381.363281 415.511719 Z M 381.363281 415.183594 "/></clipPath><clipPath id="b79f74a4e3"><path d="M 381.75 415.425781 C 381 415.648438 381.601562 415.199219 381.601562 415.199219 "/></clipPath><clipPath id="eee79a1df8"><path d="M 377.390625 411.429688 L 385.300781 411.429688 L 385.300781 419.722656 L 377.390625 419.722656 Z M 377.390625 411.429688 "/></clipPath><clipPath id="0562ede149"><path d="M 385.273438 414.300781 C 385.125 417.226562 383.925781 418.726562 383.101562 419.25 C 382.425781 419.625 381.824219 419.773438 381.148438 419.625 C 380.175781 419.476562 378.449219 418.574219 377.851562 417.601562 C 377.25 416.699219 377.324219 414.75 377.625 413.773438 C 377.851562 413.101562 378.300781 412.648438 378.824219 412.273438 C 379.351562 411.824219 379.949219 411.449219 380.625 411.449219 C 381.601562 411.375 384.300781 412.574219 384.300781 412.574219 "/></clipPath></defs><g id="c7f9d37ca4"><g clip-rule="nonzero" clip-path="url(#b509a42126)"><g clip-rule="nonzero" clip-path="url(#bca9d36b31)"><path style=" stroke:none;fill-rule:nonzero;fill:#ffffff;fill-opacity:1;" d="M 377.699219 412.050781 L 386.484375 412.050781 L 386.484375 420.601562 L 377.699219 420.601562 Z M 377.699219 412.050781 "/></g></g><path style=" stroke:none;fill-rule:nonzero;fill:#ffffff;fill-opacity:1;" d="M 405 0 C 181.6875 0 0 181.6875 0 405 C 0 628.3125 181.6875 810 405 810 C 628.3125 810 810 628.3125 810 405 C 810 181.6875 628.3125 0 405 0 Z M 405 105.652344 C 472.96875 105.652344 528.261719 160.945312 528.261719 228.914062 C 528.261719 296.882812 472.96875 352.175781 405 352.175781 C 337.03125 352.175781 281.738281 296.882812 281.738281 228.914062 C 281.738281 160.945312 337.03125 105.652344 405 105.652344 Z M 616.304688 633.914062 L 193.695312 633.914062 C 183.976562 633.914062 176.085938 626.023438 176.085938 616.304688 C 176.085938 490.085938 278.78125 387.390625 405 387.390625 C 531.21875 387.390625 633.914062 490.085938 633.914062 616.304688 C 633.914062 626.023438 626.023438 633.914062 616.304688 633.914062 Z M 616.304688 633.914062 "/><g clip-rule="nonzero" clip-path="url(#2086213500)"><g clip-rule="nonzero" clip-path="url(#b79f74a4e3)"><path style=" stroke:none;fill-rule:nonzero;fill:#000000;fill-opacity:1;" d="M 378.074219 412.199219 L 384.828125 412.199219 L 384.828125 418.726562 L 378.074219 418.726562 Z M 378.074219 412.199219 "/></g></g><g clip-rule="nonzero" clip-path="url(#eee79a1df8)"><g clip-rule="nonzero" clip-path="url(#0562ede149)"><path style=" stroke:none;fill-rule:nonzero;fill:#000000;fill-opacity:1;" d="M 374.625 408.449219 L 388.5 408.449219 L 388.5 422.703125 L 374.625 422.703125 Z M 374.625 408.449219 "/></g></g></g></svg>