<svg xmlns="http://www.w3.org/2000/svg" xmlns:xlink="http://www.w3.org/1999/xlink" width="500" zoomAndPan="magnify" viewBox="0 0 375 374.999991" height="500" preserveAspectRatio="xMidYMid meet" version="1.0"><defs><clipPath id="047ce71d0b"><path d="M 23 0 L 353.859375 0 L 353.859375 375 L 23 375 Z M 23 0 " clip-rule="nonzero"/></clipPath><clipPath id="9cb9724da1"><path d="M 192.265625 210.058594 L 192.621094 210.058594 L 192.621094 210.335938 L 192.265625 210.335938 Z M 192.265625 210.058594 " clip-rule="nonzero"/></clipPath><clipPath id="7b48693cda"><path d="M 192.601562 210.226562 C 191.925781 210.523438 192.523438 210.074219 192.523438 210.074219 " clip-rule="nonzero"/></clipPath><clipPath id="51bc37c4c6"><path d="M 0.265625 0.0585938 L 0.621094 0.0585938 L 0.621094 0.335938 L 0.265625 0.335938 Z M 0.265625 0.0585938 " clip-rule="nonzero"/></clipPath><clipPath id="c14741b6e7"><path d="M 0.601562 0.226562 C -0.0742188 0.523438 0.523438 0.0742188 0.523438 0.0742188 " clip-rule="nonzero"/></clipPath><clipPath id="ce18b37a46"><rect x="0" width="1" y="0" height="1"/></clipPath></defs><g clip-path="url(#047ce71d0b)"><path fill="#ffffff" d="M 147.746094 3.292969 L 145.851562 4.617188 C 143.453125 6.285156 137.039062 10.773438 134.566406 12.492188 L 127.054688 17.761719 L 123.296875 20.394531 L 122.980469 20.625 C 120.78125 22.234375 119.039062 24.492188 118.070312 27.035156 C 116.621094 30.710938 116.824219 34.910156 118.539062 38.445312 C 118.863281 39.144531 119.210938 39.847656 119.476562 40.574219 C 120.394531 42.875 121.101562 45.292969 121.410156 47.792969 C 121.757812 50.28125 121.847656 52.84375 121.550781 55.390625 C 121.414062 56.546875 121.339844 57.738281 121.359375 58.933594 C 121.136719 58.996094 120.902344 59.058594 120.695312 59.117188 C 114.828125 60.960938 110.632812 66.835938 110.78125 72.980469 C 110.777344 74.199219 110.980469 75.417969 111.265625 76.570312 L 111.765625 78.425781 C 111.765625 78.425781 113.75 85.835938 113.75 85.835938 C 130.957031 150.070312 149.488281 219.441406 167.523438 286.207031 C 125.351562 223.472656 80.011719 160.253906 36.96875 98.273438 C 36.84375 98.023438 36.894531 97.605469 37.144531 97.417969 C 37.152344 97.410156 37.164062 97.398438 37.167969 97.386719 L 37.433594 97.195312 C 37.433594 97.195312 37.996094 96.796875 37.996094 96.796875 C 44.464844 92.1875 53.949219 85.3125 60.363281 80.675781 L 61.679688 79.707031 C 62.140625 79.386719 62.804688 79.554688 63.246094 79.910156 C 73.527344 90.023438 90.105469 93.917969 103.097656 87 C 105.699219 85.597656 104.648438 81.597656 101.671875 81.660156 C 98.148438 81.765625 94.777344 81.578125 91.5625 81.027344 C 85.363281 79.960938 79.542969 77.484375 74.671875 73.625 C 73.578125 72.746094 72.527344 71.703125 71.511719 70.726562 C 68.804688 68.171875 65.066406 66.761719 61.257812 66.960938 C 58.929688 67.070312 56.605469 67.8125 54.628906 69.066406 C 53.503906 69.777344 49.585938 72.472656 48.425781 73.238281 C 43.4375 76.613281 34.285156 82.839844 29.328125 86.253906 C 22.878906 90.625 21.195312 99.949219 25.71875 106.308594 C 26.953125 108.113281 29.695312 112.011719 30.9375 113.832031 C 61.964844 158.003906 94.9375 205.175781 125.921875 249.25 C 138.238281 266.707031 151.949219 285.519531 164.667969 302.886719 C 167.941406 307.335938 171.386719 311.59375 175.414062 315.359375 C 178.820312 327.921875 182.199219 340.351562 185.535156 352.589844 L 187.570312 359.988281 L 188.589844 363.6875 C 189.195312 365.917969 190.40625 368.089844 192.046875 369.785156 C 195.640625 373.5625 201.339844 374.992188 206.296875 373.441406 L 207.222656 373.1875 L 209.070312 372.679688 C 215.90625 370.785156 227.972656 367.5 234.765625 365.609375 C 240.570312 364.082031 244.925781 358.441406 244.851562 352.410156 L 244.75 350.164062 L 244.667969 348.582031 L 244.734375 347 C 244.71875 345.9375 244.945312 344.894531 245.046875 343.84375 C 246.3125 335.984375 250.90625 328.652344 257.539062 324.214844 C 274.839844 312.628906 297.820312 321.15625 305.523438 340.246094 C 306.878906 343.308594 311.0625 341.820312 310.683594 338.863281 C 309.054688 327.601562 301.359375 317.441406 291.1875 312.15625 C 270.40625 301.171875 244.289062 311.59375 235.613281 333.21875 C 233.3125 338.734375 232.253906 344.808594 232.546875 350.789062 C 232.546875 350.789062 232.609375 352.378906 232.609375 352.378906 C 232.578125 352.972656 232.136719 353.492188 231.542969 353.65625 C 231.542969 353.65625 224.339844 355.542969 224.339844 355.542969 C 221.847656 356.199219 207.886719 359.824219 205.777344 360.382812 C 205.011719 360.589844 203.238281 361.039062 202.527344 361.230469 C 201.914062 361.367188 201.226562 361.03125 201.082031 360.339844 L 200.113281 356.625 C 188.953125 314.078125 174.078125 258.09375 162.730469 215.707031 C 151.871094 174.957031 135.203125 113.394531 124.464844 72.828125 C 124.457031 72.53125 124.675781 72.179688 124.976562 72.117188 C 125.011719 72.105469 124.96875 72.109375 125.0625 72.082031 C 125.0625 72.082031 125.527344 71.957031 125.527344 71.957031 C 132.644531 69.996094 145.242188 66.742188 152.394531 64.757812 L 153.320312 64.507812 L 153.785156 64.386719 C 153.839844 64.371094 153.984375 64.332031 153.972656 64.339844 C 154.257812 64.246094 154.6875 64.425781 154.78125 64.636719 C 154.800781 64.714844 154.730469 64.523438 154.972656 65.011719 L 155.5 66.027344 C 155.5 66.027344 156.570312 68.054688 156.570312 68.054688 C 157.640625 69.828125 159.210938 72.113281 160.511719 73.683594 C 185.214844 102.914062 232.347656 87.753906 235.203125 49.464844 C 235.289062 48.191406 235.339844 46.097656 235.242188 44.875 L 235.1875 43.730469 C 235.183594 43.363281 235.042969 42.847656 235.476562 42.609375 C 235.519531 42.566406 235.578125 42.550781 235.636719 42.53125 C 235.660156 42.527344 235.652344 42.527344 235.699219 42.507812 L 236.160156 42.382812 C 236.160156 42.382812 237.085938 42.136719 237.085938 42.136719 C 243.917969 40.332031 256.042969 37.035156 263.03125 35.199219 L 263.960938 34.953125 L 264.421875 34.828125 L 264.632812 34.773438 L 264.65625 34.777344 C 264.972656 34.699219 265.363281 34.894531 265.433594 35.238281 C 265.429688 35.1875 265.492188 35.425781 265.527344 35.5625 L 265.652344 36.023438 L 265.898438 36.949219 C 265.898438 36.949219 269.863281 51.777344 269.863281 51.777344 C 290.429688 128.117188 313.15625 212.519531 334.636719 288.632812 C 337.914062 299.835938 341.292969 311.046875 344.890625 322.164062 C 345.3125 323.710938 344.503906 325.46875 343.023438 326.171875 C 342.546875 326.425781 340.335938 327.066406 339.683594 327.328125 C 336.113281 328.476562 332.328125 329.941406 328.785156 331.136719 C 325.675781 332.3125 326.824219 337.019531 330.222656 336.503906 C 333.914062 335.835938 337.863281 335.117188 341.566406 334.355469 C 341.566406 334.355469 343.449219 333.972656 343.449219 333.972656 C 349.222656 333.269531 353.855469 328.164062 353.75 322.25 C 353.761719 321.746094 353.695312 321.242188 353.652344 320.738281 L 353.519531 319.992188 L 353.390625 319.355469 C 353.390625 319.355469 352.574219 315.601562 352.574219 315.601562 C 346.347656 286.703125 337.726562 255 330.296875 226.242188 C 315.910156 171.105469 298.007812 102.894531 283.277344 48.183594 C 283.277344 48.183594 279.296875 33.359375 279.296875 33.359375 C 278.832031 31.554688 278.3125 29.640625 277.300781 28.019531 C 274.140625 22.5 267.203125 19.695312 261.09375 21.378906 L 260.835938 21.445312 L 260.375 21.570312 C 260.375 21.570312 259.449219 21.816406 259.449219 21.816406 C 254.46875 23.207031 242.078125 26.410156 237.214844 27.789062 L 233.507812 28.785156 L 232.582031 29.03125 C 228.570312 29.984375 225 32.65625 223.070312 36.316406 C 221.902344 38.464844 221.300781 40.960938 221.359375 43.425781 L 221.445312 45.507812 C 221.460938 46.023438 221.511719 46.535156 221.503906 47.050781 L 221.425781 48.589844 L 221.398438 49.359375 C 221.398438 49.359375 221.289062 50.121094 221.289062 50.121094 C 218.957031 70.664062 195.617188 81.976562 178.050781 70.992188 C 174.988281 69.125 172.253906 66.605469 170.128906 63.71875 C 169.507812 62.96875 168.988281 62 168.410156 61.15625 L 166.636719 57.78125 C 165.402344 55.652344 163.605469 53.847656 161.5 52.617188 C 158.140625 50.625 153.992188 50.113281 150.242188 51.164062 C 149.238281 51.429688 146.195312 52.261719 145.148438 52.535156 C 142.257812 53.3125 137.832031 54.492188 133.375 55.683594 C 134.722656 48.054688 133.8125 40 130.695312 32.871094 C 130.523438 32.484375 130.632812 31.9375 131.019531 31.734375 C 131.03125 31.726562 131.003906 31.738281 131.046875 31.710938 L 131.164062 31.628906 C 136.566406 27.847656 144.539062 22.285156 149.949219 18.46875 C 151.277344 17.566406 154.460938 15.242188 155.773438 14.417969 C 156.054688 14.34375 156.410156 14.472656 156.550781 14.703125 C 156.550781 14.703125 161.558594 21.90625 161.558594 21.90625 C 168.515625 31.972656 175.582031 41.957031 183.109375 51.617188 C 186.882812 56.546875 190.753906 61.84375 196.527344 64.621094 C 197.03125 64.859375 197.617188 64.972656 198.210938 64.917969 C 199.964844 64.746094 201.25 63.1875 201.082031 61.433594 C 200.539062 56.570312 198.457031 52.289062 195.894531 48.261719 C 188.652344 36.5625 180.882812 25.164062 172.902344 13.960938 C 171.695312 12.246094 169.460938 9.085938 168.269531 7.40625 C 166.394531 4.539062 163.527344 2.289062 160.230469 1.320312 C 156.066406 0.0195312 151.316406 0.796875 147.746094 3.292969 Z M 147.746094 3.292969 " fill-opacity="1" fill-rule="nonzero"/></g><path fill="#ffffff" d="M 259.234375 258.429688 C 259.042969 258.453125 259.203125 258.445312 259.203125 258.441406 C 259.214844 258.441406 259.222656 258.433594 259.234375 258.429688 Z M 259.234375 258.429688 " fill-opacity="1" fill-rule="nonzero"/><path fill="#ffffff" d="M 310.625 279.773438 C 312.765625 276.085938 313.359375 271.503906 312.238281 267.390625 C 312.238281 267.390625 293.148438 195.964844 293.148438 195.964844 C 284.46875 163.394531 275.5625 130.257812 266.6875 97.699219 C 264.949219 91.503906 259.226562 86.796875 252.847656 86.183594 C 250.792969 85.9375 248.625 86.1875 246.648438 86.71875 C 220.222656 94.125 192.71875 101.089844 166.679688 109.679688 C 159.335938 111.859375 154.894531 120.207031 157.363281 127.398438 C 159.175781 139.449219 161.8125 151.730469 164.964844 163.632812 C 173.238281 195.507812 184.585938 239.089844 193.058594 270.914062 L 197.789062 288.78125 C 197.789062 288.78125 200.226562 297.808594 200.226562 297.808594 C 201.964844 304.039062 207.699219 308.8125 214.121094 309.464844 C 215.976562 309.679688 217.878906 309.546875 219.691406 309.121094 C 219.957031 309.0625 220.230469 309 220.386719 308.957031 L 229.3125 306.5625 C 249.25 301.21875 280.808594 292.761719 300.742188 287.414062 C 304.867188 286.316406 308.523438 283.480469 310.625 279.773438 Z M 237.140625 141.710938 C 238.570312 141.84375 240.277344 142.152344 240.875 143.4375 C 243.71875 148.96875 245.042969 155.035156 246.621094 160.996094 C 248.210938 166.925781 250.488281 172.894531 250.277344 179.117188 C 249.675781 181.945312 246.03125 184.742188 242.789062 183.851562 C 240.351562 183.207031 239.398438 182.570312 238.566406 180.890625 C 237.609375 178.890625 236.753906 176.828125 236.082031 174.734375 C 235.03125 171.378906 234.289062 167.9375 233.40625 164.539062 C 232.503906 161.140625 231.492188 157.773438 230.707031 154.347656 C 230.136719 151.765625 229.785156 149.109375 229.609375 146.457031 C 229.496094 145.902344 229.84375 145.101562 230.308594 144.566406 C 231.886719 142.65625 234.722656 141.507812 237.140625 141.710938 Z M 213.128906 191.796875 C 209.8125 190.597656 208.929688 188.699219 207.890625 185.941406 C 205.179688 179.4375 203.710938 172.554688 201.945312 165.761719 C 199.808594 157.851562 197.394531 149.984375 196.570312 141.796875 C 196.359375 140.859375 196.863281 139.625 197.511719 138.824219 C 198.882812 136.925781 201.613281 135.78125 203.875 136.210938 C 205.03125 136.414062 205.769531 136.703125 206.644531 137.28125 C 208.160156 138.433594 208.386719 140.441406 209.1875 142.046875 C 211.804688 148.582031 213.320312 155.449219 215.160156 162.21875 C 217.273438 170.113281 220.070312 177.992188 220.394531 186.222656 C 220.09375 189.382812 216.949219 193.25 213.128906 191.796875 Z M 238.183594 268.972656 C 238.183594 268.976562 233.421875 257.871094 233.421875 257.871094 C 233.363281 257.707031 233.242188 257.4375 233.132812 257.195312 C 232.804688 257.128906 232.375 257.042969 232.375 257.042969 L 226.453125 255.847656 L 220.492188 254.640625 C 219.445312 254.402344 218.390625 254 217.460938 253.347656 C 212.9375 250.371094 212.628906 243.351562 216.871094 239.984375 C 219.523438 237.648438 223.574219 234.097656 226.230469 231.761719 C 226.257812 231.738281 226.292969 231.703125 226.332031 231.671875 C 225.914062 228.214844 225.339844 223.167969 224.929688 219.769531 C 223.519531 212.6875 230.859375 207.082031 237.261719 210.628906 C 240.34375 212.429688 245.359375 215.507812 248.523438 217.414062 C 249.058594 217.171875 249.96875 216.78125 250.375 216.59375 C 252.164062 215.8125 256.925781 213.703125 258.671875 212.945312 L 260.054688 212.339844 C 262.714844 210.992188 266.414062 211.375 268.6875 213.402344 C 270.96875 215.289062 272.011719 218.519531 271.246094 221.378906 C 270.984375 222.375 270.355469 224.914062 270.089844 225.953125 C 269.421875 228.640625 268.542969 231.328125 267.34375 233.847656 L 267.300781 233.933594 C 267.234375 233.976562 267.179688 234.019531 267.121094 234.078125 C 266.851562 234.339844 266.628906 234.808594 266.671875 235.5 L 266.722656 235.453125 C 270.316406 238.132812 273.828125 240.859375 277.125 243.832031 C 280.4375 246.921875 279.917969 252.71875 276.292969 255.355469 C 275.085938 256.296875 273.621094 256.8125 272.117188 256.964844 C 271.6875 257.03125 270.328125 257.167969 269.867188 257.230469 C 267.835938 257.46875 262.816406 258.039062 260.863281 258.25 C 260.863281 258.25 259.796875 258.367188 259.53125 258.398438 C 259.453125 258.539062 259.371094 258.6875 259.371094 258.6875 L 257.925781 261.339844 L 255.027344 266.640625 L 253.5625 269.28125 C 253.542969 269.320312 253.316406 269.722656 253.289062 269.777344 C 252.390625 271.351562 251.011719 272.667969 249.332031 273.382812 C 245.203125 275.328125 239.859375 273.179688 238.183594 268.972656 Z M 238.183594 268.972656 " fill-opacity="1" fill-rule="nonzero"/><g clip-path="url(#9cb9724da1)"><g clip-path="url(#7b48693cda)"><g transform="matrix(1, 0, 0, 1, 192, 210)"><g clip-path="url(#ce18b37a46)"><g clip-path="url(#51bc37c4c6)"><g clip-path="url(#c14741b6e7)"><rect x="-274.5" width="540" fill="#ffffff" height="539.999987" y="-292.499998" fill-opacity="1"/></g></g></g></g></g></g></svg>