<svg xmlns="http://www.w3.org/2000/svg" xmlns:xlink="http://www.w3.org/1999/xlink" width="500" zoomAndPan="magnify" viewBox="0 0 375 374.999991" height="500" preserveAspectRatio="xMidYMid meet" version="1.0"><defs><clipPath id="fce5ecc013"><path d="M 262.339844 37.453125 L 266.636719 37.453125 L 266.636719 41.097656 L 262.339844 41.097656 Z M 262.339844 37.453125 " clip-rule="nonzero"/></clipPath><clipPath id="f63eb28a97"><path d="M 266.625 38.773438 C 264.675781 41.773438 262.949219 41.175781 262.574219 40.574219 C 262.125 39.898438 262.5 38.101562 263.101562 37.648438 C 263.699219 37.199219 266.023438 37.800781 266.023438 37.800781 " clip-rule="nonzero"/></clipPath><clipPath id="abe34ce12d"><path d="M 0.339844 0.453125 L 4.636719 0.453125 L 4.636719 4.097656 L 0.339844 4.097656 Z M 0.339844 0.453125 " clip-rule="nonzero"/></clipPath><clipPath id="72c83a2a5a"><path d="M 4.625 1.773438 C 2.675781 4.773438 0.949219 4.175781 0.574219 3.574219 C 0.125 2.898438 0.5 1.101562 1.101562 0.648438 C 1.699219 0.199219 4.023438 0.800781 4.023438 0.800781 " clip-rule="nonzero"/></clipPath><clipPath id="04184bf723"><rect x="0" width="5" y="0" height="5"/></clipPath><clipPath id="d746490d5a"><path d="M 261.816406 37.453125 L 266.113281 37.453125 L 266.113281 41.097656 L 261.816406 41.097656 Z M 261.816406 37.453125 " clip-rule="nonzero"/></clipPath><clipPath id="81033ce48b"><path d="M 266.101562 38.773438 C 264.148438 41.773438 262.425781 41.175781 261.976562 40.574219 C 261.601562 39.898438 261.976562 38.101562 262.574219 37.648438 C 263.101562 37.199219 265.5 37.800781 265.5 37.800781 " clip-rule="nonzero"/></clipPath><clipPath id="073648423e"><path d="M 0.816406 0.453125 L 5.113281 0.453125 L 5.113281 4.097656 L 0.816406 4.097656 Z M 0.816406 0.453125 " clip-rule="nonzero"/></clipPath><clipPath id="f9e939ee7c"><path d="M 5.101562 1.773438 C 3.148438 4.773438 1.425781 4.175781 0.976562 3.574219 C 0.601562 2.898438 0.976562 1.101562 1.574219 0.648438 C 2.101562 0.199219 4.5 0.800781 4.5 0.800781 " clip-rule="nonzero"/></clipPath><clipPath id="2cb4855d2b"><rect x="0" width="6" y="0" height="5"/></clipPath><clipPath id="1c331fa964"><path d="M 13.335938 13.335938 L 361.335938 13.335938 L 361.335938 361.335938 L 13.335938 361.335938 Z M 13.335938 13.335938 " clip-rule="nonzero"/></clipPath></defs><g clip-path="url(#fce5ecc013)"><g clip-path="url(#f63eb28a97)"><g transform="matrix(1, 0, 0, 1, 262, 37)"><g clip-path="url(#04184bf723)"><g clip-path="url(#abe34ce12d)"><g clip-path="url(#72c83a2a5a)"><rect x="-344.5" width="540" fill="#e6e6e6" height="539.999987" y="-119.499998" fill-opacity="1"/></g></g></g></g></g></g><g clip-path="url(#d746490d5a)"><g clip-path="url(#81033ce48b)"><g transform="matrix(1, 0, 0, 1, 261, 37)"><g clip-path="url(#2cb4855d2b)"><g clip-path="url(#073648423e)"><g clip-path="url(#f9e939ee7c)"><rect x="-343.5" width="540" fill="#e6e6e6" height="539.999987" y="-119.499998" fill-opacity="1"/></g></g></g></g></g></g><g clip-path="url(#1c331fa964)"><path fill="#ff751f" d="M 187.496094 13.335938 C 91.457031 13.335938 13.335938 91.457031 13.335938 187.496094 C 13.335938 283.53125 91.457031 361.652344 187.496094 361.652344 C 283.53125 361.652344 361.652344 283.53125 361.652344 187.496094 C 361.652344 91.457031 283.53125 13.335938 187.496094 13.335938 Z M 349.71875 187.496094 C 349.71875 276.945312 276.945312 349.71875 187.496094 349.71875 C 98.042969 349.71875 25.269531 276.945312 25.269531 187.496094 C 25.269531 98.042969 98.042969 25.269531 187.496094 25.269531 C 276.945312 25.269531 349.71875 98.042969 349.71875 187.496094 Z M 349.71875 187.496094 " fill-opacity="1" fill-rule="nonzero"/></g><path fill="#ff751f" d="M 85.742188 144.40625 C 87.378906 140.394531 90.351562 138.722656 94.632812 139.089844 C 96.136719 139.226562 97.675781 139.125 99.378906 139.125 C 99.378906 152.898438 99.378906 166.601562 99.378906 180.40625 C 96.671875 180.40625 93.964844 180.574219 91.289062 180.375 C 88.382812 180.140625 87.011719 177.832031 85.742188 175.527344 C 85.742188 165.132812 85.742188 154.769531 85.742188 144.40625 Z M 85.742188 144.40625 " fill-opacity="1" fill-rule="nonzero"/><path fill="#ff751f" d="M 289.246094 175.492188 C 288.613281 176.464844 288.179688 177.699219 287.308594 178.335938 C 285.972656 179.269531 284.402344 180.140625 282.828125 180.375 C 280.488281 180.707031 278.050781 180.472656 275.542969 180.472656 C 275.542969 166.636719 275.542969 152.964844 275.542969 139.191406 C 278.21875 139.191406 280.789062 138.992188 283.332031 139.257812 C 286.40625 139.558594 288.078125 141.796875 289.246094 144.4375 C 289.246094 154.769531 289.246094 165.132812 289.246094 175.492188 Z M 289.246094 175.492188 " fill-opacity="1" fill-rule="nonzero"/><path fill="#ff751f" d="M 118.230469 263.542969 C 113.386719 263.308594 109.675781 261.46875 106.96875 257.757812 C 104.929688 254.984375 104.324219 251.808594 104.324219 248.433594 C 104.324219 221.390625 104.324219 194.378906 104.324219 167.335938 C 104.324219 153.730469 104.394531 140.128906 104.324219 126.523438 C 104.257812 116.191406 107.199219 106.832031 113.820312 98.910156 C 121.472656 89.785156 131.335938 84.402344 143.304688 84.070312 C 155.769531 83.703125 168.273438 83.933594 180.742188 83.933594 C 196.453125 83.933594 212.195312 84.003906 227.910156 83.902344 C 235.128906 83.867188 241.949219 85.304688 248.300781 88.714844 C 255.484375 92.59375 261.136719 98.175781 265.078125 105.394531 C 268.65625 111.949219 270.195312 119 270.160156 126.421875 C 270.160156 166.703125 270.027344 206.984375 270.261719 247.261719 C 270.292969 256.253906 265.449219 263.007812 256.253906 263.609375 C 256.253906 267.820312 256.320312 272.03125 256.222656 276.277344 C 256.1875 278.148438 255.953125 280.054688 255.484375 281.828125 C 254.117188 286.773438 249.234375 290.753906 244.085938 290.953125 C 238.4375 291.152344 232.789062 291.1875 227.140625 290.953125 C 220.957031 290.683594 215.574219 285.269531 215.140625 279.085938 C 214.839844 274.742188 214.972656 270.394531 214.9375 266.015625 C 214.9375 265.246094 214.9375 264.511719 214.9375 263.609375 C 196.484375 263.609375 178.132812 263.609375 159.582031 263.609375 C 159.582031 267.886719 159.683594 272.101562 159.546875 276.3125 C 159.480469 278.21875 159.214844 280.1875 158.679688 282.027344 C 157.207031 286.90625 152.394531 290.785156 147.3125 290.953125 C 141.664062 291.152344 136.015625 291.1875 130.367188 290.953125 C 124.148438 290.683594 118.699219 285.070312 118.398438 278.851562 C 118.199219 274.441406 118.300781 270.027344 118.265625 265.613281 C 118.230469 264.980469 118.230469 264.3125 118.230469 263.542969 Z M 256.421875 125.453125 C 210.226562 125.453125 164.160156 125.453125 118.164062 125.453125 C 118.164062 153.128906 118.164062 180.675781 118.164062 208.21875 C 164.328125 208.21875 210.324219 208.21875 256.421875 208.21875 C 256.421875 180.574219 256.421875 153.097656 256.421875 125.453125 Z M 159.75 97.675781 C 159.75 102.320312 159.75 106.867188 159.75 111.445312 C 178.167969 111.445312 196.453125 111.445312 214.804688 111.445312 C 214.804688 106.800781 214.804688 102.285156 214.804688 97.675781 C 196.351562 97.675781 178.066406 97.675781 159.75 97.675781 Z M 118.164062 236.230469 C 118.53125 244.019531 124.882812 250.003906 132.472656 249.667969 C 140.027344 249.335938 146.042969 242.917969 145.777344 235.5625 C 145.476562 227.773438 139.058594 221.757812 131.46875 222.125 C 123.816406 222.527344 117.832031 228.84375 118.164062 236.230469 Z M 242.582031 249.703125 C 250.136719 249.667969 256.355469 243.484375 256.355469 235.898438 C 256.386719 228.34375 250.136719 222.125 242.515625 222.160156 C 234.894531 222.191406 228.675781 228.410156 228.710938 235.964844 C 228.777344 243.484375 235.027344 249.703125 242.582031 249.703125 Z M 242.582031 249.703125 " fill-opacity="1" fill-rule="nonzero"/></svg>