<svg xmlns="http://www.w3.org/2000/svg" xmlns:xlink="http://www.w3.org/1999/xlink" width="1080" zoomAndPan="magnify" viewBox="0 0 810 809.999993" height="1080" preserveAspectRatio="xMidYMid meet" version="1.2"><defs><clipPath id="0d556a4e22"><path d="M 380.539062 414.921875 L 383.410156 414.921875 L 383.410156 417.359375 L 380.539062 417.359375 Z M 380.539062 414.921875 "/></clipPath><clipPath id="4ecb383515"><path d="M 383.398438 415.800781 C 382.125 417.824219 380.925781 417.449219 380.699219 417 C 380.398438 416.550781 380.625 415.351562 381 415.050781 C 381.449219 414.75 383.023438 415.199219 383.023438 415.199219 "/></clipPath><clipPath id="5e5f42c463"><path d="M 4.351562 4.351562 L 805.351562 4.351562 L 805.351562 805.351562 L 4.351562 805.351562 Z M 4.351562 4.351562 "/></clipPath></defs><g id="4f4a6f0ecb"><g clip-rule="nonzero" clip-path="url(#0d556a4e22)"><g clip-rule="nonzero" clip-path="url(#4ecb383515)"><path style=" stroke:none;fill-rule:nonzero;fill:#ffffff;fill-opacity:1;" d="M 377.699219 412.050781 L 386.484375 412.050781 L 386.484375 420.601562 L 377.699219 420.601562 Z M 377.699219 412.050781 "/></g></g><g clip-rule="nonzero" clip-path="url(#5e5f42c463)"><path style=" stroke:none;fill-rule:nonzero;fill:#ffffff;fill-opacity:1;" d="M 404.648438 4.351562 C 183.375 4.351562 4.351562 183.574219 4.351562 404.851562 C 4.351562 626.125 183.375 805.351562 404.648438 805.351562 C 625.925781 805.351562 805.351562 626.125 805.351562 404.851562 C 805.351562 183.574219 625.925781 4.351562 404.648438 4.351562 Z M 681.996094 244.648438 L 563.847656 244.648438 C 550.832031 194.585938 532.609375 146.527344 508.578125 102.070312 C 582.273438 127.304688 643.546875 178.367188 681.996094 244.648438 Z M 404.851562 85.851562 C 438.292969 133.910156 464.324219 187.378906 481.34375 244.648438 L 328.355469 244.648438 C 345.375 187.378906 371.410156 133.910156 404.851562 85.851562 Z M 94.863281 484.949219 C 88.253906 459.316406 84.449219 432.484375 84.449219 404.851562 C 84.449219 377.214844 88.253906 350.382812 94.863281 324.75 L 230.03125 324.75 C 226.828125 350.984375 224.625 377.617188 224.625 404.851562 C 224.625 432.085938 226.828125 458.71875 230.230469 484.949219 Z M 127.503906 565.050781 L 245.652344 565.050781 C 258.667969 615.113281 276.890625 663.171875 300.921875 707.828125 C 227.226562 682.597656 165.953125 631.332031 127.503906 565.050781 Z M 245.652344 244.648438 L 127.503906 244.648438 C 165.953125 178.367188 227.226562 127.101562 300.921875 101.871094 C 276.890625 146.527344 258.667969 194.585938 245.652344 244.648438 Z M 404.851562 723.847656 C 371.609375 675.789062 345.574219 622.320312 328.355469 565.050781 L 481.34375 565.050781 C 464.125 622.320312 438.089844 675.789062 404.851562 723.847656 Z M 498.566406 484.949219 L 311.132812 484.949219 C 307.328125 458.71875 304.726562 432.085938 304.726562 404.851562 C 304.726562 377.617188 307.328125 350.984375 311.132812 324.75 L 498.566406 324.75 C 502.371094 350.984375 504.976562 377.617188 504.976562 404.851562 C 504.976562 432.085938 502.371094 458.71875 498.566406 484.949219 Z M 508.78125 707.628906 C 532.808594 662.972656 551.03125 615.113281 564.046875 565.050781 L 682.195312 565.050781 C 643.546875 631.332031 582.273438 682.398438 508.78125 707.628906 Z M 579.46875 484.949219 C 582.671875 458.71875 585.074219 432.085938 585.074219 404.851562 C 585.074219 377.617188 582.871094 350.984375 579.46875 324.75 L 714.636719 324.75 C 721.246094 350.382812 725.25 377.214844 725.25 404.851562 C 725.25 432.484375 721.445312 459.316406 714.636719 484.949219 Z M 579.46875 484.949219 "/></g><path style=" stroke:none;fill-rule:nonzero;fill:#305cb2;fill-opacity:1;" d="M 1101.246094 407.445312 L -125.753906 407.445312 L -125.753906 0 L 1101.246094 0 L 1101.246094 407.445312 "/><path style=" stroke:none;fill-rule:nonzero;fill:#fad517;fill-opacity:1;" d="M 1101.246094 810 L -125.753906 810 L -125.753906 402.554688 L 1101.246094 402.554688 L 1101.246094 810 "/></g></svg>