<svg xmlns="http://www.w3.org/2000/svg" xmlns:xlink="http://www.w3.org/1999/xlink" width="1080" zoomAndPan="magnify" viewBox="0 0 810 809.999993" height="1080" preserveAspectRatio="xMidYMid meet" version="1.2"><defs><clipPath id="2eb0ab14dc"><path d="M 483.964844 122.015625 L 486.835938 122.015625 L 486.835938 124.453125 L 483.964844 124.453125 Z M 483.964844 122.015625 "/></clipPath><clipPath id="5c9a30328d"><path d="M 486.824219 122.851562 C 485.550781 124.875 484.351562 124.5 484.125 124.125 C 483.824219 123.675781 484.050781 122.476562 484.425781 122.175781 C 484.875 121.800781 486.449219 122.25 486.449219 122.25 "/></clipPath></defs><g id="a64ad58305"><g clip-rule="nonzero" clip-path="url(#2eb0ab14dc)"><g clip-rule="nonzero" clip-path="url(#5c9a30328d)"><path style=" stroke:none;fill-rule:nonzero;fill:#ffffff;fill-opacity:1;" d="M 481.125 119.175781 L 489.910156 119.175781 L 489.910156 127.726562 L 481.125 127.726562 Z M 481.125 119.175781 "/></g></g><path style=" stroke:none;fill-rule:nonzero;fill:#ffffff;fill-opacity:1;" d="M 566.800781 161.929688 C 566.800781 72.636719 494.164062 0 404.871094 0 C 315.578125 0 242.941406 72.636719 242.941406 161.929688 C 242.941406 251.222656 315.578125 323.859375 404.871094 323.859375 C 494.164062 323.859375 566.800781 251.222656 566.800781 161.929688 Z M 296.917969 161.929688 C 296.917969 102.40625 345.332031 53.976562 404.871094 53.976562 C 464.40625 53.976562 512.824219 102.40625 512.824219 161.929688 C 512.824219 221.453125 464.40625 269.882812 404.871094 269.882812 C 345.332031 269.882812 296.917969 221.453125 296.917969 161.929688 Z M 296.917969 161.929688 "/><path style=" stroke:none;fill-rule:nonzero;fill:#ffffff;fill-opacity:1;" d="M 113.746094 651.410156 L 113.746094 728.683594 C 113.746094 773.328125 150.0625 809.648438 194.710938 809.648438 L 615.03125 809.648438 C 659.675781 809.648438 695.996094 773.328125 695.996094 728.683594 L 695.996094 651.410156 C 695.996094 490.875 565.402344 360.28125 404.871094 360.28125 C 244.335938 360.28125 113.746094 490.875 113.746094 651.410156 Z M 404.871094 414.257812 C 535.648438 414.257812 642.019531 520.644531 642.019531 651.410156 L 642.019531 728.683594 C 642.019531 743.5625 629.921875 755.671875 615.03125 755.671875 L 194.710938 755.671875 C 179.820312 755.671875 167.722656 743.5625 167.722656 728.683594 L 167.722656 651.410156 C 167.722656 520.644531 274.09375 414.257812 404.871094 414.257812 Z M 404.871094 414.257812 "/></g></svg>