<svg xmlns="http://www.w3.org/2000/svg" xmlns:xlink="http://www.w3.org/1999/xlink" width="1080" zoomAndPan="magnify" viewBox="0 0 810 809.999993" height="1080" preserveAspectRatio="xMidYMid meet" version="1.2"><defs><clipPath id="3ef6496d7d"><path d="M 483.964844 122.015625 L 486.835938 122.015625 L 486.835938 124.453125 L 483.964844 124.453125 Z M 483.964844 122.015625 "/></clipPath><clipPath id="90434bb65a"><path d="M 486.824219 122.851562 C 485.550781 124.875 484.351562 124.5 484.125 124.125 C 483.824219 123.675781 484.050781 122.476562 484.425781 122.175781 C 484.875 121.800781 486.449219 122.25 486.449219 122.25 "/></clipPath></defs><g id="6f24ad0b84"><g clip-rule="nonzero" clip-path="url(#3ef6496d7d)"><g clip-rule="nonzero" clip-path="url(#90434bb65a)"><path style=" stroke:none;fill-rule:nonzero;fill:#ffffff;fill-opacity:1;" d="M 481.125 119.175781 L 489.910156 119.175781 L 489.910156 127.726562 L 481.125 127.726562 Z M 481.125 119.175781 "/></g></g><path style=" stroke:none;fill-rule:nonzero;fill:#ffffff;fill-opacity:1;" d="M 386.277344 685.816406 C 392.035156 690.136719 397.796875 693.015625 404.996094 693.015625 C 412.195312 693.015625 417.957031 690.136719 423.71875 685.816406 C 433.796875 677.175781 678.609375 474.125 678.609375 275.394531 C 678.609375 124.183594 556.203125 1.777344 404.996094 1.777344 C 253.789062 1.777344 131.382812 124.183594 131.382812 275.394531 C 131.382812 474.125 376.195312 677.175781 386.277344 685.816406 Z M 404.996094 59.382812 C 524.523438 59.382812 621.007812 155.867188 621.007812 275.394531 C 621.007812 417.960938 459.71875 576.367188 404.996094 625.332031 C 350.273438 576.367188 188.984375 417.960938 188.984375 275.394531 C 188.984375 155.867188 285.46875 59.382812 404.996094 59.382812 Z M 759.253906 796.699219 C 753.496094 803.902344 744.855469 808.222656 736.214844 808.222656 L 73.777344 808.222656 C 65.136719 808.222656 56.5 803.902344 50.738281 796.699219 C 44.976562 789.5 43.539062 780.859375 44.976562 772.21875 L 102.582031 541.808594 C 105.460938 528.847656 116.980469 520.207031 129.941406 520.207031 L 201.945312 520.207031 L 201.945312 577.808594 L 152.984375 577.808594 L 109.78125 750.617188 L 698.773438 750.617188 L 655.570312 577.808594 L 606.605469 577.808594 L 606.605469 520.207031 L 678.609375 520.207031 C 691.570312 520.207031 703.09375 528.847656 705.972656 541.808594 L 763.574219 772.21875 C 766.457031 780.859375 765.015625 789.5 759.253906 796.699219 Z M 563.40625 275.394531 C 563.40625 187.546875 492.839844 116.984375 404.996094 116.984375 C 317.152344 116.984375 246.589844 187.546875 246.589844 275.394531 C 246.589844 363.238281 317.152344 433.800781 404.996094 433.800781 C 492.839844 433.800781 563.40625 363.238281 563.40625 275.394531 Z M 304.191406 275.394531 C 304.191406 219.230469 348.832031 174.589844 404.996094 174.589844 C 461.160156 174.589844 505.800781 219.230469 505.800781 275.394531 C 505.800781 331.554688 461.160156 376.199219 404.996094 376.199219 C 348.832031 376.199219 304.191406 331.554688 304.191406 275.394531 Z M 304.191406 275.394531 "/></g></svg>