<svg xmlns="http://www.w3.org/2000/svg" xmlns:xlink="http://www.w3.org/1999/xlink" width="500" zoomAndPan="magnify" viewBox="0 0 375 374.999991" height="500" preserveAspectRatio="xMidYMid meet" version="1.0"><defs><clipPath id="63915931fa"><path d="M 230.5 120.777344 L 234.761719 120.777344 L 234.761719 124.421875 L 230.5 124.421875 Z M 230.5 120.777344 " clip-rule="nonzero"/></clipPath><clipPath id="ceb64c39a4"><path d="M 234.75 122.101562 C 232.875 125.101562 231.074219 124.574219 230.699219 123.898438 C 230.324219 123.300781 230.625 121.425781 231.226562 120.976562 C 231.824219 120.523438 234.226562 121.125 234.226562 121.125 " clip-rule="nonzero"/></clipPath><clipPath id="429c2be27e"><path d="M 0.5 0.777344 L 4.761719 0.777344 L 4.761719 4.421875 L 0.5 4.421875 Z M 0.5 0.777344 " clip-rule="nonzero"/></clipPath><clipPath id="22c6a8b226"><path d="M 4.75 2.101562 C 2.875 5.101562 1.074219 4.574219 0.699219 3.898438 C 0.324219 3.300781 0.625 1.425781 1.226562 0.976562 C 1.824219 0.523438 4.226562 1.125 4.226562 1.125 " clip-rule="nonzero"/></clipPath><clipPath id="7517615106"><rect x="0" width="5" y="0" height="5"/></clipPath><clipPath id="4969741da7"><path d="M 187.5 0 C 83.949219 0 0 83.949219 0 187.5 C 0 291.054688 83.949219 375 187.5 375 C 291.054688 375 375 291.054688 375 187.5 C 375 83.949219 291.054688 0 187.5 0 Z M 187.5 0 " clip-rule="nonzero"/></clipPath></defs><g clip-path="url(#63915931fa)"><g clip-path="url(#ceb64c39a4)"><g transform="matrix(1, 0, 0, 1, 230, 120)"><g clip-path="url(#7517615106)"><g clip-path="url(#429c2be27e)"><g clip-path="url(#22c6a8b226)"><rect x="-312.5" width="540" fill="#e7191f" height="539.999987" y="-202.499998" fill-opacity="1"/></g></g></g></g></g></g><g clip-path="url(#4969741da7)"><rect x="-37.5" width="450" fill="#ff751f" y="-37.499999" height="449.999989" fill-opacity="1"/></g><path fill="#ffffff" d="M 108.523438 184.5 C 106.179688 181.289062 88.902344 158.363281 88.902344 134.65625 C 88.902344 110.953125 101.316406 99.316406 105.746094 94.453125 C 110.175781 89.679688 115.382812 88.464844 118.597656 88.464844 C 121.808594 88.464844 125.023438 88.464844 127.800781 88.636719 C 130.753906 88.808594 134.75 87.507812 138.65625 96.886719 C 142.648438 106.523438 152.289062 130.230469 153.503906 132.660156 C 154.71875 135.09375 155.5 137.871094 153.9375 141.082031 C 145.253906 158.449219 135.953125 158.890625 139.085938 166.03125 C 141.320312 173.515625 153.152344 189.132812 169.308594 205.289062 C 185.46875 221.445312 201.085938 233.28125 208.570312 235.515625 C 215.707031 238.644531 216.148438 229.34375 233.515625 220.660156 C 236.730469 219.097656 239.507812 219.878906 241.9375 221.09375 C 244.371094 222.3125 268.074219 231.949219 277.714844 235.945312 C 287.09375 239.851562 285.789062 243.847656 285.964844 246.796875 C 286.136719 249.578125 286.136719 252.789062 286.136719 256.003906 C 286.136719 259.214844 284.921875 264.425781 280.144531 268.855469 C 275.28125 273.28125 263.648438 285.699219 239.941406 285.699219 C 216.238281 285.699219 193.3125 268.417969 190.101562 266.074219 C 188.898438 265.164062 181.335938 260.183594 171.25 251.769531 C 163.558594 245.675781 154.753906 237.804688 145.773438 228.824219 C 136.792969 219.847656 128.921875 211.039062 122.828125 203.347656 C 114.417969 193.261719 109.433594 185.703125 108.523438 184.5 Z M 108.523438 184.5 " fill-opacity="1" fill-rule="nonzero"/></svg>