<svg xmlns="http://www.w3.org/2000/svg" xmlns:xlink="http://www.w3.org/1999/xlink" width="500" zoomAndPan="magnify" viewBox="0 0 375 374.999991" height="500" preserveAspectRatio="xMidYMid meet" version="1.0"><defs><clipPath id="5ccb657eaa"><path d="M 230.5 120.777344 L 234.761719 120.777344 L 234.761719 124.421875 L 230.5 124.421875 Z M 230.5 120.777344 " clip-rule="nonzero"/></clipPath><clipPath id="dfad8789bf"><path d="M 234.75 122.101562 C 232.875 125.101562 231.074219 124.574219 230.699219 123.898438 C 230.324219 123.300781 230.625 121.425781 231.226562 120.976562 C 231.824219 120.523438 234.226562 121.125 234.226562 121.125 " clip-rule="nonzero"/></clipPath><clipPath id="5d6917822d"><path d="M 0.5 0.777344 L 4.761719 0.777344 L 4.761719 4.421875 L 0.5 4.421875 Z M 0.5 0.777344 " clip-rule="nonzero"/></clipPath><clipPath id="c4e2e4949e"><path d="M 4.75 2.101562 C 2.875 5.101562 1.074219 4.574219 0.699219 3.898438 C 0.324219 3.300781 0.625 1.425781 1.226562 0.976562 C 1.824219 0.523438 4.226562 1.125 4.226562 1.125 " clip-rule="nonzero"/></clipPath><clipPath id="4f41809ce4"><rect x="0" width="5" y="0" height="5"/></clipPath><clipPath id="b8d48e6f85"><path d="M 37.5 0 L 345.75 0 L 345.75 375 L 37.5 375 Z M 37.5 0 " clip-rule="nonzero"/></clipPath><clipPath id="133806de29"><path d="M 177.925781 120.523438 C 169.417969 120.523438 162.546875 126.695312 162.546875 134.347656 C 162.546875 142.003906 169.417969 148.175781 177.925781 148.175781 C 183.625 148.175781 188.621094 145.285156 191.273438 141.144531 C 196.660156 141.691406 201.65625 142.003906 206.261719 142.003906 C 206.808594 142.003906 207.277344 142.003906 207.742188 142.003906 C 204.933594 145.285156 201.578125 148.097656 197.832031 150.359375 C 197.597656 150.515625 197.363281 150.671875 197.128906 150.828125 C 190.804688 154.5 183.46875 156.609375 175.664062 156.609375 C 167.855469 156.609375 160.519531 154.5 154.195312 150.828125 C 154.039062 150.59375 153.726562 150.515625 153.492188 150.359375 C 141.160156 142.863281 132.964844 129.351562 132.964844 113.886719 L 132.964844 98.96875 C 171.835938 76.707031 190.023438 87.484375 204.621094 96.234375 C 209.304688 98.96875 213.753906 101.625 218.4375 103.027344 L 218.4375 113.886719 C 218.4375 120.210938 217.109375 126.226562 214.613281 131.617188 C 209.226562 132.164062 202.203125 132.164062 193.070312 131.304688 C 191.507812 125.132812 185.417969 120.523438 177.925781 120.523438 Z M 210.945312 183.945312 L 201.421875 180.898438 L 184.09375 197.222656 L 191.117188 201.207031 Z M 195.175781 173.089844 L 195.175781 162.9375 C 189.167969 165.277344 182.609375 166.605469 175.816406 166.605469 C 168.949219 166.605469 162.46875 165.277344 156.460938 162.9375 L 156.460938 173.089844 L 175.816406 191.367188 Z M 140.613281 183.945312 L 160.363281 201.207031 L 167.386719 197.222656 L 150.136719 180.898438 Z M 222.652344 86.082031 C 222.730469 85.535156 222.808594 85.066406 222.964844 84.675781 C 226.242188 69.679688 223.199219 53.355469 200.875 43.433594 C 189.867188 38.515625 177.613281 36.953125 165.59375 38.828125 C 143.972656 42.183594 132.574219 51.949219 131.636719 67.882812 C 131.558594 68.742188 131.324219 69.523438 130.933594 70.226562 C 130.621094 70.929688 128.671875 76.707031 130.234375 85.535156 C 130.390625 86.550781 130.621094 87.640625 130.933594 88.734375 C 173.007812 65.617188 194.238281 78.269531 209.851562 87.640625 C 213.753906 89.984375 217.265625 92.09375 220.546875 93.1875 C 221.324219 90.84375 222.027344 88.5 222.652344 86.082031 Z M 228.351562 117.792969 C 228.039062 121.617188 227.414062 125.289062 226.320312 128.804688 C 229.132812 127.554688 230.691406 126.070312 231.628906 124.820312 C 233.269531 122.554688 233.503906 119.898438 233.191406 117.792969 C 232.878906 117.792969 232.566406 117.792969 232.253906 117.792969 Z M 172.695312 134.347656 C 172.695312 136.457031 175.195312 138.175781 178.082031 138.175781 C 180.5 138.175781 182.53125 137.003906 183.234375 135.441406 C 183.234375 135.363281 183.234375 135.285156 183.234375 135.207031 C 183.234375 134.894531 183.3125 134.582031 183.46875 134.269531 C 183.390625 132.242188 180.96875 130.523438 178.082031 130.523438 C 175.195312 130.523438 172.695312 132.242188 172.695312 134.347656 Z M 114.542969 82.253906 L 114.542969 68.507812 C 114.542969 36.25 142.019531 10.007812 175.742188 10.007812 C 209.460938 10.007812 236.9375 36.25 236.9375 68.507812 L 236.9375 82.253906 C 241.933594 83.894531 245.835938 88.109375 246.929688 93.34375 L 246.929688 68.507812 C 246.929688 30.78125 215.003906 0.0078125 175.738281 0.0078125 C 136.476562 0.0078125 104.550781 30.703125 104.550781 68.507812 L 104.550781 93.34375 C 105.644531 88.109375 109.546875 83.894531 114.542969 82.253906 Z M 345.75 17.582031 L 345.75 59.757812 C 345.75 60.695312 344.96875 61.476562 344.03125 61.476562 L 298.835938 61.476562 C 297.589844 61.476562 296.417969 61.945312 295.480469 62.804688 L 278.386719 78.425781 L 280.101562 67.257812 C 280.335938 65.851562 279.871094 64.367188 278.933594 63.273438 C 277.917969 62.179688 276.589844 61.554688 275.109375 61.554688 L 270.425781 61.554688 C 269.488281 61.554688 268.707031 60.773438 268.707031 59.835938 L 268.707031 17.660156 C 268.707031 16.722656 269.488281 15.941406 270.425781 15.941406 L 343.875 15.941406 C 344.8125 15.941406 345.59375 16.722656 345.75 17.582031 Z M 339.035156 47.730469 C 339.035156 44.996094 336.773438 42.730469 334.042969 42.730469 L 280.179688 42.730469 C 277.449219 42.730469 275.1875 44.996094 275.1875 47.730469 C 275.1875 50.464844 277.449219 52.730469 280.179688 52.730469 L 334.042969 52.730469 C 336.773438 52.730469 339.035156 50.464844 339.035156 47.730469 Z M 339.035156 29.765625 C 339.035156 27.03125 336.773438 24.769531 334.042969 24.769531 L 280.179688 24.769531 C 277.449219 24.769531 275.1875 27.03125 275.1875 29.765625 C 275.1875 32.5 277.449219 34.765625 280.179688 34.765625 L 334.042969 34.765625 C 336.773438 34.765625 339.035156 32.578125 339.035156 29.765625 Z M 114.230469 96.46875 L 114.230469 102.792969 C 114.230469 104.667969 115.246094 106.230469 116.730469 107.089844 C 116.882812 107.167969 117.039062 107.246094 117.195312 107.324219 C 117.820312 107.636719 118.523438 107.792969 119.226562 107.792969 L 123.050781 107.792969 L 123.050781 97.015625 C 122.347656 95.140625 121.722656 93.265625 121.257812 91.46875 L 119.226562 91.46875 C 116.496094 91.46875 114.230469 93.734375 114.230469 96.46875 Z M 234.75 107.089844 C 236.234375 106.230469 237.25 104.589844 237.25 102.792969 L 237.25 96.46875 C 237.25 93.734375 234.984375 91.46875 232.253906 91.46875 L 231.394531 91.46875 C 230.457031 94.515625 229.445312 97.40625 228.429688 99.90625 L 228.429688 107.792969 L 232.253906 107.792969 C 232.957031 107.792969 233.660156 107.636719 234.285156 107.324219 C 234.441406 107.246094 234.597656 107.167969 234.75 107.089844 Z M 113.761719 312.898438 L 297.902344 312.898438 C 301.648438 312.898438 304.769531 309.773438 304.769531 306.023438 L 304.769531 282.203125 L 113.761719 282.203125 Z M 68.332031 224.953125 C 68.332031 208.863281 78.480469 194.335938 93.546875 188.710938 C 93.625 188.710938 93.703125 188.632812 93.78125 188.632812 L 129.140625 177.152344 L 146.46875 171.527344 L 146.46875 157.546875 C 133.433594 148.722656 124.457031 134.269531 123.285156 117.636719 L 119.304688 117.636719 C 117.351562 117.636719 115.558594 117.246094 113.839844 116.621094 L 44.367188 116.621094 C 40.542969 116.621094 37.5 119.664062 37.5 123.492188 L 37.5 272.050781 L 68.332031 272.050781 Z M 120.945312 230.808594 L 120.945312 272.207031 L 230.535156 272.207031 L 230.535156 230.808594 C 230.535156 228.074219 232.800781 225.8125 235.53125 225.8125 C 238.265625 225.8125 240.527344 228.074219 240.527344 230.808594 L 240.527344 272.207031 L 273.15625 272.207031 C 273.15625 272.207031 273.234375 272.207031 273.234375 272.128906 L 273.234375 225.03125 C 273.234375 213.15625 265.742188 202.378906 254.65625 198.160156 L 222.027344 187.617188 L 195.019531 211.046875 C 194.082031 211.828125 192.914062 212.296875 191.742188 212.296875 C 190.882812 212.296875 190.023438 212.0625 189.246094 211.671875 L 175.742188 204.019531 L 162.234375 211.671875 C 161.457031 212.140625 160.597656 212.296875 159.816406 212.296875 C 158.644531 212.296875 157.476562 211.90625 156.539062 211.046875 L 129.53125 187.617188 L 96.902344 198.160156 C 85.816406 202.300781 78.324219 213.078125 78.324219 225.03125 L 78.324219 272.128906 C 78.324219 272.207031 78.402344 272.207031 78.402344 272.207031 L 111.03125 272.207031 L 111.03125 230.808594 C 111.03125 228.074219 113.292969 225.8125 116.027344 225.8125 C 118.757812 225.8125 120.945312 227.996094 120.945312 230.808594 Z M 297.902344 116.699219 L 243.183594 116.699219 C 243.652344 120.679688 243.183594 125.757812 239.824219 130.523438 C 236.078125 135.675781 229.914062 139.113281 221.089844 140.753906 C 217.109375 147.472656 211.648438 153.25 205.167969 157.625 L 205.167969 171.605469 L 222.496094 177.230469 L 257.855469 188.710938 C 257.933594 188.710938 258.011719 188.789062 258.089844 188.789062 C 273.15625 194.414062 283.304688 208.941406 283.304688 225.03125 L 283.304688 272.207031 L 304.925781 272.207031 L 304.925781 123.570312 C 304.769531 119.820312 301.726562 116.699219 297.902344 116.699219 Z M 37.5 282.203125 L 103.769531 282.203125 L 103.769531 312.898438 L 44.367188 312.898438 C 40.542969 312.898438 37.5 309.773438 37.5 306.023438 Z M 78.949219 297.511719 C 78.949219 300.246094 81.210938 302.511719 83.945312 302.511719 L 92.609375 302.511719 C 95.339844 302.511719 97.605469 300.246094 97.605469 297.511719 C 97.605469 294.777344 95.339844 292.511719 92.609375 292.511719 L 83.945312 292.511719 C 81.132812 292.511719 78.949219 294.777344 78.949219 297.511719 Z M 50.535156 297.511719 C 50.535156 300.246094 52.800781 302.511719 55.53125 302.511719 L 64.195312 302.511719 C 66.929688 302.511719 69.191406 300.246094 69.191406 297.511719 C 69.191406 294.777344 66.929688 292.511719 64.195312 292.511719 L 55.53125 292.511719 C 52.800781 292.511719 50.535156 294.777344 50.535156 297.511719 Z M 122.503906 374.992188 L 219.84375 374.992188 L 219.84375 367.648438 L 122.503906 367.648438 Z M 146.625 322.894531 C 146.46875 330.707031 145.453125 345.859375 140.457031 357.574219 L 201.8125 357.574219 C 196.816406 345.859375 195.800781 330.707031 195.644531 322.894531 L 188.542969 322.894531 C 188.542969 323.050781 188.542969 323.285156 188.542969 323.441406 C 188.542969 336.015625 180.890625 345.9375 171.136719 345.9375 C 161.378906 345.9375 153.726562 336.09375 153.726562 323.441406 C 153.726562 323.285156 153.726562 323.050781 153.726562 322.894531 Z M 178.550781 323.441406 C 178.550781 323.285156 178.550781 323.050781 178.550781 322.894531 L 163.796875 322.894531 C 163.796875 323.050781 163.796875 323.285156 163.796875 323.441406 C 163.796875 330.785156 167.699219 335.9375 171.214844 335.9375 C 174.648438 335.9375 178.550781 330.863281 178.550781 323.441406 Z M 178.550781 323.441406 " clip-rule="nonzero"/></clipPath><linearGradient x1="42.801001" gradientTransform="matrix(0.780577, 0, 0, 0.781052, -0.279942, -4.44357)" y1="11.298998" x2="480.300953" gradientUnits="userSpaceOnUse" y2="448.798977" id="354f42ab9a"><stop stop-opacity="1" stop-color="rgb(0%, 85.879517%, 87.059021%)" offset="0"/><stop stop-opacity="1" stop-color="rgb(0%, 85.879517%, 87.059021%)" offset="0.125"/><stop stop-opacity="1" stop-color="rgb(0%, 85.879517%, 87.059021%)" offset="0.15625"/><stop stop-opacity="1" stop-color="rgb(0.431824%, 85.50415%, 87.115479%)" offset="0.160156"/><stop stop-opacity="1" stop-color="rgb(0.863647%, 85.128784%, 87.171936%)" offset="0.164062"/><stop stop-opacity="1" stop-color="rgb(1.426697%, 84.638977%, 87.245178%)" offset="0.167969"/><stop stop-opacity="1" stop-color="rgb(1.989746%, 84.14917%, 87.319946%)" offset="0.171875"/><stop stop-opacity="1" stop-color="rgb(2.552795%, 83.659363%, 87.393188%)" offset="0.175781"/><stop stop-opacity="1" stop-color="rgb(3.117371%, 83.169556%, 87.467957%)" offset="0.179687"/><stop stop-opacity="1" stop-color="rgb(3.68042%, 82.679749%, 87.541199%)" offset="0.183594"/><stop stop-opacity="1" stop-color="rgb(4.243469%, 82.189941%, 87.614441%)" offset="0.1875"/><stop stop-opacity="1" stop-color="rgb(4.806519%, 81.700134%, 87.687683%)" offset="0.191406"/><stop stop-opacity="1" stop-color="rgb(5.371094%, 81.210327%, 87.762451%)" offset="0.195312"/><stop stop-opacity="1" stop-color="rgb(5.934143%, 80.72052%, 87.835693%)" offset="0.199219"/><stop stop-opacity="1" stop-color="rgb(6.497192%, 80.232239%, 87.910461%)" offset="0.203125"/><stop stop-opacity="1" stop-color="rgb(7.060242%, 79.742432%, 87.983704%)" offset="0.207031"/><stop stop-opacity="1" stop-color="rgb(7.624817%, 79.252625%, 88.058472%)" offset="0.210938"/><stop stop-opacity="1" stop-color="rgb(8.187866%, 78.762817%, 88.131714%)" offset="0.214844"/><stop stop-opacity="1" stop-color="rgb(8.750916%, 78.27301%, 88.204956%)" offset="0.21875"/><stop stop-opacity="1" stop-color="rgb(9.313965%, 77.783203%, 88.278198%)" offset="0.222656"/><stop stop-opacity="1" stop-color="rgb(9.87854%, 77.293396%, 88.352966%)" offset="0.226562"/><stop stop-opacity="1" stop-color="rgb(10.441589%, 76.803589%, 88.426208%)" offset="0.230469"/><stop stop-opacity="1" stop-color="rgb(11.004639%, 76.315308%, 88.500977%)" offset="0.234375"/><stop stop-opacity="1" stop-color="rgb(11.567688%, 75.8255%, 88.574219%)" offset="0.238281"/><stop stop-opacity="1" stop-color="rgb(12.132263%, 75.335693%, 88.647461%)" offset="0.242187"/><stop stop-opacity="1" stop-color="rgb(12.695312%, 74.845886%, 88.720703%)" offset="0.246094"/><stop stop-opacity="1" stop-color="rgb(13.258362%, 74.356079%, 88.795471%)" offset="0.25"/><stop stop-opacity="1" stop-color="rgb(13.821411%, 73.866272%, 88.868713%)" offset="0.253906"/><stop stop-opacity="1" stop-color="rgb(14.385986%, 73.376465%, 88.943481%)" offset="0.257812"/><stop stop-opacity="1" stop-color="rgb(14.949036%, 72.886658%, 89.016724%)" offset="0.261719"/><stop stop-opacity="1" stop-color="rgb(15.512085%, 72.396851%, 89.089966%)" offset="0.265625"/><stop stop-opacity="1" stop-color="rgb(16.075134%, 71.907043%, 89.163208%)" offset="0.269531"/><stop stop-opacity="1" stop-color="rgb(16.639709%, 71.418762%, 89.237976%)" offset="0.273437"/><stop stop-opacity="1" stop-color="rgb(17.202759%, 70.928955%, 89.311218%)" offset="0.277344"/><stop stop-opacity="1" stop-color="rgb(17.765808%, 70.439148%, 89.385986%)" offset="0.28125"/><stop stop-opacity="1" stop-color="rgb(18.328857%, 69.949341%, 89.459229%)" offset="0.285156"/><stop stop-opacity="1" stop-color="rgb(18.893433%, 69.459534%, 89.533997%)" offset="0.289062"/><stop stop-opacity="1" stop-color="rgb(19.456482%, 68.969727%, 89.607239%)" offset="0.292969"/><stop stop-opacity="1" stop-color="rgb(20.019531%, 68.479919%, 89.680481%)" offset="0.296875"/><stop stop-opacity="1" stop-color="rgb(20.582581%, 67.990112%, 89.753723%)" offset="0.300781"/><stop stop-opacity="1" stop-color="rgb(21.147156%, 67.500305%, 89.828491%)" offset="0.304688"/><stop stop-opacity="1" stop-color="rgb(21.710205%, 67.010498%, 89.901733%)" offset="0.308594"/><stop stop-opacity="1" stop-color="rgb(22.273254%, 66.522217%, 89.976501%)" offset="0.3125"/><stop stop-opacity="1" stop-color="rgb(22.836304%, 66.03241%, 90.049744%)" offset="0.316406"/><stop stop-opacity="1" stop-color="rgb(23.400879%, 65.542603%, 90.122986%)" offset="0.320312"/><stop stop-opacity="1" stop-color="rgb(23.963928%, 65.052795%, 90.196228%)" offset="0.324219"/><stop stop-opacity="1" stop-color="rgb(24.526978%, 64.562988%, 90.270996%)" offset="0.328125"/><stop stop-opacity="1" stop-color="rgb(25.090027%, 64.073181%, 90.344238%)" offset="0.332031"/><stop stop-opacity="1" stop-color="rgb(25.654602%, 63.583374%, 90.419006%)" offset="0.335938"/><stop stop-opacity="1" stop-color="rgb(26.217651%, 63.093567%, 90.492249%)" offset="0.339844"/><stop stop-opacity="1" stop-color="rgb(26.780701%, 62.605286%, 90.565491%)" offset="0.34375"/><stop stop-opacity="1" stop-color="rgb(27.34375%, 62.115479%, 90.638733%)" offset="0.347656"/><stop stop-opacity="1" stop-color="rgb(27.908325%, 61.625671%, 90.713501%)" offset="0.351562"/><stop stop-opacity="1" stop-color="rgb(28.471375%, 61.135864%, 90.786743%)" offset="0.355469"/><stop stop-opacity="1" stop-color="rgb(29.034424%, 60.646057%, 90.861511%)" offset="0.359375"/><stop stop-opacity="1" stop-color="rgb(29.597473%, 60.15625%, 90.934753%)" offset="0.363281"/><stop stop-opacity="1" stop-color="rgb(30.162048%, 59.666443%, 91.009521%)" offset="0.367187"/><stop stop-opacity="1" stop-color="rgb(30.725098%, 59.176636%, 91.082764%)" offset="0.371094"/><stop stop-opacity="1" stop-color="rgb(31.288147%, 58.686829%, 91.156006%)" offset="0.375"/><stop stop-opacity="1" stop-color="rgb(31.851196%, 58.197021%, 91.229248%)" offset="0.378906"/><stop stop-opacity="1" stop-color="rgb(32.414246%, 57.70874%, 91.304016%)" offset="0.382812"/><stop stop-opacity="1" stop-color="rgb(32.977295%, 57.218933%, 91.377258%)" offset="0.386719"/><stop stop-opacity="1" stop-color="rgb(33.54187%, 56.729126%, 91.452026%)" offset="0.390625"/><stop stop-opacity="1" stop-color="rgb(34.104919%, 56.239319%, 91.525269%)" offset="0.394531"/><stop stop-opacity="1" stop-color="rgb(34.667969%, 55.749512%, 91.598511%)" offset="0.398438"/><stop stop-opacity="1" stop-color="rgb(35.231018%, 55.259705%, 91.671753%)" offset="0.402344"/><stop stop-opacity="1" stop-color="rgb(35.795593%, 54.769897%, 91.746521%)" offset="0.40625"/><stop stop-opacity="1" stop-color="rgb(36.358643%, 54.28009%, 91.819763%)" offset="0.410156"/><stop stop-opacity="1" stop-color="rgb(36.921692%, 53.790283%, 91.894531%)" offset="0.414062"/><stop stop-opacity="1" stop-color="rgb(37.484741%, 53.300476%, 91.967773%)" offset="0.417969"/><stop stop-opacity="1" stop-color="rgb(38.049316%, 52.812195%, 92.041016%)" offset="0.421875"/><stop stop-opacity="1" stop-color="rgb(38.612366%, 52.322388%, 92.114258%)" offset="0.425781"/><stop stop-opacity="1" stop-color="rgb(39.175415%, 51.832581%, 92.189026%)" offset="0.429688"/><stop stop-opacity="1" stop-color="rgb(39.738464%, 51.342773%, 92.262268%)" offset="0.433594"/><stop stop-opacity="1" stop-color="rgb(40.30304%, 50.852966%, 92.337036%)" offset="0.4375"/><stop stop-opacity="1" stop-color="rgb(40.866089%, 50.363159%, 92.410278%)" offset="0.441406"/><stop stop-opacity="1" stop-color="rgb(41.429138%, 49.873352%, 92.485046%)" offset="0.445312"/><stop stop-opacity="1" stop-color="rgb(41.992188%, 49.383545%, 92.558289%)" offset="0.449219"/><stop stop-opacity="1" stop-color="rgb(42.556763%, 48.895264%, 92.631531%)" offset="0.453125"/><stop stop-opacity="1" stop-color="rgb(43.119812%, 48.405457%, 92.704773%)" offset="0.457031"/><stop stop-opacity="1" stop-color="rgb(43.682861%, 47.915649%, 92.779541%)" offset="0.460937"/><stop stop-opacity="1" stop-color="rgb(44.245911%, 47.425842%, 92.852783%)" offset="0.464844"/><stop stop-opacity="1" stop-color="rgb(44.810486%, 46.936035%, 92.927551%)" offset="0.46875"/><stop stop-opacity="1" stop-color="rgb(45.373535%, 46.446228%, 93.000793%)" offset="0.472656"/><stop stop-opacity="1" stop-color="rgb(45.936584%, 45.956421%, 93.074036%)" offset="0.476562"/><stop stop-opacity="1" stop-color="rgb(46.499634%, 45.466614%, 93.147278%)" offset="0.480469"/><stop stop-opacity="1" stop-color="rgb(47.064209%, 44.976807%, 93.222046%)" offset="0.484375"/><stop stop-opacity="1" stop-color="rgb(47.627258%, 44.487%, 93.295288%)" offset="0.488281"/><stop stop-opacity="1" stop-color="rgb(48.190308%, 43.998718%, 93.370056%)" offset="0.492188"/><stop stop-opacity="1" stop-color="rgb(48.753357%, 43.508911%, 93.443298%)" offset="0.496094"/><stop stop-opacity="1" stop-color="rgb(49.317932%, 43.019104%, 93.516541%)" offset="0.5"/><stop stop-opacity="1" stop-color="rgb(49.880981%, 42.529297%, 93.589783%)" offset="0.503906"/><stop stop-opacity="1" stop-color="rgb(50.444031%, 42.03949%, 93.664551%)" offset="0.507812"/><stop stop-opacity="1" stop-color="rgb(51.00708%, 41.549683%, 93.737793%)" offset="0.511719"/><stop stop-opacity="1" stop-color="rgb(51.571655%, 41.059875%, 93.812561%)" offset="0.515625"/><stop stop-opacity="1" stop-color="rgb(52.134705%, 40.570068%, 93.885803%)" offset="0.519531"/><stop stop-opacity="1" stop-color="rgb(52.697754%, 40.081787%, 93.960571%)" offset="0.523437"/><stop stop-opacity="1" stop-color="rgb(53.260803%, 39.59198%, 94.033813%)" offset="0.527344"/><stop stop-opacity="1" stop-color="rgb(53.825378%, 39.102173%, 94.107056%)" offset="0.53125"/><stop stop-opacity="1" stop-color="rgb(54.388428%, 38.612366%, 94.180298%)" offset="0.535156"/><stop stop-opacity="1" stop-color="rgb(54.951477%, 38.122559%, 94.255066%)" offset="0.539062"/><stop stop-opacity="1" stop-color="rgb(55.514526%, 37.632751%, 94.328308%)" offset="0.542969"/><stop stop-opacity="1" stop-color="rgb(56.079102%, 37.142944%, 94.403076%)" offset="0.546875"/><stop stop-opacity="1" stop-color="rgb(56.642151%, 36.653137%, 94.476318%)" offset="0.550781"/><stop stop-opacity="1" stop-color="rgb(57.2052%, 36.16333%, 94.549561%)" offset="0.554688"/><stop stop-opacity="1" stop-color="rgb(57.76825%, 35.673523%, 94.622803%)" offset="0.558594"/><stop stop-opacity="1" stop-color="rgb(58.332825%, 35.185242%, 94.697571%)" offset="0.5625"/><stop stop-opacity="1" stop-color="rgb(58.895874%, 34.695435%, 94.770813%)" offset="0.566406"/><stop stop-opacity="1" stop-color="rgb(59.458923%, 34.205627%, 94.845581%)" offset="0.570312"/><stop stop-opacity="1" stop-color="rgb(60.021973%, 33.71582%, 94.918823%)" offset="0.574219"/><stop stop-opacity="1" stop-color="rgb(60.586548%, 33.226013%, 94.992065%)" offset="0.578125"/><stop stop-opacity="1" stop-color="rgb(61.149597%, 32.736206%, 95.065308%)" offset="0.582031"/><stop stop-opacity="1" stop-color="rgb(61.712646%, 32.246399%, 95.140076%)" offset="0.585938"/><stop stop-opacity="1" stop-color="rgb(62.275696%, 31.756592%, 95.213318%)" offset="0.589844"/><stop stop-opacity="1" stop-color="rgb(62.840271%, 31.266785%, 95.288086%)" offset="0.59375"/><stop stop-opacity="1" stop-color="rgb(63.40332%, 30.776978%, 95.361328%)" offset="0.597656"/><stop stop-opacity="1" stop-color="rgb(63.96637%, 30.288696%, 95.436096%)" offset="0.601562"/><stop stop-opacity="1" stop-color="rgb(64.529419%, 29.798889%, 95.509338%)" offset="0.605469"/><stop stop-opacity="1" stop-color="rgb(65.093994%, 29.309082%, 95.582581%)" offset="0.609375"/><stop stop-opacity="1" stop-color="rgb(65.657043%, 28.819275%, 95.655823%)" offset="0.613281"/><stop stop-opacity="1" stop-color="rgb(66.220093%, 28.329468%, 95.730591%)" offset="0.617187"/><stop stop-opacity="1" stop-color="rgb(66.783142%, 27.839661%, 95.803833%)" offset="0.621094"/><stop stop-opacity="1" stop-color="rgb(67.347717%, 27.349854%, 95.878601%)" offset="0.625"/><stop stop-opacity="1" stop-color="rgb(67.910767%, 26.860046%, 95.951843%)" offset="0.628906"/><stop stop-opacity="1" stop-color="rgb(68.473816%, 26.371765%, 96.025085%)" offset="0.632812"/><stop stop-opacity="1" stop-color="rgb(69.036865%, 25.881958%, 96.098328%)" offset="0.636719"/><stop stop-opacity="1" stop-color="rgb(69.60144%, 25.392151%, 96.173096%)" offset="0.640625"/><stop stop-opacity="1" stop-color="rgb(70.16449%, 24.902344%, 96.246338%)" offset="0.644531"/><stop stop-opacity="1" stop-color="rgb(70.727539%, 24.412537%, 96.321106%)" offset="0.648438"/><stop stop-opacity="1" stop-color="rgb(71.290588%, 23.922729%, 96.394348%)" offset="0.652344"/><stop stop-opacity="1" stop-color="rgb(71.853638%, 23.432922%, 96.46759%)" offset="0.65625"/><stop stop-opacity="1" stop-color="rgb(72.416687%, 22.943115%, 96.540833%)" offset="0.660156"/><stop stop-opacity="1" stop-color="rgb(72.981262%, 22.453308%, 96.615601%)" offset="0.664062"/><stop stop-opacity="1" stop-color="rgb(73.544312%, 21.963501%, 96.688843%)" offset="0.667969"/><stop stop-opacity="1" stop-color="rgb(74.107361%, 21.47522%, 96.763611%)" offset="0.671875"/><stop stop-opacity="1" stop-color="rgb(74.67041%, 20.985413%, 96.836853%)" offset="0.675781"/><stop stop-opacity="1" stop-color="rgb(75.234985%, 20.495605%, 96.911621%)" offset="0.679688"/><stop stop-opacity="1" stop-color="rgb(75.798035%, 20.005798%, 96.984863%)" offset="0.683594"/><stop stop-opacity="1" stop-color="rgb(76.361084%, 19.515991%, 97.058105%)" offset="0.6875"/><stop stop-opacity="1" stop-color="rgb(76.924133%, 19.026184%, 97.131348%)" offset="0.691406"/><stop stop-opacity="1" stop-color="rgb(77.488708%, 18.536377%, 97.206116%)" offset="0.695313"/><stop stop-opacity="1" stop-color="rgb(78.051758%, 18.04657%, 97.279358%)" offset="0.699219"/><stop stop-opacity="1" stop-color="rgb(78.614807%, 17.556763%, 97.354126%)" offset="0.703125"/><stop stop-opacity="1" stop-color="rgb(79.177856%, 17.066956%, 97.427368%)" offset="0.707031"/><stop stop-opacity="1" stop-color="rgb(79.742432%, 16.578674%, 97.50061%)" offset="0.710938"/><stop stop-opacity="1" stop-color="rgb(80.305481%, 16.088867%, 97.573853%)" offset="0.714844"/><stop stop-opacity="1" stop-color="rgb(80.86853%, 15.59906%, 97.648621%)" offset="0.71875"/><stop stop-opacity="1" stop-color="rgb(81.43158%, 15.109253%, 97.721863%)" offset="0.722656"/><stop stop-opacity="1" stop-color="rgb(81.996155%, 14.619446%, 97.796631%)" offset="0.726562"/><stop stop-opacity="1" stop-color="rgb(82.559204%, 14.129639%, 97.869873%)" offset="0.730469"/><stop stop-opacity="1" stop-color="rgb(83.122253%, 13.639832%, 97.943115%)" offset="0.734375"/><stop stop-opacity="1" stop-color="rgb(83.685303%, 13.150024%, 98.016357%)" offset="0.738281"/><stop stop-opacity="1" stop-color="rgb(84.249878%, 12.661743%, 98.091125%)" offset="0.742188"/><stop stop-opacity="1" stop-color="rgb(84.812927%, 12.171936%, 98.164368%)" offset="0.746094"/><stop stop-opacity="1" stop-color="rgb(85.375977%, 11.682129%, 98.239136%)" offset="0.75"/><stop stop-opacity="1" stop-color="rgb(85.939026%, 11.192322%, 98.312378%)" offset="0.753906"/><stop stop-opacity="1" stop-color="rgb(86.503601%, 10.702515%, 98.387146%)" offset="0.757812"/><stop stop-opacity="1" stop-color="rgb(87.06665%, 10.212708%, 98.460388%)" offset="0.761719"/><stop stop-opacity="1" stop-color="rgb(87.6297%, 9.7229%, 98.53363%)" offset="0.765625"/><stop stop-opacity="1" stop-color="rgb(88.192749%, 9.233093%, 98.606873%)" offset="0.769531"/><stop stop-opacity="1" stop-color="rgb(88.757324%, 8.743286%, 98.681641%)" offset="0.773438"/><stop stop-opacity="1" stop-color="rgb(89.320374%, 8.253479%, 98.754883%)" offset="0.777344"/><stop stop-opacity="1" stop-color="rgb(89.883423%, 7.765198%, 98.829651%)" offset="0.78125"/><stop stop-opacity="1" stop-color="rgb(90.446472%, 7.275391%, 98.902893%)" offset="0.785156"/><stop stop-opacity="1" stop-color="rgb(91.011047%, 6.785583%, 98.976135%)" offset="0.789063"/><stop stop-opacity="1" stop-color="rgb(91.574097%, 6.295776%, 99.049377%)" offset="0.792969"/><stop stop-opacity="1" stop-color="rgb(92.137146%, 5.805969%, 99.124146%)" offset="0.796875"/><stop stop-opacity="1" stop-color="rgb(92.700195%, 5.316162%, 99.197388%)" offset="0.800781"/><stop stop-opacity="1" stop-color="rgb(93.264771%, 4.826355%, 99.272156%)" offset="0.804688"/><stop stop-opacity="1" stop-color="rgb(93.82782%, 4.336548%, 99.345398%)" offset="0.808594"/><stop stop-opacity="1" stop-color="rgb(94.390869%, 3.846741%, 99.420166%)" offset="0.8125"/><stop stop-opacity="1" stop-color="rgb(94.953918%, 3.356934%, 99.493408%)" offset="0.816406"/><stop stop-opacity="1" stop-color="rgb(95.518494%, 2.868652%, 99.56665%)" offset="0.820312"/><stop stop-opacity="1" stop-color="rgb(96.081543%, 2.378845%, 99.639893%)" offset="0.824219"/><stop stop-opacity="1" stop-color="rgb(96.644592%, 1.889038%, 99.714661%)" offset="0.828125"/><stop stop-opacity="1" stop-color="rgb(97.207642%, 1.399231%, 99.787903%)" offset="0.832031"/><stop stop-opacity="1" stop-color="rgb(97.772217%, 0.909424%, 99.862671%)" offset="0.835937"/><stop stop-opacity="1" stop-color="rgb(98.295593%, 0.454712%, 99.931335%)" offset="0.839844"/><stop stop-opacity="1" stop-color="rgb(98.81897%, 0%, 100%)" offset="0.84375"/><stop stop-opacity="1" stop-color="rgb(98.81897%, 0%, 100%)" offset="0.875"/><stop stop-opacity="1" stop-color="rgb(98.81897%, 0%, 100%)" offset="1"/></linearGradient></defs><g clip-path="url(#5ccb657eaa)"><g clip-path="url(#dfad8789bf)"><g transform="matrix(1, 0, 0, 1, 230, 120)"><g clip-path="url(#4f41809ce4)"><g clip-path="url(#5d6917822d)"><g clip-path="url(#c4e2e4949e)"><rect x="-312.5" width="540" fill="#e7191f" height="539.999987" y="-202.499998" fill-opacity="1"/></g></g></g></g></g></g><g clip-path="url(#b8d48e6f85)"><g clip-path="url(#133806de29)"><path fill="url(#354f42ab9a)" d="M 37.5 0.0078125 L 37.5 374.992188 L 345.75 374.992188 L 345.75 0.0078125 Z M 37.5 0.0078125 " fill-rule="nonzero"/></g></g></svg>