<svg xmlns="http://www.w3.org/2000/svg" xmlns:xlink="http://www.w3.org/1999/xlink" width="1080" zoomAndPan="magnify" viewBox="0 0 810 809.999993" height="1080" preserveAspectRatio="xMidYMid meet" version="1.2"><defs><clipPath id="741ffe25e3"><path d="M 483.964844 122.015625 L 486.835938 122.015625 L 486.835938 124.453125 L 483.964844 124.453125 Z M 483.964844 122.015625 "/></clipPath><clipPath id="523b42ee5c"><path d="M 486.824219 122.851562 C 485.550781 124.875 484.351562 124.5 484.125 124.125 C 483.824219 123.675781 484.050781 122.476562 484.425781 122.175781 C 484.875 121.800781 486.449219 122.25 486.449219 122.25 "/></clipPath><clipPath id="ce46f284ee"><path d="M 54.167969 0 L 755 0 L 755 810 L 54.167969 810 Z M 54.167969 0 "/></clipPath></defs><g id="9c6ff35599"><g clip-rule="nonzero" clip-path="url(#741ffe25e3)"><g clip-rule="nonzero" clip-path="url(#523b42ee5c)"><path style=" stroke:none;fill-rule:nonzero;fill:#ffffff;fill-opacity:1;" d="M 481.125 119.175781 L 489.910156 119.175781 L 489.910156 127.726562 L 481.125 127.726562 Z M 481.125 119.175781 "/></g></g><g clip-rule="nonzero" clip-path="url(#ce46f284ee)"><path style=" stroke:none;fill-rule:nonzero;fill:#ffffff;fill-opacity:1;" d="M 698.714844 87.695312 L 581.964844 87.695312 L 581.964844 71.027344 C 581.964844 31.933594 550.160156 0.125 511.0625 0.125 L 298.035156 0.125 C 258.9375 0.125 227.132812 31.933594 227.132812 71.027344 L 227.132812 87.695312 L 110.382812 87.695312 C 79.800781 87.695312 54.90625 112.582031 54.90625 143.164062 L 54.90625 169.460938 C 54.90625 198.089844 76.714844 221.714844 104.578125 224.632812 L 161.703125 725.894531 C 167.148438 773.765625 207.601562 809.863281 255.789062 809.863281 L 553.300781 809.863281 C 601.488281 809.863281 641.941406 773.765625 647.386719 725.894531 L 704.511719 224.632812 C 732.382812 221.722656 754.179688 198.089844 754.179688 169.460938 L 754.179688 143.164062 C 754.179688 112.582031 729.285156 87.695312 698.703125 87.695312 Z M 263.140625 71.027344 C 263.140625 51.777344 278.792969 36.125 298.042969 36.125 L 511.074219 36.125 C 530.324219 36.125 545.976562 51.777344 545.976562 71.027344 L 545.976562 87.695312 L 263.140625 87.695312 Z M 611.628906 721.816406 C 608.253906 751.492188 583.179688 773.863281 553.320312 773.863281 L 255.804688 773.863281 C 225.945312 773.863281 200.871094 751.492188 197.496094 721.816406 L 140.875 224.9375 L 668.257812 224.9375 L 611.640625 721.816406 Z M 718.199219 169.460938 C 718.199219 180.199219 709.460938 188.9375 698.722656 188.9375 L 110.382812 188.9375 C 99.648438 188.9375 90.90625 180.199219 90.90625 169.460938 L 90.90625 143.164062 C 90.90625 132.433594 99.648438 123.695312 110.382812 123.695312 L 698.703125 123.695312 C 709.441406 123.695312 718.179688 132.433594 718.179688 143.164062 L 718.179688 169.460938 Z M 718.199219 169.460938 "/></g><path style=" stroke:none;fill-rule:nonzero;fill:#ffffff;fill-opacity:1;" d="M 404.546875 676.441406 C 414.484375 676.441406 422.546875 668.375 422.546875 658.441406 L 422.546875 340.363281 C 422.546875 330.425781 414.484375 322.363281 404.546875 322.363281 C 394.613281 322.363281 386.546875 330.425781 386.546875 340.363281 L 386.546875 658.441406 C 386.546875 668.375 394.613281 676.441406 404.546875 676.441406 Z M 404.546875 676.441406 "/><path style=" stroke:none;fill-rule:nonzero;fill:#ffffff;fill-opacity:1;" d="M 512.152344 675.601562 C 512.746094 675.667969 513.339844 675.691406 513.917969 675.691406 C 523.078125 675.691406 530.910156 668.746094 531.808594 659.4375 L 562.644531 342.855469 C 563.605469 332.953125 556.371094 324.152344 546.480469 323.191406 C 536.445312 322.171875 527.777344 329.464844 526.8125 339.355469 L 495.980469 655.9375 C 495.015625 665.839844 502.253906 674.640625 512.144531 675.601562 Z M 512.152344 675.601562 "/><path style=" stroke:none;fill-rule:nonzero;fill:#ffffff;fill-opacity:1;" d="M 295.179688 675.691406 C 295.757812 675.691406 296.351562 675.667969 296.945312 675.601562 C 306.835938 674.648438 314.070312 665.839844 313.109375 655.9375 L 282.273438 339.355469 C 281.3125 329.464844 272.644531 322.183594 262.609375 323.191406 C 252.71875 324.144531 245.484375 332.953125 246.445312 342.855469 L 277.28125 659.4375 C 278.1875 668.734375 286.019531 675.691406 295.171875 675.691406 Z M 295.179688 675.691406 "/></g></svg>