<svg xmlns="http://www.w3.org/2000/svg" xmlns:xlink="http://www.w3.org/1999/xlink" width="500" zoomAndPan="magnify" viewBox="0 0 375 374.999991" height="500" preserveAspectRatio="xMidYMid meet" version="1.0"><defs><clipPath id="66e646ef51"><path d="M 43.046875 0 L 331.796875 0 L 331.796875 375 L 43.046875 375 Z M 43.046875 0 " clip-rule="nonzero"/></clipPath></defs><g clip-path="url(#66e646ef51)"><path fill="#ffffff" d="M 315.769531 41.113281 L 254.0625 41.113281 L 221.53125 8.757812 C 221.011719 8.234375 220.492188 7.832031 219.972656 7.425781 C 214.828125 3.152344 206.796875 0.0898438 200.441406 0.0898438 L 59.226562 0.0898438 C 50.328125 0.0898438 43.046875 7.371094 43.046875 16.265625 L 43.046875 317.707031 C 43.046875 326.605469 50.328125 333.886719 59.226562 333.886719 L 77.714844 333.886719 L 77.714844 358.730469 C 77.714844 367.628906 84.996094 374.910156 93.894531 374.910156 L 315.769531 374.910156 C 324.667969 374.910156 331.949219 367.628906 331.949219 358.730469 L 331.949219 57.234375 C 331.949219 48.335938 324.667969 41.113281 315.769531 41.113281 Z M 216.621094 22.390625 L 274.746094 80.113281 L 219.625 80.113281 C 217.949219 80.113281 216.5625 78.726562 216.5625 77.050781 L 216.5625 22.390625 Z M 56.164062 317.707031 L 56.164062 16.265625 C 56.164062 14.59375 57.550781 13.207031 59.226562 13.207031 L 200.441406 13.207031 C 201.421875 13.207031 202.519531 13.378906 203.675781 13.667969 C 203.5625 14.476562 203.503906 15.34375 203.503906 16.210938 L 203.503906 76.996094 C 203.503906 85.894531 210.785156 93.171875 219.683594 93.171875 L 281.101562 93.171875 C 282.027344 93.171875 282.894531 93.117188 283.644531 93 C 283.933594 94.15625 284.105469 95.253906 284.105469 96.234375 L 284.105469 317.652344 C 284.105469 319.324219 282.71875 320.710938 281.042969 320.710938 L 59.226562 320.710938 C 57.550781 320.769531 56.164062 319.382812 56.164062 317.707031 Z M 318.832031 358.730469 C 318.832031 360.40625 317.445312 361.792969 315.769531 361.792969 L 93.894531 361.792969 C 92.21875 361.792969 90.832031 360.40625 90.832031 358.730469 L 90.832031 333.886719 L 281.101562 333.886719 C 290 333.886719 297.28125 326.605469 297.28125 317.707031 L 297.28125 96.292969 C 297.28125 89.9375 294.21875 82.023438 289.941406 76.878906 C 289.539062 76.359375 289.078125 75.839844 288.5 75.261719 L 267.292969 54.230469 L 315.769531 54.230469 C 317.445312 54.230469 318.832031 55.617188 318.832031 57.292969 Z M 247.359375 142.230469 L 92.96875 142.230469 C 89.847656 142.230469 87.363281 139.6875 87.363281 136.625 C 87.363281 133.5625 89.90625 131.019531 92.96875 131.019531 L 247.359375 131.019531 C 250.480469 131.019531 252.964844 133.5625 252.964844 136.625 C 252.964844 139.6875 250.480469 142.230469 247.359375 142.230469 Z M 247.359375 183.253906 L 92.96875 183.253906 C 89.847656 183.253906 87.363281 180.710938 87.363281 177.648438 C 87.363281 174.585938 89.90625 172.042969 92.96875 172.042969 L 247.359375 172.042969 C 250.480469 172.042969 252.964844 174.585938 252.964844 177.648438 C 252.964844 180.710938 250.480469 183.253906 247.359375 183.253906 Z M 247.359375 224.21875 L 92.96875 224.21875 C 89.847656 224.21875 87.363281 221.675781 87.363281 218.613281 C 87.363281 215.550781 89.90625 213.011719 92.96875 213.011719 L 247.359375 213.011719 C 250.480469 213.011719 252.964844 215.550781 252.964844 218.613281 C 252.964844 221.675781 250.480469 224.21875 247.359375 224.21875 Z M 159.1875 265.242188 L 92.96875 265.242188 C 89.847656 265.242188 87.363281 262.703125 87.363281 259.640625 C 87.363281 256.519531 89.90625 254.035156 92.96875 254.035156 L 159.1875 254.035156 C 162.304688 254.035156 164.789062 256.578125 164.789062 259.640625 C 164.789062 262.703125 162.304688 265.242188 159.1875 265.242188 Z M 159.1875 265.242188 " fill-opacity="1" fill-rule="nonzero"/></g></svg>