<svg xmlns="http://www.w3.org/2000/svg" xmlns:xlink="http://www.w3.org/1999/xlink" width="500" zoomAndPan="magnify" viewBox="0 0 375 374.999991" height="500" preserveAspectRatio="xMidYMid meet" version="1.0"><defs><clipPath id="219206afb0"><path d="M 222.550781 82.039062 L 226.8125 82.039062 L 226.8125 85.648438 L 222.550781 85.648438 Z M 222.550781 82.039062 " clip-rule="nonzero"/></clipPath><clipPath id="1e81a09e32"><path d="M 226.800781 83.324219 C 224.925781 86.324219 223.125 85.800781 222.75 85.125 C 222.375 84.523438 222.675781 82.648438 223.273438 82.199219 C 223.875 81.75 226.273438 82.425781 226.273438 82.425781 " clip-rule="nonzero"/></clipPath><clipPath id="3ef852d1a4"><path d="M 0.550781 0.0390625 L 4.800781 0.0390625 L 4.800781 3.648438 L 0.550781 3.648438 Z M 0.550781 0.0390625 " clip-rule="nonzero"/></clipPath><clipPath id="f049af32da"><path d="M 4.800781 1.324219 C 2.925781 4.324219 1.125 3.800781 0.75 3.125 C 0.375 2.523438 0.675781 0.648438 1.273438 0.199219 C 1.875 -0.25 4.273438 0.425781 4.273438 0.425781 " clip-rule="nonzero"/></clipPath><clipPath id="b7ea4916b3"><rect x="0" width="5" y="0" height="4"/></clipPath><clipPath id="a81dd7f2a6"><path d="M 135 6 L 363.1875 6 L 363.1875 307 L 135 307 Z M 135 6 " clip-rule="nonzero"/></clipPath></defs><g clip-path="url(#219206afb0)"><g clip-path="url(#1e81a09e32)"><g transform="matrix(1, 0, 0, 1, 222, 82)"><g clip-path="url(#b7ea4916b3)"><g clip-path="url(#3ef852d1a4)"><g clip-path="url(#f049af32da)"><rect x="-304.5" width="540" fill="#e7191f" height="539.999987" y="-164.499998" fill-opacity="1"/></g></g></g></g></g></g><g clip-path="url(#a81dd7f2a6)"><path fill="#595958" d="M 362.945312 39.582031 L 361.617188 55.902344 L 361.015625 63.277344 L 344.25 268.660156 L 342.566406 289.253906 C 342.515625 289.875 342.433594 290.492188 342.324219 291.109375 C 342.210938 291.722656 342.070312 292.328125 341.898438 292.929688 C 341.726562 293.527344 341.527344 294.117188 341.296875 294.699219 C 341.070312 295.277344 340.8125 295.847656 340.527344 296.402344 C 340.242188 296.957031 339.929688 297.496094 339.59375 298.019531 C 339.253906 298.546875 338.890625 299.050781 338.503906 299.539062 C 338.113281 300.03125 337.703125 300.496094 337.269531 300.945312 C 336.835938 301.394531 336.378906 301.820312 335.90625 302.226562 C 335.429688 302.628906 334.933594 303.007812 334.421875 303.363281 C 333.90625 303.71875 333.378906 304.046875 332.832031 304.351562 C 332.285156 304.652344 331.726562 304.929688 331.152344 305.179688 C 330.582031 305.425781 329.996094 305.644531 329.402344 305.835938 C 328.808594 306.027344 328.207031 306.191406 327.59375 306.320312 C 326.984375 306.453125 326.371094 306.554688 325.75 306.628906 C 325.128906 306.699219 324.507812 306.738281 323.882812 306.75 C 323.257812 306.761719 322.632812 306.742188 322.011719 306.691406 L 294.492188 304.449219 L 291.753906 304.226562 L 270.695312 302.511719 L 248.601562 297.347656 L 150.210938 274.355469 C 149.601562 274.210938 149 274.039062 148.410156 273.839844 C 147.816406 273.636719 147.234375 273.40625 146.664062 273.148438 C 146.09375 272.890625 145.539062 272.605469 144.996094 272.292969 C 144.453125 271.980469 143.929688 271.640625 143.421875 271.277344 C 142.914062 270.910156 142.421875 270.523438 141.953125 270.109375 C 141.480469 269.695312 141.03125 269.261719 140.605469 268.804688 C 140.179688 268.347656 139.773438 267.871094 139.394531 267.375 C 139.011719 266.878906 138.65625 266.367188 138.328125 265.835938 C 137.996094 265.304688 137.691406 264.757812 137.417969 264.195312 C 137.140625 263.636719 136.890625 263.0625 136.671875 262.476562 C 136.453125 261.890625 136.261719 261.296875 136.097656 260.691406 C 135.9375 260.089844 135.804688 259.476562 135.703125 258.859375 C 135.601562 258.242188 135.53125 257.625 135.492188 257 C 135.449219 256.375 135.441406 255.75 135.460938 255.125 C 135.480469 254.5 135.535156 253.878906 135.617188 253.257812 C 135.699219 252.640625 135.808594 252.023438 135.953125 251.414062 L 154.726562 171.242188 L 155.902344 166.230469 L 157.164062 160.796875 L 158.335938 155.78125 L 159.609375 150.355469 L 160.78125 145.34375 L 162.054688 139.90625 L 163.226562 134.894531 L 167.136719 118.1875 L 168.3125 113.191406 L 169.585938 107.765625 L 170.757812 102.753906 L 172.03125 97.324219 L 173.203125 92.308594 L 174.472656 86.882812 L 175.648438 81.871094 L 181.457031 57.089844 L 184.0625 45.949219 L 189.628906 22.1875 L 189.667969 22.019531 L 193.042969 7.59375 C 193.121094 7.277344 193.203125 6.964844 193.289062 6.65625 L 229.375 9.59375 L 280.796875 13.785156 L 288.578125 14.417969 L 291.820312 14.683594 L 357.261719 29.976562 L 361.664062 31.003906 C 362.765625 33.765625 363.191406 36.625 362.945312 39.582031 Z M 362.945312 39.582031 " fill-opacity="0.15" fill-rule="nonzero"/></g><path fill="#f5f6f1" d="M 357.679688 35.789062 L 337.296875 285.460938 C 337.246094 286.082031 337.167969 286.699219 337.054688 287.3125 C 336.941406 287.929688 336.800781 288.535156 336.628906 289.132812 C 336.460938 289.734375 336.257812 290.324219 336.03125 290.90625 C 335.800781 291.484375 335.542969 292.054688 335.257812 292.609375 C 334.972656 293.164062 334.660156 293.703125 334.324219 294.226562 C 333.984375 294.75 333.621094 295.257812 333.234375 295.746094 C 332.847656 296.234375 332.4375 296.703125 332 297.152344 C 331.566406 297.601562 331.113281 298.027344 330.636719 298.429688 C 330.160156 298.835938 329.664062 299.214844 329.152344 299.570312 C 328.640625 299.925781 328.109375 300.253906 327.5625 300.558594 C 327.019531 300.859375 326.460938 301.136719 325.886719 301.386719 C 325.3125 301.632812 324.730469 301.851562 324.136719 302.042969 C 323.539062 302.234375 322.9375 302.398438 322.328125 302.527344 C 321.71875 302.660156 321.101562 302.761719 320.480469 302.835938 C 319.863281 302.90625 319.238281 302.945312 318.613281 302.957031 C 317.992188 302.96875 317.367188 302.949219 316.746094 302.898438 L 298.292969 301.394531 L 295.519531 301.167969 L 248.601562 297.347656 L 134.53125 288.054688 C 133.90625 288.003906 133.289062 287.921875 132.675781 287.8125 C 132.058594 287.699219 131.453125 287.558594 130.851562 287.386719 C 130.25 287.214844 129.660156 287.015625 129.082031 286.789062 C 128.5 286.558594 127.929688 286.300781 127.375 286.015625 C 126.820312 285.730469 126.28125 285.421875 125.753906 285.082031 C 125.230469 284.746094 124.722656 284.382812 124.234375 283.996094 C 123.746094 283.605469 123.277344 283.195312 122.828125 282.761719 C 122.378906 282.328125 121.953125 281.875 121.546875 281.398438 C 121.144531 280.925781 120.761719 280.429688 120.40625 279.917969 C 120.050781 279.40625 119.722656 278.875 119.417969 278.332031 C 119.113281 277.785156 118.839844 277.226562 118.589844 276.65625 C 118.34375 276.082031 118.121094 275.5 117.929688 274.90625 C 117.738281 274.3125 117.578125 273.710938 117.445312 273.101562 C 117.3125 272.492188 117.210938 271.875 117.140625 271.257812 C 117.070312 270.636719 117.027344 270.015625 117.015625 269.390625 C 117.007812 268.769531 117.027344 268.144531 117.078125 267.523438 L 137.386719 18.664062 L 137.398438 18.496094 L 137.453125 17.851562 C 137.503906 17.230469 137.585938 16.613281 137.695312 16 C 137.808594 15.386719 137.949219 14.777344 138.121094 14.179688 C 138.292969 13.578125 138.492188 12.988281 138.722656 12.40625 C 138.949219 11.828125 139.207031 11.261719 139.492188 10.703125 C 139.777344 10.148438 140.089844 9.609375 140.425781 9.085938 C 140.765625 8.5625 141.128906 8.054688 141.515625 7.566406 C 141.90625 7.078125 142.316406 6.609375 142.75 6.160156 C 143.183594 5.710938 143.640625 5.285156 144.113281 4.882812 C 144.589844 4.476562 145.085938 4.097656 145.597656 3.742188 C 146.113281 3.386719 146.640625 3.058594 147.1875 2.753906 C 147.734375 2.453125 148.292969 2.175781 148.867188 1.929688 C 149.4375 1.679688 150.023438 1.460938 150.617188 1.269531 C 151.210938 1.078125 151.8125 0.917969 152.421875 0.785156 C 153.035156 0.652344 153.648438 0.550781 154.269531 0.480469 C 154.890625 0.40625 155.511719 0.367188 156.136719 0.355469 C 156.761719 0.347656 157.386719 0.367188 158.007812 0.417969 L 340.222656 15.257812 C 340.847656 15.308594 341.464844 15.390625 342.078125 15.5 C 342.695312 15.609375 343.300781 15.75 343.902344 15.921875 C 344.503906 16.09375 345.09375 16.292969 345.675781 16.523438 C 346.257812 16.75 346.824219 17.007812 347.382812 17.292969 C 347.9375 17.578125 348.476562 17.886719 349.003906 18.226562 C 349.527344 18.5625 350.035156 18.925781 350.527344 19.3125 C 351.015625 19.699219 351.484375 20.109375 351.933594 20.542969 C 352.382812 20.980469 352.808594 21.433594 353.214844 21.910156 C 353.617188 22.382812 354 22.878906 354.355469 23.390625 C 354.710938 23.90625 355.039062 24.433594 355.34375 24.980469 C 355.644531 25.523438 355.921875 26.082031 356.171875 26.65625 C 356.417969 27.226562 356.640625 27.8125 356.828125 28.40625 C 357.019531 29 357.183594 29.601562 357.3125 30.210938 C 357.445312 30.820312 357.546875 31.4375 357.617188 32.054688 C 357.691406 32.675781 357.730469 33.296875 357.742188 33.921875 C 357.75 34.546875 357.730469 35.167969 357.679688 35.789062 Z M 357.679688 35.789062 " fill-opacity="1" fill-rule="nonzero"/><path fill="#dadbd6" d="M 199.316406 27.609375 L 295.050781 35.40625 L 294.128906 46.679688 L 198.398438 38.882812 Z M 199.316406 27.609375 " fill-opacity="1" fill-rule="nonzero"/><path fill="#dadbd6" d="M 164.476562 44.351562 L 326.71875 57.5625 L 325.796875 68.835938 L 163.554688 55.625 Z M 164.476562 44.351562 " fill-opacity="1" fill-rule="nonzero"/><path fill="#dadbd6" d="M 161.507812 80.710938 L 287.492188 90.96875 L 287.078125 96.042969 L 161.09375 85.785156 Z M 161.507812 80.710938 " fill-opacity="1" fill-rule="nonzero"/><path fill="#dadbd6" d="M 160.648438 91.28125 L 322.890625 104.492188 L 322.476562 109.5625 L 160.234375 96.351562 Z M 160.648438 91.28125 " fill-opacity="1" fill-rule="nonzero"/><path fill="#dadbd6" d="M 159.785156 101.851562 L 322.027344 115.0625 L 321.613281 120.132812 L 159.371094 106.921875 Z M 159.785156 101.851562 " fill-opacity="1" fill-rule="nonzero"/><path fill="#dadbd6" d="M 158.921875 112.417969 L 284.90625 122.679688 L 284.492188 127.75 L 158.507812 117.492188 Z M 158.921875 112.417969 " fill-opacity="1" fill-rule="nonzero"/><path fill="#dadbd6" d="M 157.125 134.40625 L 283.109375 144.664062 L 282.695312 149.738281 L 156.710938 139.476562 Z M 157.125 134.40625 " fill-opacity="1" fill-rule="nonzero"/><path fill="#dadbd6" d="M 156.265625 144.976562 L 318.507812 158.183594 L 318.09375 163.257812 L 155.851562 150.046875 Z M 156.265625 144.976562 " fill-opacity="1" fill-rule="nonzero"/><path fill="#dadbd6" d="M 155.402344 155.546875 L 317.644531 168.753906 L 317.230469 173.828125 L 154.988281 160.617188 Z M 155.402344 155.546875 " fill-opacity="1" fill-rule="nonzero"/><path fill="#dadbd6" d="M 154.539062 166.113281 L 280.523438 176.371094 L 280.109375 181.445312 L 154.125 171.1875 Z M 154.539062 166.113281 " fill-opacity="1" fill-rule="nonzero"/><path fill="#dadbd6" d="M 147.03125 258.140625 L 216.441406 263.792969 L 216.15625 267.316406 L 146.742188 261.664062 Z M 147.03125 258.140625 " fill-opacity="1" fill-rule="nonzero"/><path fill="#dadbd6" d="M 148.191406 243.90625 L 242.859375 251.617188 L 242.132812 260.496094 L 147.46875 252.785156 Z M 148.191406 243.90625 " fill-opacity="1" fill-rule="nonzero"/><path fill="#595958" d="M 213.292969 238.128906 L 213.234375 238.128906 L 200.730469 237.136719 C 200.625 237.128906 200.527344 237.097656 200.433594 237.042969 C 200.339844 236.992188 200.265625 236.917969 200.203125 236.832031 C 200.144531 236.742188 200.105469 236.648438 200.089844 236.542969 C 200.074219 236.433594 200.078125 236.332031 200.109375 236.230469 C 200.253906 235.796875 200.25 235.367188 200.109375 234.933594 C 199.964844 234.503906 199.707031 234.15625 199.335938 233.898438 C 198.964844 233.636719 198.550781 233.507812 198.097656 233.519531 C 197.644531 233.53125 197.234375 233.675781 196.878906 233.953125 C 196.730469 234.058594 196.597656 234.175781 196.480469 234.308594 C 196.359375 234.816406 196.152344 235.28125 195.855469 235.707031 C 195.761719 235.839844 195.636719 235.929688 195.480469 235.976562 C 195.328125 236.023438 195.171875 236.019531 195.023438 235.960938 C 194.871094 235.902344 194.753906 235.804688 194.667969 235.667969 C 194.585938 235.527344 194.550781 235.378906 194.570312 235.21875 C 194.636719 234.667969 194.832031 234.164062 195.152344 233.710938 C 195.265625 232.867188 195.003906 231.980469 194.402344 231.433594 C 193.308594 230.445312 191.464844 230.699219 190.285156 231.441406 C 188.882812 232.320312 187.886719 233.847656 187.007812 235.199219 C 186.90625 235.363281 186.761719 235.46875 186.574219 235.515625 C 186.386719 235.5625 186.210938 235.535156 186.042969 235.4375 C 185.878906 235.335938 185.769531 235.195312 185.722656 235.007812 C 185.671875 234.820312 185.695312 234.644531 185.792969 234.476562 C 186.703125 232.800781 187.734375 230.894531 187.898438 228.929688 C 188.03125 227.273438 187.402344 225.144531 185.679688 224.386719 C 184.292969 223.78125 182.617188 224.214844 180.878906 224.75 C 180.394531 224.902344 179.902344 225.050781 179.417969 225.199219 C 177.960938 227.773438 176.222656 230.144531 174.207031 232.308594 C 173.3125 233.257812 172.207031 234.296875 170.808594 234.773438 C 170.230469 234.972656 169.640625 235.039062 169.035156 234.976562 C 168.429688 234.914062 167.867188 234.726562 167.34375 234.414062 C 166.921875 234.15625 166.574219 233.820312 166.300781 233.40625 C 166.03125 232.992188 165.863281 232.539062 165.800781 232.046875 C 165.621094 230.742188 166.164062 229.335938 167.253906 228.28125 C 168.050781 227.507812 169.109375 226.921875 170.585938 226.425781 C 172.648438 225.742188 174.765625 225.109375 176.816406 224.5 L 178.457031 224.007812 C 180.75 219.765625 182.089844 214.894531 179.820312 211.203125 C 178.582031 209.191406 176.070312 207.914062 173.097656 207.78125 C 166.707031 207.5 161.429688 212.078125 158.632812 216.460938 C 155.351562 221.582031 153.996094 227.644531 152.683594 233.507812 C 152.640625 233.699219 152.535156 233.847656 152.371094 233.953125 C 152.207031 234.058594 152.027344 234.089844 151.835938 234.046875 C 151.644531 234.003906 151.496094 233.898438 151.390625 233.734375 C 151.289062 233.570312 151.257812 233.390625 151.300781 233.199219 C 152.578125 227.5 154.023438 221.03125 157.4375 215.699219 C 160.453125 210.984375 166.171875 206.058594 173.167969 206.371094 C 176.605469 206.523438 179.546875 208.050781 181.03125 210.464844 C 182.910156 213.515625 182.851562 217.613281 180.863281 222.292969 C 180.703125 222.671875 180.53125 223.050781 180.347656 223.433594 L 180.46875 223.394531 C 181.988281 222.925781 184.277344 222.214844 186.261719 223.085938 C 188.621094 224.125 189.503906 226.902344 189.320312 229.042969 C 189.277344 229.558594 189.1875 230.070312 189.054688 230.570312 C 189.210938 230.453125 189.375 230.34375 189.542969 230.238281 C 191.203125 229.195312 193.738281 228.910156 195.363281 230.378906 C 195.988281 230.960938 196.375 231.667969 196.523438 232.507812 C 197.242188 232.125 198 232.007812 198.800781 232.164062 C 199.804688 232.386719 200.5625 232.945312 201.074219 233.835938 C 201.4375 234.433594 201.613281 235.082031 201.605469 235.78125 L 213.355469 236.710938 C 213.546875 236.71875 213.707031 236.796875 213.839844 236.941406 C 213.96875 237.082031 214.03125 237.25 214.023438 237.441406 C 214.015625 237.636719 213.941406 237.796875 213.800781 237.929688 C 213.660156 238.0625 213.492188 238.125 213.300781 238.121094 Z M 177.414062 225.796875 L 177.222656 225.855469 C 175.183594 226.464844 173.074219 227.09375 171.03125 227.769531 C 169.765625 228.1875 168.878906 228.671875 168.242188 229.292969 C 167.488281 230.023438 167.09375 231.003906 167.207031 231.851562 C 167.28125 232.449219 167.578125 232.902344 168.09375 233.207031 C 168.8125 233.625 169.5625 233.699219 170.351562 233.429688 C 171.453125 233.054688 172.359375 232.203125 173.171875 231.335938 C 174.761719 229.625 176.175781 227.78125 177.417969 225.800781 Z M 177.414062 225.796875 " fill-opacity="1" fill-rule="nonzero"/><path fill="#595958" d="M 303.628906 230.835938 C 302.773438 229.695312 301.832031 228.632812 300.796875 227.652344 C 298.738281 225.703125 296.414062 224.148438 293.820312 222.992188 C 291.230469 221.835938 288.519531 221.144531 285.691406 220.917969 C 271.976562 219.804688 259.953125 230.003906 258.835938 243.703125 C 257.71875 257.402344 267.925781 269.410156 281.640625 270.527344 C 282.828125 270.625 284.015625 270.636719 285.207031 270.5625 C 286.398438 270.488281 287.578125 270.332031 288.742188 270.085938 C 289.910156 269.84375 291.054688 269.519531 292.175781 269.113281 C 293.296875 268.707031 294.382812 268.222656 295.433594 267.65625 C 296.484375 267.09375 297.488281 266.460938 298.449219 265.753906 C 299.410156 265.046875 300.3125 264.273438 301.160156 263.4375 C 302.011719 262.601562 302.796875 261.710938 303.515625 260.761719 C 304.234375 259.8125 304.886719 258.816406 305.460938 257.773438 C 306.039062 256.730469 306.539062 255.652344 306.960938 254.539062 C 307.382812 253.425781 307.726562 252.285156 307.984375 251.125 C 308.242188 249.960938 308.417969 248.785156 308.507812 247.597656 C 308.597656 246.410156 308.601562 245.222656 308.519531 244.035156 C 308.4375 242.84375 308.273438 241.667969 308.023438 240.503906 C 307.773438 239.339844 307.441406 238.199219 307.027344 237.082031 C 306.613281 235.964844 306.121094 234.882812 305.550781 233.835938 C 304.984375 232.789062 304.339844 231.789062 303.628906 230.835938 Z M 304.214844 247.398438 C 304.121094 248.578125 303.921875 249.742188 303.628906 250.890625 C 303.519531 251.316406 303.394531 251.738281 303.257812 252.15625 C 303.121094 252.574219 302.972656 252.984375 302.808594 253.394531 C 302.644531 253.800781 302.46875 254.207031 302.28125 254.601562 C 302.089844 255 301.890625 255.390625 301.675781 255.773438 C 301.460938 256.160156 301.238281 256.535156 301 256.90625 C 300.761719 257.277344 300.511719 257.636719 300.25 257.992188 C 299.992188 258.347656 299.71875 258.691406 299.4375 259.027344 C 299.152344 259.367188 298.859375 259.691406 298.554688 260.011719 C 298.253906 260.328125 297.9375 260.636719 297.617188 260.9375 C 297.292969 261.234375 296.960938 261.523438 296.617188 261.800781 C 296.277344 262.078125 295.925781 262.34375 295.566406 262.597656 C 295.207031 262.851562 294.839844 263.09375 294.46875 263.328125 C 294.09375 263.558594 293.710938 263.777344 293.324219 263.984375 C 292.9375 264.191406 292.542969 264.386719 292.140625 264.570312 C 291.742188 264.75 291.335938 264.921875 290.921875 265.078125 C 290.511719 265.234375 290.09375 265.375 289.675781 265.503906 C 289.253906 265.636719 288.832031 265.75 288.402344 265.855469 C 287.972656 265.957031 287.542969 266.046875 287.109375 266.121094 C 286.675781 266.199219 286.242188 266.257812 285.804688 266.308594 C 285.367188 266.355469 284.925781 266.386719 284.488281 266.410156 C 284.046875 266.429688 283.609375 266.433594 283.167969 266.425781 C 282.726562 266.417969 282.289062 266.394531 281.851562 266.359375 C 281.410156 266.324219 280.972656 266.273438 280.539062 266.210938 C 280.101562 266.144531 279.671875 266.066406 279.238281 265.976562 C 278.808594 265.886719 278.382812 265.78125 277.957031 265.660156 C 277.535156 265.542969 277.113281 265.410156 276.699219 265.265625 C 276.285156 265.121094 275.875 264.960938 275.46875 264.789062 C 275.0625 264.617188 274.664062 264.433594 274.269531 264.238281 C 273.875 264.042969 273.488281 263.832031 273.109375 263.609375 C 272.730469 263.390625 272.355469 263.15625 271.992188 262.910156 C 271.625 262.664062 271.269531 262.410156 270.917969 262.140625 C 270.570312 261.875 270.230469 261.59375 269.898438 261.304688 C 269.566406 261.015625 269.246094 260.714844 268.933594 260.40625 C 268.621094 260.09375 268.320312 259.777344 268.027344 259.445312 C 267.734375 259.117188 267.457031 258.78125 267.183594 258.433594 C 266.914062 258.085938 266.65625 257.730469 266.410156 257.367188 C 266.160156 257.003906 265.925781 256.632812 265.703125 256.253906 C 265.476562 255.875 265.265625 255.488281 265.066406 255.097656 C 264.867188 254.707031 264.679688 254.308594 264.507812 253.902344 C 264.332031 253.5 264.171875 253.089844 264.023438 252.675781 C 263.875 252.261719 263.742188 251.84375 263.621094 251.421875 C 263.5 251 263.390625 250.574219 263.296875 250.144531 C 263.203125 249.714844 263.125 249.28125 263.058594 248.847656 C 262.992188 248.414062 262.9375 247.976562 262.898438 247.539062 C 262.859375 247.101562 262.835938 246.660156 262.824219 246.222656 C 262.816406 245.78125 262.816406 245.34375 262.835938 244.902344 C 262.851562 244.464844 262.882812 244.027344 262.929688 243.589844 C 262.976562 243.152344 263.035156 242.714844 263.105469 242.28125 C 263.179688 241.847656 263.265625 241.417969 263.367188 240.988281 C 263.46875 240.5625 263.582031 240.136719 263.710938 239.714844 C 263.835938 239.296875 263.976562 238.878906 264.132812 238.46875 C 264.285156 238.054688 264.453125 237.648438 264.632812 237.246094 C 264.8125 236.847656 265.007812 236.453125 265.210938 236.0625 C 265.417969 235.671875 265.632812 235.292969 265.863281 234.917969 C 266.09375 234.542969 266.335938 234.171875 266.585938 233.8125 C 266.839844 233.453125 267.105469 233.101562 267.378906 232.761719 C 267.65625 232.417969 267.941406 232.082031 268.238281 231.757812 C 268.535156 231.433594 268.839844 231.117188 269.160156 230.8125 C 269.476562 230.507812 269.800781 230.214844 270.136719 229.929688 C 270.472656 229.644531 270.816406 229.371094 271.167969 229.109375 C 271.523438 228.84375 271.882812 228.59375 272.253906 228.355469 C 272.621094 228.117188 273 227.886719 273.382812 227.671875 C 273.765625 227.457031 274.15625 227.253906 274.550781 227.0625 C 274.949219 226.871094 275.351562 226.691406 275.757812 226.527344 C 276.167969 226.363281 276.578125 226.210938 276.996094 226.070312 C 277.414062 225.933594 277.835938 225.808594 278.261719 225.695312 C 278.6875 225.582031 279.117188 225.484375 279.546875 225.398438 C 279.980469 225.3125 280.414062 225.242188 280.851562 225.1875 C 281.285156 225.128906 281.722656 225.085938 282.164062 225.054688 C 282.601562 225.027344 283.042969 225.011719 283.480469 225.007812 C 283.921875 225.007812 284.363281 225.019531 284.800781 225.046875 C 285.242188 225.074219 285.679688 225.113281 286.117188 225.167969 C 286.550781 225.222656 286.988281 225.289062 287.417969 225.371094 C 287.851562 225.453125 288.28125 225.550781 288.707031 225.660156 C 289.132812 225.769531 289.554688 225.890625 289.972656 226.027344 C 290.394531 226.164062 290.808594 226.3125 291.214844 226.476562 C 291.625 226.636719 292.027344 226.8125 292.425781 227.003906 C 292.824219 227.191406 293.214844 227.390625 293.601562 227.605469 C 293.984375 227.816406 294.363281 228.042969 294.734375 228.28125 C 295.105469 228.515625 295.46875 228.765625 295.820312 229.027344 C 296.175781 229.285156 296.523438 229.558594 296.859375 229.839844 C 297.199219 230.121094 297.527344 230.414062 297.84375 230.71875 C 298.164062 231.019531 298.472656 231.332031 298.769531 231.65625 C 299.070312 231.980469 299.359375 232.3125 299.636719 232.652344 C 299.914062 232.992188 300.179688 233.34375 300.4375 233.699219 C 300.691406 234.058594 300.933594 234.425781 301.167969 234.796875 C 301.398438 235.171875 301.621094 235.550781 301.828125 235.941406 C 302.035156 236.328125 302.230469 236.722656 302.414062 237.121094 C 302.59375 237.519531 302.765625 237.925781 302.921875 238.335938 C 303.078125 238.746094 303.222656 239.164062 303.351562 239.582031 C 303.484375 240.003906 303.601562 240.425781 303.703125 240.855469 C 303.808594 241.28125 303.898438 241.710938 303.972656 242.144531 C 304.050781 242.578125 304.109375 243.011719 304.160156 243.449219 C 304.207031 243.886719 304.242188 244.324219 304.261719 244.765625 C 304.28125 245.203125 304.289062 245.644531 304.28125 246.082031 C 304.273438 246.523438 304.25 246.960938 304.214844 247.398438 Z M 304.214844 247.398438 " fill-opacity="1" fill-rule="nonzero"/><path fill="#595958" d="M 300.796875 239.441406 C 300.539062 238.742188 300.242188 238.0625 299.902344 237.398438 C 299.566406 236.734375 299.1875 236.097656 298.769531 235.480469 C 298.351562 234.863281 297.898438 234.273438 297.410156 233.714844 C 296.921875 233.152344 296.398438 232.621094 295.84375 232.125 C 295.292969 231.628906 294.710938 231.164062 294.097656 230.738281 C 293.488281 230.3125 292.855469 229.925781 292.195312 229.574219 C 291.539062 229.226562 290.863281 228.917969 290.167969 228.648438 C 289.472656 228.382812 288.761719 228.160156 288.039062 227.980469 C 287.316406 227.796875 286.585938 227.664062 285.847656 227.570312 C 285.109375 227.480469 284.367188 227.433594 283.621094 227.433594 C 282.875 227.433594 282.132812 227.476562 281.394531 227.566406 C 280.65625 227.65625 279.921875 227.789062 279.199219 227.96875 C 278.476562 228.148438 277.769531 228.371094 277.070312 228.636719 C 276.375 228.902344 275.699219 229.207031 275.039062 229.554688 C 274.382812 229.902344 273.746094 230.289062 273.136719 230.714844 C 272.523438 231.140625 271.941406 231.601562 271.386719 232.097656 C 270.832031 232.59375 270.308594 233.121094 269.816406 233.683594 C 269.328125 234.242188 268.875 234.832031 268.453125 235.445312 C 268.035156 236.0625 267.65625 236.699219 267.316406 237.363281 C 266.976562 238.023438 266.675781 238.703125 266.417969 239.402344 C 266.160156 240.101562 265.949219 240.8125 265.777344 241.535156 C 265.605469 242.261719 265.480469 242.992188 265.398438 243.734375 C 265.320312 244.472656 265.28125 245.214844 265.292969 245.957031 C 265.300781 246.703125 265.355469 247.441406 265.457031 248.179688 C 265.558594 248.917969 265.703125 249.648438 265.890625 250.367188 C 266.078125 251.085938 266.3125 251.792969 266.585938 252.484375 C 266.863281 253.175781 267.179688 253.847656 267.535156 254.5 C 267.894531 255.152344 268.289062 255.78125 268.722656 256.386719 C 269.15625 256.992188 269.628906 257.566406 270.132812 258.113281 C 270.636719 258.660156 271.171875 259.175781 271.742188 259.65625 C 272.308594 260.140625 272.902344 260.585938 273.523438 260.996094 C 274.148438 261.40625 274.792969 261.773438 275.457031 262.105469 C 276.125 262.4375 276.8125 262.726562 277.511719 262.972656 C 278.214844 263.222656 278.929688 263.425781 279.660156 263.585938 C 280.386719 263.746094 281.121094 263.859375 281.863281 263.929688 C 282.601562 264.003906 283.347656 264.027344 284.089844 264.007812 C 284.835938 263.988281 285.578125 263.921875 286.3125 263.8125 C 287.050781 263.703125 287.777344 263.546875 288.496094 263.347656 C 289.210938 263.148438 289.914062 262.90625 290.605469 262.625 C 291.292969 262.339844 291.960938 262.011719 292.609375 261.648438 C 293.257812 261.28125 293.882812 260.875 294.480469 260.433594 C 295.082031 259.992188 295.648438 259.515625 296.191406 259.003906 C 296.730469 258.492188 297.238281 257.949219 297.714844 257.375 C 298.1875 256.800781 298.625 256.203125 299.027344 255.574219 C 299.429688 254.949219 299.789062 254.300781 300.113281 253.628906 C 300.433594 252.957031 300.714844 252.269531 300.953125 251.5625 C 301.191406 250.859375 301.382812 250.140625 301.535156 249.414062 C 301.683594 248.683594 301.789062 247.949219 301.851562 247.207031 C 302.070312 244.539062 301.71875 241.953125 300.796875 239.441406 Z M 298.375 246.925781 C 298.296875 247.890625 298.121094 248.835938 297.855469 249.769531 C 297.589844 250.699219 297.238281 251.59375 296.796875 252.457031 C 296.351562 253.316406 295.832031 254.128906 295.226562 254.886719 C 294.625 255.644531 293.957031 256.335938 293.21875 256.964844 C 292.480469 257.589844 291.6875 258.136719 290.839844 258.609375 C 289.992188 259.078125 289.109375 259.464844 288.183594 259.757812 C 287.261719 260.054688 286.320312 260.261719 285.359375 260.371094 C 284.394531 260.480469 283.429688 260.5 282.464844 260.417969 C 281.5 260.339844 280.550781 260.167969 279.617188 259.902344 C 278.6875 259.636719 277.789062 259.285156 276.925781 258.84375 C 276.066406 258.402344 275.253906 257.878906 274.496094 257.277344 C 273.734375 256.675781 273.042969 256.007812 272.414062 255.269531 C 271.789062 254.53125 271.238281 253.742188 270.765625 252.894531 C 270.296875 252.046875 269.910156 251.164062 269.613281 250.242188 C 269.316406 249.324219 269.113281 248.378906 269.003906 247.417969 C 268.890625 246.457031 268.875 245.496094 268.953125 244.53125 C 269.03125 243.566406 269.203125 242.617188 269.46875 241.6875 C 269.734375 240.753906 270.089844 239.859375 270.53125 238.996094 C 270.972656 238.136719 271.496094 237.328125 272.097656 236.566406 C 272.699219 235.808594 273.367188 235.117188 274.105469 234.488281 C 274.847656 233.863281 275.636719 233.3125 276.484375 232.84375 C 277.332031 232.371094 278.214844 231.988281 279.136719 231.691406 C 280.0625 231.394531 281.003906 231.191406 281.964844 231.078125 C 282.929688 230.96875 283.894531 230.953125 284.859375 231.03125 C 285.824219 231.109375 286.773438 231.28125 287.707031 231.542969 C 288.640625 231.808594 289.535156 232.164062 290.398438 232.605469 C 291.261719 233.046875 292.074219 233.566406 292.832031 234.167969 C 293.59375 234.769531 294.285156 235.441406 294.914062 236.179688 C 295.539062 236.917969 296.089844 237.707031 296.5625 238.554688 C 297.03125 239.402344 297.417969 240.285156 297.714844 241.207031 C 298.011719 242.128906 298.214844 243.070312 298.324219 244.03125 C 298.4375 244.996094 298.453125 245.957031 298.375 246.921875 Z M 298.375 246.925781 " fill-opacity="1" fill-rule="nonzero"/><path fill="#595958" d="M 276.515625 245.140625 L 271.902344 244.765625 C 271.964844 243.996094 272.105469 243.238281 272.316406 242.496094 C 272.53125 241.75 272.8125 241.035156 273.167969 240.347656 C 273.523438 239.65625 273.9375 239.011719 274.421875 238.40625 C 274.902344 237.796875 275.4375 237.246094 276.027344 236.746094 C 276.617188 236.242188 277.253906 235.804688 277.929688 235.429688 C 278.605469 235.050781 279.3125 234.746094 280.050781 234.507812 C 280.789062 234.269531 281.539062 234.105469 282.308594 234.015625 C 283.078125 233.929688 283.851562 233.914062 284.621094 233.976562 L 284.246094 238.585938 C 283.777344 238.546875 283.308594 238.554688 282.839844 238.609375 C 282.375 238.664062 281.914062 238.761719 281.46875 238.90625 C 281.019531 239.050781 280.589844 239.238281 280.179688 239.464844 C 279.765625 239.695312 279.382812 239.960938 279.023438 240.265625 C 278.664062 240.570312 278.339844 240.90625 278.046875 241.277344 C 277.753906 241.644531 277.5 242.039062 277.285156 242.457031 C 277.070312 242.875 276.898438 243.308594 276.765625 243.761719 C 276.636719 244.214844 276.554688 244.671875 276.515625 245.140625 Z M 276.515625 245.140625 " fill-opacity="1" fill-rule="nonzero"/><path fill="#595958" d="M 282.707031 257.472656 L 283.082031 252.867188 C 283.550781 252.902344 284.019531 252.894531 284.488281 252.839844 C 284.953125 252.785156 285.414062 252.6875 285.859375 252.542969 C 286.308594 252.398438 286.738281 252.210938 287.148438 251.984375 C 287.5625 251.753906 287.945312 251.488281 288.304688 251.183594 C 288.664062 250.878906 288.988281 250.542969 289.28125 250.175781 C 289.574219 249.804688 289.828125 249.414062 290.042969 248.992188 C 290.257812 248.574219 290.429688 248.140625 290.5625 247.6875 C 290.691406 247.234375 290.773438 246.773438 290.8125 246.304688 L 295.425781 246.683594 C 295.363281 247.453125 295.222656 248.210938 295.011719 248.953125 C 294.796875 249.699219 294.515625 250.414062 294.160156 251.101562 C 293.808594 251.792969 293.390625 252.4375 292.90625 253.042969 C 292.425781 253.652344 291.890625 254.203125 291.300781 254.707031 C 290.710938 255.207031 290.074219 255.644531 289.398438 256.019531 C 288.722656 256.398438 288.015625 256.703125 287.277344 256.941406 C 286.539062 257.179688 285.789062 257.34375 285.019531 257.433594 C 284.25 257.523438 283.476562 257.535156 282.707031 257.472656 Z M 282.707031 257.472656 " fill-opacity="1" fill-rule="nonzero"/><path fill="#595958" d="M 300.796875 72.691406 L 300.796875 287.992188 C 300.800781 290.445312 300.34375 292.8125 299.433594 295.089844 C 298.519531 297.367188 297.214844 299.394531 295.515625 301.167969 L 295.460938 301.226562 C 294.351562 302.378906 293.113281 303.378906 291.75 304.222656 L 270.695312 302.507812 L 248.597656 297.34375 L 134.527344 288.054688 C 133.90625 288.003906 133.285156 287.921875 132.671875 287.808594 C 132.058594 287.699219 131.449219 287.558594 130.851562 287.386719 C 130.25 287.214844 129.660156 287.015625 129.078125 286.785156 C 128.496094 286.558594 127.929688 286.300781 127.375 286.015625 C 126.820312 285.730469 126.277344 285.417969 125.753906 285.082031 C 125.230469 284.742188 124.722656 284.378906 124.234375 283.992188 C 123.742188 283.605469 123.273438 283.195312 122.824219 282.761719 C 122.378906 282.328125 121.949219 281.875 121.546875 281.398438 C 121.140625 280.921875 120.761719 280.429688 120.40625 279.914062 C 120.050781 279.402344 119.722656 278.875 119.417969 278.328125 C 119.113281 277.785156 118.839844 277.226562 118.589844 276.652344 C 118.34375 276.082031 118.121094 275.5 117.929688 274.90625 C 117.738281 274.3125 117.578125 273.710938 117.445312 273.097656 C 117.3125 272.488281 117.210938 271.875 117.140625 271.257812 C 117.070312 270.636719 117.027344 270.015625 117.015625 269.390625 C 117.007812 268.765625 117.027344 268.144531 117.078125 267.523438 L 137.386719 18.664062 L 137.398438 18.496094 L 153.617188 18.496094 C 155.601562 18.496094 157.535156 18.796875 159.425781 19.398438 C 161.3125 20 163.066406 20.875 164.679688 22.019531 L 279.988281 22.019531 C 281.015625 22.019531 282.03125 22.121094 283.039062 22.320312 C 284.046875 22.519531 285.027344 22.816406 285.976562 23.210938 C 286.925781 23.601562 287.828125 24.085938 288.679688 24.65625 C 289.535156 25.226562 290.324219 25.871094 291.050781 26.597656 C 291.777344 27.324219 292.425781 28.113281 292.996094 28.96875 C 293.570312 29.820312 294.050781 30.722656 294.445312 31.667969 C 294.835938 32.617188 295.132812 33.59375 295.332031 34.601562 C 295.535156 35.609375 295.632812 36.625 295.632812 37.652344 L 295.632812 59.640625 C 297.5625 61.691406 298.964844 64.054688 299.84375 66.730469 L 299.867188 66.796875 C 300.488281 68.710938 300.796875 70.675781 300.796875 72.691406 Z M 300.796875 72.691406 " fill-opacity="0.1" fill-rule="nonzero"/><path fill="#f5f6f1" d="M 289.972656 37.816406 L 289.972656 243.390625 C 289.972656 244.414062 289.875 245.433594 289.671875 246.4375 C 289.472656 247.445312 289.175781 248.421875 288.785156 249.371094 C 288.390625 250.320312 287.910156 251.222656 287.339844 252.074219 C 286.765625 252.929688 286.117188 253.71875 285.390625 254.445312 C 284.664062 255.167969 283.875 255.816406 283.019531 256.386719 C 282.167969 256.957031 281.265625 257.4375 280.316406 257.832031 C 279.367188 258.222656 278.386719 258.519531 277.378906 258.71875 C 276.371094 258.921875 275.351562 259.019531 274.324219 259.019531 L 124.292969 259.019531 C 123.265625 259.019531 122.246094 258.921875 121.238281 258.71875 C 120.230469 258.519531 119.253906 258.222656 118.304688 257.832031 C 117.355469 257.4375 116.453125 256.957031 115.597656 256.386719 C 114.742188 255.816406 113.953125 255.167969 113.226562 254.441406 C 112.5 253.714844 111.851562 252.925781 111.28125 252.074219 C 110.710938 251.21875 110.226562 250.320312 109.835938 249.371094 C 109.441406 248.421875 109.144531 247.445312 108.945312 246.4375 C 108.746094 245.433594 108.644531 244.414062 108.644531 243.390625 L 108.644531 37.816406 C 108.644531 36.789062 108.742188 35.773438 108.945312 34.765625 C 109.144531 33.761719 109.441406 32.78125 109.832031 31.835938 C 110.226562 30.886719 110.707031 29.984375 111.277344 29.132812 C 111.847656 28.277344 112.5 27.488281 113.226562 26.761719 C 113.953125 26.035156 114.742188 25.386719 115.597656 24.816406 C 116.449219 24.246094 117.351562 23.765625 118.300781 23.375 C 119.25 22.980469 120.230469 22.683594 121.238281 22.484375 C 122.246094 22.285156 123.265625 22.1875 124.292969 22.1875 L 274.324219 22.1875 C 275.351562 22.1875 276.371094 22.285156 277.378906 22.488281 C 278.386719 22.6875 279.363281 22.984375 280.3125 23.375 C 281.261719 23.769531 282.164062 24.25 283.019531 24.820312 C 283.875 25.390625 284.664062 26.039062 285.390625 26.765625 C 286.117188 27.488281 286.765625 28.28125 287.335938 29.132812 C 287.90625 29.984375 288.390625 30.886719 288.78125 31.835938 C 289.175781 32.785156 289.472656 33.761719 289.671875 34.769531 C 289.871094 35.773438 289.972656 36.789062 289.972656 37.816406 Z M 289.972656 37.816406 " fill-opacity="1" fill-rule="nonzero"/><path fill="#595958" d="M 289.972656 49.660156 L 289.972656 243.386719 C 289.972656 244.410156 289.871094 245.429688 289.671875 246.433594 C 289.472656 247.441406 289.175781 248.417969 288.78125 249.367188 C 288.390625 250.316406 287.90625 251.214844 287.335938 252.070312 C 286.765625 252.921875 286.117188 253.710938 285.390625 254.4375 C 284.664062 255.164062 283.875 255.8125 283.019531 256.382812 C 282.164062 256.953125 281.261719 257.433594 280.3125 257.828125 C 279.363281 258.21875 278.386719 258.515625 277.378906 258.714844 C 276.371094 258.914062 275.351562 259.015625 274.324219 259.015625 L 124.292969 259.015625 C 123.265625 259.015625 122.246094 258.917969 121.238281 258.714844 C 120.230469 258.515625 119.253906 258.21875 118.304688 257.828125 C 117.355469 257.433594 116.453125 256.953125 115.597656 256.382812 C 114.746094 255.8125 113.953125 255.164062 113.226562 254.441406 C 112.503906 253.714844 111.851562 252.925781 111.28125 252.070312 C 110.710938 251.21875 110.230469 250.316406 109.835938 249.371094 C 109.441406 248.421875 109.144531 247.445312 108.945312 246.4375 C 108.746094 245.433594 108.644531 244.414062 108.644531 243.390625 L 108.644531 37.816406 C 108.644531 36.789062 108.746094 35.773438 108.945312 34.769531 C 109.144531 33.761719 109.441406 32.785156 109.835938 31.835938 C 110.226562 30.886719 110.710938 29.984375 111.28125 29.132812 C 111.851562 28.28125 112.5 27.488281 113.226562 26.765625 C 113.953125 26.039062 114.742188 25.390625 115.597656 24.820312 C 116.453125 24.25 117.355469 23.769531 118.304688 23.375 C 119.253906 22.984375 120.230469 22.6875 121.238281 22.488281 C 122.246094 22.285156 123.265625 22.1875 124.292969 22.1875 L 168.527344 22.1875 C 168.582031 22.300781 168.636719 22.414062 168.6875 22.53125 L 174.484375 35.261719 C 174.859375 36.089844 175.296875 36.890625 175.789062 37.65625 C 176.28125 38.425781 176.824219 39.152344 177.421875 39.84375 C 178.019531 40.535156 178.664062 41.175781 179.351562 41.773438 C 180.039062 42.371094 180.769531 42.917969 181.535156 43.410156 C 182.304688 43.90625 183.101562 44.339844 183.933594 44.71875 C 184.761719 45.097656 185.617188 45.417969 186.492188 45.675781 C 187.367188 45.929688 188.257812 46.125 189.160156 46.253906 C 190.0625 46.382812 190.972656 46.449219 191.882812 46.449219 L 279.351562 46.449219 C 281.242188 46.445312 283.089844 46.71875 284.902344 47.265625 C 286.710938 47.8125 288.402344 48.613281 289.972656 49.660156 Z M 289.972656 49.660156 " fill-opacity="0.15" fill-rule="nonzero"/><path fill="#ffc247" d="M 295.136719 72.859375 L 295.136719 288.160156 C 295.136719 288.785156 295.105469 289.410156 295.042969 290.03125 C 294.980469 290.65625 294.890625 291.273438 294.769531 291.886719 C 294.644531 292.5 294.492188 293.105469 294.3125 293.703125 C 294.128906 294.300781 293.917969 294.890625 293.679688 295.46875 C 293.441406 296.046875 293.171875 296.609375 292.878906 297.160156 C 292.582031 297.714844 292.261719 298.25 291.914062 298.769531 C 291.566406 299.289062 291.195312 299.789062 290.796875 300.273438 C 290.398438 300.757812 289.980469 301.21875 289.535156 301.660156 C 289.09375 302.105469 288.628906 302.523438 288.148438 302.921875 C 287.664062 303.316406 287.160156 303.6875 286.640625 304.035156 C 286.121094 304.382812 285.582031 304.707031 285.03125 305 C 284.480469 305.292969 283.914062 305.5625 283.335938 305.800781 C 282.757812 306.039062 282.167969 306.25 281.570312 306.433594 C 280.96875 306.613281 280.363281 306.765625 279.75 306.886719 C 279.136719 307.007812 278.515625 307.101562 277.894531 307.164062 C 277.269531 307.222656 276.648438 307.253906 276.019531 307.253906 L 93.292969 307.253906 C 92.667969 307.253906 92.042969 307.222656 91.417969 307.164062 C 90.796875 307.101562 90.179688 307.007812 89.5625 306.886719 C 88.949219 306.765625 88.34375 306.613281 87.746094 306.433594 C 87.144531 306.25 86.558594 306.039062 85.980469 305.800781 C 85.398438 305.5625 84.835938 305.292969 84.28125 305 C 83.730469 304.707031 83.195312 304.382812 82.675781 304.035156 C 82.152344 303.6875 81.652344 303.316406 81.167969 302.921875 C 80.683594 302.523438 80.21875 302.105469 79.777344 301.660156 C 79.335938 301.21875 78.914062 300.757812 78.519531 300.273438 C 78.121094 299.789062 77.75 299.289062 77.398438 298.769531 C 77.050781 298.25 76.730469 297.714844 76.4375 297.160156 C 76.140625 296.609375 75.875 296.046875 75.632812 295.46875 C 75.394531 294.890625 75.183594 294.300781 75.003906 293.703125 C 74.820312 293.105469 74.667969 292.5 74.546875 291.886719 C 74.425781 291.273438 74.332031 290.65625 74.269531 290.03125 C 74.210938 289.410156 74.179688 288.785156 74.179688 288.160156 L 74.179688 37.757812 C 74.179688 37.433594 74.1875 37.113281 74.203125 36.789062 C 74.234375 36.1875 74.292969 35.585938 74.382812 34.984375 C 74.46875 34.386719 74.585938 33.792969 74.730469 33.207031 C 74.875 32.617188 75.046875 32.039062 75.246094 31.46875 C 75.445312 30.898438 75.671875 30.335938 75.925781 29.785156 C 76.179688 29.234375 76.457031 28.699219 76.761719 28.175781 C 77.0625 27.652344 77.394531 27.144531 77.746094 26.652344 C 78.097656 26.160156 78.472656 25.6875 78.871094 25.230469 C 79.265625 24.773438 79.683594 24.335938 80.125 23.917969 C 80.5625 23.5 81.019531 23.105469 81.496094 22.734375 C 81.976562 22.359375 82.46875 22.007812 82.976562 21.683594 C 83.488281 21.355469 84.011719 21.054688 84.550781 20.777344 C 85.089844 20.5 85.640625 20.25 86.203125 20.027344 C 86.765625 19.800781 87.335938 19.605469 87.917969 19.433594 C 88.5 19.265625 89.089844 19.121094 89.683594 19.007812 C 90.277344 18.894531 90.878906 18.808594 91.480469 18.75 C 92.082031 18.691406 92.6875 18.664062 93.292969 18.664062 L 147.957031 18.664062 C 149.941406 18.664062 151.875 18.964844 153.765625 19.566406 C 155.652344 20.164062 157.40625 21.039062 159.023438 22.1875 C 159.726562 22.6875 160.394531 23.230469 161.027344 23.820312 C 162.871094 25.546875 164.316406 27.554688 165.359375 29.851562 L 171.152344 42.578125 C 171.53125 43.410156 171.964844 44.207031 172.460938 44.976562 C 172.953125 45.742188 173.496094 46.472656 174.09375 47.160156 C 174.691406 47.851562 175.332031 48.496094 176.023438 49.09375 C 176.710938 49.691406 177.441406 50.234375 178.207031 50.730469 C 178.976562 51.222656 179.773438 51.660156 180.605469 52.039062 C 181.433594 52.417969 182.285156 52.734375 183.160156 52.992188 C 184.039062 53.25 184.925781 53.441406 185.832031 53.574219 C 186.734375 53.703125 187.640625 53.765625 188.554688 53.765625 L 276.019531 53.765625 C 276.648438 53.765625 277.269531 53.796875 277.894531 53.859375 C 278.515625 53.921875 279.136719 54.011719 279.75 54.132812 C 280.363281 54.257812 280.96875 54.40625 281.570312 54.589844 C 282.167969 54.769531 282.757812 54.980469 283.335938 55.21875 C 283.914062 55.460938 284.480469 55.726562 285.03125 56.023438 C 285.582031 56.316406 286.121094 56.636719 286.640625 56.984375 C 287.160156 57.332031 287.664062 57.703125 288.148438 58.101562 C 288.628906 58.496094 289.09375 58.917969 289.535156 59.359375 C 289.980469 59.800781 290.398438 60.265625 290.796875 60.746094 C 291.195312 61.230469 291.566406 61.734375 291.914062 62.253906 C 292.261719 62.773438 292.582031 63.308594 292.878906 63.859375 C 293.171875 64.410156 293.441406 64.976562 293.679688 65.554688 C 293.917969 66.132812 294.128906 66.71875 294.3125 67.316406 C 294.492188 67.917969 294.644531 68.523438 294.769531 69.136719 C 294.890625 69.75 294.980469 70.367188 295.042969 70.988281 C 295.105469 71.613281 295.136719 72.234375 295.136719 72.859375 Z M 295.136719 72.859375 " fill-opacity="1" fill-rule="nonzero"/><path fill="#595958" d="M 285.871094 304.53125 C 282.839844 306.351562 279.558594 307.261719 276.019531 307.257812 L 93.292969 307.257812 C 91.675781 307.257812 90.082031 307.054688 88.515625 306.652344 C 86.945312 306.246094 85.453125 305.65625 84.039062 304.871094 C 82.621094 304.089844 81.328125 303.140625 80.152344 302.027344 C 78.976562 300.917969 77.957031 299.675781 77.097656 298.304688 L 74.179688 239.433594 L 66.550781 85.539062 C 66.535156 85.210938 66.527344 84.890625 66.527344 84.570312 L 74.175781 83.039062 L 102.019531 77.460938 L 108.644531 76.136719 L 152.601562 67.332031 L 160.261719 65.796875 L 163.445312 65.15625 L 235.097656 61.613281 C 236.914062 63.964844 238.117188 66.59375 238.695312 69.507812 L 241.921875 85.566406 L 243.378906 92.820312 L 276.707031 258.839844 L 283.929688 294.859375 Z M 285.871094 304.53125 " fill-opacity="0.15" fill-rule="nonzero"/><path fill="#f5f6f1" d="M 27.09375 89.042969 L 213.933594 51.613281 C 214.910156 51.417969 215.898438 51.320312 216.898438 51.320312 C 217.894531 51.316406 218.886719 51.414062 219.863281 51.605469 C 220.84375 51.796875 221.792969 52.085938 222.714844 52.464844 C 223.640625 52.84375 224.515625 53.3125 225.347656 53.863281 C 226.175781 54.417969 226.945312 55.046875 227.652344 55.75 C 228.359375 56.453125 228.992188 57.21875 229.546875 58.046875 C 230.101562 58.875 230.574219 59.75 230.957031 60.667969 C 231.339844 61.589844 231.628906 62.539062 231.824219 63.515625 L 282.65625 316.699219 C 282.851562 317.679688 282.949219 318.664062 282.949219 319.664062 C 282.953125 320.660156 282.855469 321.648438 282.664062 322.625 C 282.46875 323.601562 282.183594 324.554688 281.804688 325.476562 C 281.421875 326.394531 280.957031 327.273438 280.402344 328.101562 C 279.851562 328.933594 279.222656 329.699219 278.515625 330.40625 C 277.8125 331.113281 277.042969 331.742188 276.214844 332.296875 C 275.386719 332.851562 274.511719 333.320312 273.589844 333.703125 C 272.667969 334.089844 271.71875 334.378906 270.738281 334.574219 L 83.902344 372.003906 C 82.925781 372.199219 81.9375 372.296875 80.9375 372.300781 C 79.941406 372.300781 78.949219 372.207031 77.972656 372.011719 C 76.992188 371.820312 76.042969 371.53125 75.117188 371.152344 C 74.195312 370.773438 73.320312 370.304688 72.488281 369.753906 C 71.65625 369.199219 70.890625 368.574219 70.183594 367.867188 C 69.476562 367.164062 68.84375 366.398438 68.289062 365.570312 C 67.734375 364.742188 67.261719 363.867188 66.878906 362.949219 C 66.496094 362.027344 66.207031 361.078125 66.011719 360.101562 L 15.179688 106.917969 C 14.984375 105.941406 14.886719 104.953125 14.882812 103.957031 C 14.882812 102.957031 14.980469 101.972656 15.171875 100.992188 C 15.363281 100.015625 15.652344 99.066406 16.03125 98.144531 C 16.414062 97.222656 16.878906 96.347656 17.433594 95.515625 C 17.984375 94.6875 18.613281 93.917969 19.320312 93.210938 C 20.023438 92.507812 20.789062 91.875 21.621094 91.320312 C 22.449219 90.765625 23.324219 90.296875 24.246094 89.914062 C 25.167969 89.53125 26.117188 89.242188 27.09375 89.042969 Z M 27.09375 89.042969 " fill-opacity="1" fill-rule="nonzero"/><path fill="#dadbd6" d="M 78.101562 103.054688 L 172.277344 84.1875 L 174.503906 95.28125 L 80.328125 114.148438 Z M 78.101562 103.054688 " fill-opacity="1" fill-rule="nonzero"/><path fill="#dadbd6" d="M 49.230469 128.742188 L 208.832031 96.765625 L 211.058594 107.859375 L 51.457031 139.832031 Z M 49.230469 128.742188 " fill-opacity="1" fill-rule="nonzero"/><path fill="#dadbd6" d="M 56.410156 164.507812 L 180.347656 139.679688 L 181.347656 144.671875 L 57.414062 169.5 Z M 56.410156 164.507812 " fill-opacity="1" fill-rule="nonzero"/><path fill="#dadbd6" d="M 58.5 174.90625 L 218.101562 142.933594 L 219.105469 147.921875 L 59.5 179.898438 Z M 58.5 174.90625 " fill-opacity="1" fill-rule="nonzero"/><path fill="#dadbd6" d="M 60.585938 185.304688 L 220.1875 153.332031 L 221.191406 158.324219 L 61.585938 190.296875 Z M 60.585938 185.304688 " fill-opacity="1" fill-rule="nonzero"/><path fill="#dadbd6" d="M 62.671875 195.703125 L 186.609375 170.875 L 187.609375 175.867188 L 63.675781 200.695312 Z M 62.671875 195.703125 " fill-opacity="1" fill-rule="nonzero"/><path fill="#dadbd6" d="M 67.015625 217.332031 L 190.949219 192.503906 L 191.953125 197.492188 L 68.015625 222.320312 Z M 67.015625 217.332031 " fill-opacity="1" fill-rule="nonzero"/><path fill="#dadbd6" d="M 69.101562 227.726562 L 228.707031 195.753906 L 229.707031 200.746094 L 70.105469 232.71875 Z M 69.101562 227.726562 " fill-opacity="1" fill-rule="nonzero"/><path fill="#dadbd6" d="M 71.191406 238.125 L 230.792969 206.152344 L 231.796875 211.144531 L 72.191406 243.117188 Z M 71.191406 238.125 " fill-opacity="1" fill-rule="nonzero"/><path fill="#dadbd6" d="M 73.277344 248.523438 L 197.214844 223.695312 L 198.214844 228.6875 L 74.28125 253.515625 Z M 73.277344 248.523438 " fill-opacity="1" fill-rule="nonzero"/><path fill="#dadbd6" d="M 91.453125 339.054688 L 159.734375 325.375 L 160.433594 328.839844 L 92.148438 342.519531 Z M 91.453125 339.054688 " fill-opacity="1" fill-rule="nonzero"/><path fill="#dadbd6" d="M 88.640625 325.050781 L 181.765625 306.394531 L 183.519531 315.128906 L 90.394531 333.785156 Z M 88.640625 325.050781 " fill-opacity="1" fill-rule="nonzero"/><path fill="#595958" d="M 89.378906 314.570312 C 89.191406 314.570312 89.027344 314.507812 88.894531 314.378906 C 88.757812 314.25 88.683594 314.09375 88.671875 313.910156 C 88.324219 308.074219 87.933594 301.457031 89.742188 295.390625 C 91.335938 290.03125 95.476562 283.722656 102.285156 282.09375 C 105.632812 281.296875 108.882812 281.960938 110.976562 283.863281 C 113.628906 286.285156 114.699219 290.230469 114.078125 295.28125 C 114.03125 295.6875 113.96875 296.101562 113.894531 296.519531 L 114.003906 296.449219 C 115.332031 295.578125 117.335938 294.265625 119.488281 294.558594 C 122.039062 294.90625 123.652344 297.332031 124.070312 299.4375 C 124.171875 299.949219 124.226562 300.460938 124.238281 300.980469 C 124.355469 300.824219 124.480469 300.675781 124.613281 300.527344 C 125.921875 299.066406 128.277344 298.09375 130.246094 299.058594 C 131.007812 299.445312 131.574219 300.019531 131.953125 300.785156 C 132.535156 300.214844 133.230469 299.894531 134.042969 299.824219 C 135.070312 299.765625 135.949219 300.09375 136.6875 300.804688 C 137.203125 301.28125 137.550781 301.855469 137.734375 302.53125 L 149.28125 300.191406 C 149.472656 300.152344 149.652344 300.1875 149.8125 300.292969 C 149.976562 300.402344 150.078125 300.550781 150.117188 300.742188 C 150.15625 300.933594 150.121094 301.113281 150.011719 301.273438 C 149.90625 301.4375 149.753906 301.539062 149.5625 301.578125 L 137.269531 304.066406 C 137.164062 304.085938 137.058594 304.085938 136.957031 304.058594 C 136.851562 304.03125 136.761719 303.984375 136.675781 303.917969 C 136.59375 303.847656 136.53125 303.765625 136.488281 303.667969 C 136.441406 303.574219 136.421875 303.472656 136.421875 303.363281 C 136.4375 302.910156 136.320312 302.496094 136.0625 302.121094 C 135.804688 301.746094 135.464844 301.484375 135.035156 301.335938 C 134.605469 301.183594 134.171875 301.179688 133.738281 301.3125 C 133.304688 301.449219 132.953125 301.699219 132.683594 302.066406 C 132.574219 302.207031 132.480469 302.355469 132.40625 302.515625 C 132.433594 303.035156 132.359375 303.539062 132.191406 304.03125 C 132.136719 304.183594 132.042969 304.304688 131.90625 304.394531 C 131.773438 304.484375 131.625 304.519531 131.460938 304.507812 C 131.300781 304.492188 131.160156 304.429688 131.042969 304.320312 C 130.921875 304.210938 130.851562 304.074219 130.824219 303.914062 C 130.734375 303.367188 130.78125 302.832031 130.964844 302.304688 C 130.84375 301.464844 130.347656 300.683594 129.613281 300.316406 C 128.285156 299.667969 126.589844 300.421875 125.660156 301.457031 C 124.554688 302.6875 124.019531 304.433594 123.546875 305.972656 C 123.492188 306.15625 123.378906 306.292969 123.214844 306.386719 C 123.046875 306.476562 122.871094 306.5 122.6875 306.453125 C 122.503906 306.402344 122.363281 306.296875 122.261719 306.136719 C 122.164062 305.972656 122.136719 305.796875 122.179688 305.613281 C 122.589844 303.757812 123.058594 301.636719 122.675781 299.699219 C 122.351562 298.070312 121.152344 296.199219 119.289062 295.945312 C 117.789062 295.742188 116.296875 296.621094 114.777344 297.617188 C 114.347656 297.894531 113.921875 298.175781 113.492188 298.453125 C 112.800781 301.328125 111.78125 304.085938 110.4375 306.71875 C 109.839844 307.882812 109.066406 309.179688 107.851562 310.023438 C 107.355469 310.375 106.804688 310.601562 106.207031 310.707031 C 105.605469 310.816406 105.011719 310.789062 104.425781 310.632812 C 103.945312 310.503906 103.519531 310.273438 103.144531 309.949219 C 102.769531 309.625 102.484375 309.234375 102.285156 308.777344 C 101.753906 307.570312 101.886719 306.070312 102.644531 304.757812 C 103.199219 303.796875 104.054688 302.9375 105.335938 302.0625 C 107.132812 300.835938 108.992188 299.644531 110.792969 298.492188 L 112.238281 297.566406 C 113.273438 292.855469 113.214844 287.804688 110.015625 284.882812 C 108.269531 283.292969 105.503906 282.753906 102.613281 283.441406 C 96.382812 284.933594 92.578125 290.785156 91.09375 295.773438 C 89.355469 301.609375 89.722656 307.804688 90.078125 313.808594 C 90.089844 314.003906 90.03125 314.171875 89.902344 314.320312 C 89.773438 314.464844 89.609375 314.542969 89.414062 314.554688 Z M 111.734375 299.597656 L 111.566406 299.703125 C 109.773438 300.851562 107.917969 302.035156 106.140625 303.25 C 105.042969 304 104.324219 304.707031 103.878906 305.484375 C 103.355469 306.394531 103.242188 307.445312 103.589844 308.226562 C 103.824219 308.78125 104.234375 309.132812 104.816406 309.289062 C 105.621094 309.492188 106.367188 309.355469 107.050781 308.878906 C 108.007812 308.21875 108.644531 307.148438 109.1875 306.09375 C 110.242188 304.011719 111.089844 301.84375 111.734375 299.597656 Z M 111.734375 299.597656 " fill-opacity="1" fill-rule="nonzero"/><path fill="#595958" d="M 214.46875 265.09375 C 200.976562 267.796875 192.234375 280.910156 194.9375 294.386719 C 197.644531 307.863281 210.773438 316.597656 224.261719 313.894531 C 237.753906 311.191406 246.496094 298.078125 243.792969 284.601562 C 241.085938 271.125 227.957031 262.390625 214.46875 265.09375 Z M 223.417969 309.6875 C 222.757812 309.820312 222.089844 309.921875 221.417969 309.988281 C 220.746094 310.054688 220.074219 310.089844 219.398438 310.089844 C 218.722656 310.09375 218.046875 310.058594 217.375 309.996094 C 216.703125 309.929688 216.035156 309.832031 215.375 309.703125 C 214.710938 309.570312 214.058594 309.40625 213.410156 309.214844 C 212.765625 309.019531 212.128906 308.792969 211.503906 308.535156 C 210.878906 308.277344 210.269531 307.992188 209.671875 307.671875 C 209.078125 307.355469 208.5 307.011719 207.9375 306.636719 C 207.375 306.261719 206.832031 305.863281 206.308594 305.4375 C 205.785156 305.007812 205.285156 304.558594 204.808594 304.082031 C 204.328125 303.605469 203.875 303.105469 203.445312 302.585938 C 203.015625 302.0625 202.613281 301.523438 202.238281 300.964844 C 201.863281 300.402344 201.515625 299.824219 201.195312 299.230469 C 200.875 298.636719 200.585938 298.027344 200.328125 297.40625 C 200.070312 296.78125 199.839844 296.148438 199.644531 295.503906 C 199.445312 294.859375 199.28125 294.203125 199.148438 293.542969 C 199.015625 292.882812 198.914062 292.214844 198.847656 291.542969 C 198.78125 290.871094 198.746094 290.199219 198.746094 289.523438 C 198.746094 288.851562 198.777344 288.175781 198.84375 287.507812 C 198.90625 286.835938 199.003906 286.167969 199.136719 285.507812 C 199.265625 284.84375 199.429688 284.191406 199.625 283.542969 C 199.820312 282.898438 200.046875 282.265625 200.304688 281.640625 C 200.5625 281.015625 200.847656 280.40625 201.167969 279.8125 C 201.484375 279.214844 201.828125 278.636719 202.203125 278.078125 C 202.578125 277.515625 202.980469 276.972656 203.40625 276.449219 C 203.835938 275.929688 204.285156 275.429688 204.761719 274.953125 C 205.238281 274.472656 205.738281 274.019531 206.261719 273.589844 C 206.78125 273.164062 207.324219 272.761719 207.882812 272.386719 C 208.445312 272.007812 209.023438 271.660156 209.617188 271.34375 C 210.210938 271.023438 210.820312 270.734375 211.445312 270.476562 C 212.070312 270.21875 212.703125 269.988281 213.351562 269.792969 C 213.996094 269.59375 214.648438 269.429688 215.3125 269.296875 C 215.972656 269.164062 216.640625 269.066406 217.3125 269 C 217.984375 268.929688 218.660156 268.898438 219.332031 268.894531 C 220.007812 268.894531 220.683594 268.925781 221.355469 268.992188 C 222.027344 269.058594 222.695312 269.15625 223.355469 269.285156 C 224.019531 269.417969 224.675781 269.578125 225.320312 269.773438 C 225.96875 269.96875 226.601562 270.195312 227.226562 270.453125 C 227.851562 270.707031 228.460938 270.996094 229.058594 271.3125 C 229.652344 271.628906 230.234375 271.976562 230.792969 272.347656 C 231.355469 272.722656 231.898438 273.125 232.421875 273.550781 C 232.945312 273.976562 233.445312 274.429688 233.921875 274.90625 C 234.402344 275.382812 234.855469 275.882812 235.285156 276.402344 C 235.714844 276.921875 236.117188 277.464844 236.492188 278.023438 C 236.867188 278.582031 237.214844 279.160156 237.535156 279.753906 C 237.855469 280.351562 238.144531 280.957031 238.402344 281.582031 C 238.664062 282.203125 238.890625 282.839844 239.089844 283.484375 C 239.285156 284.128906 239.449219 284.78125 239.582031 285.445312 C 239.714844 286.105469 239.816406 286.773438 239.882812 287.441406 C 239.949219 288.113281 239.984375 288.785156 239.984375 289.460938 C 239.988281 290.136719 239.953125 290.808594 239.890625 291.480469 C 239.824219 292.152344 239.726562 292.820312 239.597656 293.480469 C 239.464844 294.144531 239.300781 294.796875 239.105469 295.441406 C 238.910156 296.089844 238.6875 296.722656 238.429688 297.347656 C 238.171875 297.96875 237.882812 298.582031 237.566406 299.175781 C 237.25 299.769531 236.902344 300.351562 236.527344 300.910156 C 236.152344 301.472656 235.753906 302.015625 235.324219 302.535156 C 234.898438 303.058594 234.445312 303.558594 233.96875 304.035156 C 233.492188 304.515625 232.992188 304.96875 232.472656 305.398438 C 231.949219 305.824219 231.410156 306.226562 230.847656 306.601562 C 230.285156 306.980469 229.710938 307.328125 229.113281 307.644531 C 228.519531 307.964844 227.910156 308.253906 227.285156 308.511719 C 226.664062 308.769531 226.027344 309 225.382812 309.195312 C 224.734375 309.394531 224.082031 309.558594 223.417969 309.691406 Z M 223.417969 309.6875 " fill-opacity="1" fill-rule="nonzero"/><path fill="#595958" d="M 215.777344 271.625 C 215.191406 271.742188 214.613281 271.886719 214.042969 272.0625 C 213.46875 272.234375 212.90625 272.4375 212.355469 272.664062 C 211.804688 272.894531 211.265625 273.152344 210.738281 273.433594 C 210.210938 273.714844 209.699219 274.023438 209.203125 274.355469 C 208.707031 274.6875 208.230469 275.042969 207.769531 275.421875 C 207.308594 275.800781 206.863281 276.203125 206.441406 276.625 C 206.019531 277.050781 205.621094 277.492188 205.242188 277.953125 C 204.863281 278.414062 204.511719 278.894531 204.179688 279.390625 C 203.847656 279.890625 203.542969 280.402344 203.261719 280.925781 C 202.980469 281.453125 202.726562 281.992188 202.496094 282.546875 C 202.269531 283.097656 202.070312 283.660156 201.898438 284.230469 C 201.722656 284.800781 201.582031 285.382812 201.464844 285.964844 C 201.347656 286.550781 201.261719 287.140625 201.203125 287.734375 C 201.148438 288.332031 201.117188 288.925781 201.121094 289.523438 C 201.121094 290.121094 201.152344 290.714844 201.210938 291.308594 C 201.269531 291.902344 201.359375 292.492188 201.476562 293.078125 C 201.59375 293.664062 201.738281 294.242188 201.914062 294.8125 C 202.089844 295.382812 202.289062 295.945312 202.519531 296.496094 C 202.75 297.046875 203.003906 297.585938 203.289062 298.113281 C 203.570312 298.636719 203.878906 299.148438 204.210938 299.644531 C 204.542969 300.140625 204.898438 300.617188 205.28125 301.078125 C 205.660156 301.539062 206.0625 301.980469 206.484375 302.402344 C 206.90625 302.824219 207.351562 303.222656 207.8125 303.601562 C 208.273438 303.980469 208.753906 304.335938 209.253906 304.664062 C 209.75 304.996094 210.261719 305.300781 210.789062 305.582031 C 211.316406 305.863281 211.859375 306.117188 212.410156 306.34375 C 212.960938 306.570312 213.523438 306.773438 214.097656 306.945312 C 214.667969 307.117188 215.246094 307.261719 215.835938 307.375 C 216.421875 307.492188 217.011719 307.578125 217.605469 307.636719 C 218.199219 307.691406 218.796875 307.722656 219.394531 307.722656 C 219.992188 307.71875 220.589844 307.691406 221.183594 307.628906 C 221.777344 307.570312 222.367188 307.480469 222.953125 307.363281 C 223.539062 307.246094 224.117188 307.101562 224.691406 306.925781 C 225.261719 306.753906 225.824219 306.550781 226.375 306.324219 C 226.925781 306.09375 227.464844 305.835938 227.992188 305.554688 C 228.519531 305.273438 229.03125 304.964844 229.527344 304.632812 C 230.023438 304.300781 230.5 303.945312 230.964844 303.566406 C 231.425781 303.1875 231.867188 302.785156 232.289062 302.363281 C 232.710938 301.9375 233.109375 301.496094 233.488281 301.035156 C 233.867188 300.574219 234.222656 300.09375 234.554688 299.597656 C 234.882812 299.101562 235.191406 298.589844 235.472656 298.0625 C 235.75 297.535156 236.007812 296.996094 236.234375 296.441406 C 236.460938 295.890625 236.660156 295.328125 236.835938 294.757812 C 237.007812 294.1875 237.152344 293.609375 237.265625 293.023438 C 237.382812 292.4375 237.46875 291.847656 237.527344 291.253906 C 237.585938 290.660156 237.613281 290.0625 237.613281 289.464844 C 237.609375 288.867188 237.582031 288.273438 237.519531 287.679688 C 237.460938 287.085938 237.375 286.496094 237.257812 285.910156 C 237.136719 285.324219 236.992188 284.746094 236.816406 284.175781 C 236.644531 283.605469 236.441406 283.042969 236.210938 282.492188 C 235.984375 281.941406 235.726562 281.402344 235.445312 280.875 C 235.160156 280.351562 234.855469 279.839844 234.519531 279.34375 C 234.1875 278.847656 233.832031 278.371094 233.453125 277.910156 C 233.074219 277.449219 232.671875 277.007812 232.246094 276.585938 C 231.824219 276.164062 231.382812 275.765625 230.917969 275.386719 C 230.457031 275.007812 229.976562 274.652344 229.480469 274.324219 C 228.980469 273.992188 228.46875 273.6875 227.941406 273.40625 C 227.414062 273.125 226.875 272.871094 226.320312 272.644531 C 225.769531 272.417969 225.207031 272.214844 224.636719 272.042969 C 224.0625 271.871094 223.484375 271.726562 222.898438 271.613281 C 222.3125 271.496094 221.71875 271.410156 221.125 271.351562 C 220.53125 271.292969 219.933594 271.265625 219.335938 271.265625 C 218.738281 271.269531 218.144531 271.296875 217.546875 271.359375 C 216.953125 271.417969 216.363281 271.503906 215.777344 271.625 Z M 222.265625 303.949219 C 221.316406 304.140625 220.355469 304.238281 219.386719 304.238281 C 218.417969 304.238281 217.460938 304.148438 216.507812 303.960938 C 215.558594 303.773438 214.632812 303.492188 213.738281 303.125 C 212.84375 302.753906 211.992188 302.300781 211.183594 301.765625 C 210.378906 301.230469 209.632812 300.621094 208.945312 299.9375 C 208.257812 299.253906 207.644531 298.507812 207.105469 297.703125 C 206.566406 296.902344 206.109375 296.050781 205.738281 295.15625 C 205.367188 294.265625 205.085938 293.34375 204.894531 292.394531 C 204.703125 291.445312 204.609375 290.484375 204.605469 289.515625 C 204.605469 288.550781 204.699219 287.589844 204.886719 286.640625 C 205.074219 285.691406 205.351562 284.769531 205.722656 283.875 C 206.089844 282.980469 206.542969 282.128906 207.082031 281.324219 C 207.617188 280.515625 208.230469 279.769531 208.914062 279.085938 C 209.597656 278.398438 210.34375 277.789062 211.148438 277.25 C 211.953125 276.710938 212.800781 276.253906 213.695312 275.882812 C 214.589844 275.511719 215.511719 275.230469 216.464844 275.039062 C 217.414062 274.847656 218.375 274.753906 219.34375 274.75 C 220.3125 274.75 221.273438 274.84375 222.222656 275.03125 C 223.171875 275.21875 224.097656 275.496094 224.992188 275.863281 C 225.886719 276.234375 226.738281 276.6875 227.546875 277.222656 C 228.351562 277.761719 229.097656 278.371094 229.785156 279.054688 C 230.472656 279.738281 231.085938 280.480469 231.625 281.285156 C 232.164062 282.089844 232.621094 282.9375 232.992188 283.832031 C 233.363281 284.726562 233.644531 285.648438 233.835938 286.597656 C 234.027344 287.546875 234.125 288.503906 234.125 289.472656 C 234.125 290.441406 234.03125 291.398438 233.84375 292.347656 C 233.65625 293.296875 233.378906 294.21875 233.011719 295.117188 C 232.640625 296.011719 232.1875 296.859375 231.648438 297.667969 C 231.113281 298.472656 230.503906 299.21875 229.816406 299.902344 C 229.132812 300.589844 228.390625 301.203125 227.585938 301.742188 C 226.777344 302.28125 225.929688 302.734375 225.035156 303.105469 C 224.140625 303.480469 223.21875 303.761719 222.265625 303.949219 Z M 222.265625 303.949219 " fill-opacity="1" fill-rule="nonzero"/><path fill="#595958" d="M 212.332031 290.902344 L 207.792969 291.8125 C 207.644531 291.054688 207.566406 290.289062 207.566406 289.511719 C 207.566406 288.738281 207.640625 287.972656 207.792969 287.214844 C 207.941406 286.453125 208.164062 285.71875 208.460938 285.003906 C 208.753906 284.289062 209.117188 283.609375 209.546875 282.964844 C 209.976562 282.320312 210.464844 281.722656 211.011719 281.175781 C 211.558594 280.625 212.152344 280.136719 212.796875 279.707031 C 213.441406 279.273438 214.117188 278.910156 214.832031 278.613281 C 215.546875 278.316406 216.285156 278.089844 217.046875 277.9375 L 217.953125 282.46875 C 217.492188 282.5625 217.042969 282.699219 216.609375 282.878906 C 216.175781 283.058594 215.761719 283.28125 215.371094 283.542969 C 214.980469 283.804688 214.617188 284.105469 214.285156 284.4375 C 213.953125 284.769531 213.65625 285.132812 213.398438 285.523438 C 213.136719 285.917969 212.914062 286.328125 212.734375 286.765625 C 212.554688 287.199219 212.421875 287.648438 212.328125 288.109375 C 212.238281 288.570312 212.191406 289.035156 212.191406 289.507812 C 212.191406 289.976562 212.238281 290.441406 212.332031 290.902344 Z M 212.332031 290.902344 " fill-opacity="1" fill-rule="nonzero"/><path fill="#595958" d="M 221.6875 301.054688 L 220.777344 296.519531 C 221.238281 296.429688 221.6875 296.289062 222.121094 296.109375 C 222.554688 295.929688 222.96875 295.707031 223.359375 295.445312 C 223.75 295.183594 224.113281 294.886719 224.445312 294.550781 C 224.777344 294.21875 225.074219 293.855469 225.332031 293.464844 C 225.59375 293.074219 225.816406 292.660156 225.996094 292.226562 C 226.175781 291.789062 226.308594 291.34375 226.402344 290.882812 C 226.492188 290.421875 226.539062 289.953125 226.539062 289.484375 C 226.539062 289.011719 226.492188 288.546875 226.398438 288.085938 L 230.9375 287.179688 C 231.085938 287.9375 231.164062 288.703125 231.164062 289.476562 C 231.164062 290.25 231.089844 291.015625 230.9375 291.777344 C 230.789062 292.535156 230.566406 293.273438 230.269531 293.988281 C 229.976562 294.703125 229.613281 295.382812 229.183594 296.027344 C 228.753906 296.671875 228.265625 297.265625 227.71875 297.816406 C 227.171875 298.363281 226.578125 298.851562 225.933594 299.285156 C 225.292969 299.714844 224.613281 300.078125 223.898438 300.375 C 223.183594 300.675781 222.445312 300.898438 221.6875 301.054688 Z M 221.6875 301.054688 " fill-opacity="1" fill-rule="nonzero"/></svg>