<svg xmlns="http://www.w3.org/2000/svg" xmlns:xlink="http://www.w3.org/1999/xlink" width="1080" zoomAndPan="magnify" viewBox="0 0 810 809.999993" height="1080" preserveAspectRatio="xMidYMid meet" version="1.2"><defs><clipPath id="21d349f1d2"><path d="M 483.964844 122.015625 L 486.835938 122.015625 L 486.835938 124.453125 L 483.964844 124.453125 Z M 483.964844 122.015625 "/></clipPath><clipPath id="2b28510cb6"><path d="M 486.824219 122.851562 C 485.550781 124.875 484.351562 124.5 484.125 124.125 C 483.824219 123.675781 484.050781 122.476562 484.425781 122.175781 C 484.875 121.800781 486.449219 122.25 486.449219 122.25 "/></clipPath></defs><g id="9fdab70a75"><g clip-rule="nonzero" clip-path="url(#21d349f1d2)"><g clip-rule="nonzero" clip-path="url(#2b28510cb6)"><path style=" stroke:none;fill-rule:nonzero;fill:#ffffff;fill-opacity:1;" d="M 481.125 119.175781 L 489.910156 119.175781 L 489.910156 127.726562 L 481.125 127.726562 Z M 481.125 119.175781 "/></g></g><path style=" stroke:none;fill-rule:nonzero;fill:#ff751f;fill-opacity:1;" d="M 810.019531 405.058594 C 810.019531 411.6875 809.859375 418.3125 809.53125 424.929688 C 809.207031 431.550781 808.71875 438.160156 808.070312 444.757812 C 807.421875 451.351562 806.609375 457.929688 805.636719 464.488281 C 804.664062 471.042969 803.53125 477.574219 802.238281 484.074219 C 800.945312 490.574219 799.492188 497.039062 797.882812 503.46875 C 796.273438 509.898438 794.503906 516.285156 792.578125 522.628906 C 790.65625 528.972656 788.578125 535.265625 786.34375 541.503906 C 784.109375 547.746094 781.726562 553.929688 779.191406 560.050781 C 776.652344 566.175781 773.96875 572.234375 771.132812 578.226562 C 768.300781 584.21875 765.320312 590.136719 762.195312 595.984375 C 759.070312 601.828125 755.804688 607.59375 752.398438 613.28125 C 748.988281 618.964844 745.445312 624.5625 741.761719 630.074219 C 738.078125 635.585938 734.265625 641.003906 730.316406 646.328125 C 726.367188 651.652344 722.289062 656.875 718.085938 662 C 713.878906 667.125 709.550781 672.140625 705.101562 677.054688 C 700.648438 681.964844 696.078125 686.761719 691.390625 691.449219 C 686.707031 696.136719 681.90625 700.707031 676.996094 705.160156 C 672.082031 709.609375 667.066406 713.9375 661.941406 718.144531 C 656.816406 722.347656 651.59375 726.425781 646.269531 730.375 C 640.945312 734.320312 635.527344 738.136719 630.015625 741.820312 C 624.503906 745.503906 618.90625 749.046875 613.222656 752.457031 C 607.535156 755.863281 601.769531 759.128906 595.925781 762.253906 C 590.078125 765.378906 584.160156 768.359375 578.167969 771.191406 C 572.175781 774.027344 566.117188 776.710938 559.996094 779.246094 C 553.871094 781.785156 547.6875 784.167969 541.445312 786.402344 C 535.207031 788.636719 528.914062 790.714844 522.570312 792.636719 C 516.226562 794.5625 509.839844 796.328125 503.410156 797.941406 C 496.980469 799.550781 490.515625 801.003906 484.015625 802.296875 C 477.515625 803.589844 470.984375 804.722656 464.429688 805.695312 C 457.871094 806.667969 451.296875 807.476562 444.699219 808.128906 C 438.101562 808.777344 431.492188 809.265625 424.875 809.589844 C 418.253906 809.914062 411.628906 810.078125 405 810.078125 C 398.371094 810.078125 391.746094 809.914062 385.125 809.589844 C 378.507812 809.265625 371.898438 808.777344 365.300781 808.128906 C 358.703125 807.476562 352.128906 806.667969 345.570312 805.695312 C 339.015625 804.722656 332.484375 803.589844 325.984375 802.296875 C 319.484375 801.003906 313.019531 799.550781 306.589844 797.941406 C 300.160156 796.328125 293.773438 794.5625 287.429688 792.636719 C 281.085938 790.714844 274.792969 788.636719 268.554688 786.402344 C 262.3125 784.167969 256.128906 781.785156 250.003906 779.246094 C 243.882812 776.710938 237.824219 774.027344 231.832031 771.191406 C 225.839844 768.359375 219.921875 765.378906 214.074219 762.253906 C 208.230469 759.128906 202.464844 755.863281 196.777344 752.457031 C 191.09375 749.046875 185.492188 745.503906 179.984375 741.820312 C 174.472656 738.136719 169.054688 734.320312 163.730469 730.375 C 158.40625 726.425781 153.183594 722.347656 148.058594 718.144531 C 142.933594 713.9375 137.917969 709.609375 133.003906 705.160156 C 128.09375 700.707031 123.292969 696.136719 118.609375 691.449219 C 113.921875 686.761719 109.351562 681.964844 104.898438 677.054688 C 100.449219 672.140625 96.121094 667.125 91.914062 662 C 87.710938 656.875 83.632812 651.652344 79.683594 646.328125 C 75.734375 641.003906 71.921875 635.585938 68.238281 630.074219 C 64.554688 624.5625 61.011719 618.964844 57.601562 613.28125 C 54.195312 607.59375 50.929688 601.828125 47.804688 595.984375 C 44.679688 590.136719 41.699219 584.21875 38.867188 578.226562 C 36.03125 572.234375 33.347656 566.175781 30.808594 560.050781 C 28.273438 553.929688 25.886719 547.746094 23.65625 541.503906 C 21.421875 535.265625 19.34375 528.972656 17.417969 522.628906 C 15.496094 516.285156 13.726562 509.898438 12.117188 503.46875 C 10.507812 497.039062 9.054688 490.574219 7.761719 484.074219 C 6.46875 477.574219 5.335938 471.042969 4.363281 464.488281 C 3.390625 457.929688 2.578125 451.355469 1.929688 444.757812 C 1.28125 438.160156 0.792969 431.550781 0.46875 424.929688 C 0.140625 418.3125 -0.0195312 411.6875 -0.0195312 405.058594 C -0.0195312 398.429688 0.140625 391.804688 0.46875 385.183594 C 0.792969 378.5625 1.28125 371.957031 1.929688 365.359375 C 2.578125 358.761719 3.390625 352.1875 4.363281 345.628906 C 5.335938 339.074219 6.46875 332.542969 7.761719 326.042969 C 9.054688 319.542969 10.507812 313.074219 12.117188 306.644531 C 13.726562 300.214844 15.496094 293.828125 17.417969 287.488281 C 19.34375 281.144531 21.421875 274.851562 23.65625 268.609375 C 25.886719 262.371094 28.273438 256.1875 30.808594 250.0625 C 33.347656 243.941406 36.03125 237.882812 38.867188 231.890625 C 41.699219 225.898438 44.679688 219.980469 47.804688 214.132812 C 50.929688 208.289062 54.195312 202.523438 57.601562 196.835938 C 61.011719 191.152344 64.554688 185.550781 68.238281 180.039062 C 71.921875 174.53125 75.734375 169.113281 79.683594 163.789062 C 83.632812 158.464844 87.710938 153.238281 91.914062 148.117188 C 96.121094 142.992188 100.449219 137.972656 104.898438 133.0625 C 109.351562 128.152344 113.921875 123.351562 118.609375 118.664062 C 123.292969 113.980469 128.09375 109.410156 133.003906 104.957031 C 137.917969 100.507812 142.933594 96.179688 148.058594 91.972656 C 153.183594 87.769531 158.40625 83.691406 163.730469 79.742188 C 169.054688 75.792969 174.472656 71.980469 179.984375 68.296875 C 185.496094 64.613281 191.09375 61.070312 196.777344 57.660156 C 202.464844 54.253906 208.230469 50.988281 214.074219 47.863281 C 219.921875 44.738281 225.839844 41.757812 231.832031 38.925781 C 237.824219 36.089844 243.882812 33.40625 250.003906 30.867188 C 256.128906 28.332031 262.3125 25.945312 268.554688 23.714844 C 274.792969 21.480469 281.085938 19.402344 287.429688 17.476562 C 293.773438 15.554688 300.160156 13.785156 306.589844 12.175781 C 313.019531 10.566406 319.484375 9.113281 325.984375 7.820312 C 332.484375 6.527344 339.015625 5.394531 345.570312 4.421875 C 352.128906 3.449219 358.703125 2.636719 365.300781 1.988281 C 371.898438 1.339844 378.507812 0.851562 385.125 0.527344 C 391.746094 0.199219 398.371094 0.0390625 405 0.0390625 C 411.628906 0.0390625 418.253906 0.199219 424.875 0.527344 C 431.492188 0.851562 438.101562 1.339844 444.699219 1.988281 C 451.296875 2.636719 457.871094 3.449219 464.429688 4.421875 C 470.984375 5.394531 477.515625 6.527344 484.015625 7.820312 C 490.515625 9.113281 496.980469 10.566406 503.410156 12.175781 C 509.839844 13.785156 516.226562 15.554688 522.570312 17.476562 C 528.914062 19.402344 535.207031 21.480469 541.445312 23.714844 C 547.6875 25.945312 553.871094 28.332031 559.996094 30.867188 C 566.117188 33.40625 572.175781 36.089844 578.167969 38.925781 C 584.160156 41.757812 590.078125 44.738281 595.925781 47.863281 C 601.769531 50.988281 607.535156 54.253906 613.222656 57.660156 C 618.90625 61.070312 624.503906 64.613281 630.015625 68.296875 C 635.527344 71.980469 640.945312 75.792969 646.269531 79.742188 C 651.59375 83.691406 656.816406 87.769531 661.941406 91.972656 C 667.066406 96.179688 672.082031 100.507812 676.996094 104.957031 C 681.90625 109.410156 686.707031 113.976562 691.390625 118.664062 C 696.078125 123.351562 700.648438 128.152344 705.101562 133.0625 C 709.550781 137.972656 713.878906 142.992188 718.085938 148.117188 C 722.289062 153.238281 726.367188 158.464844 730.316406 163.789062 C 734.265625 169.113281 738.078125 174.53125 741.761719 180.039062 C 745.445312 185.550781 748.988281 191.152344 752.398438 196.835938 C 755.804688 202.523438 759.070312 208.289062 762.195312 214.132812 C 765.320312 219.980469 768.300781 225.898438 771.132812 231.890625 C 773.96875 237.882812 776.652344 243.941406 779.191406 250.0625 C 781.726562 256.1875 784.109375 262.371094 786.34375 268.609375 C 788.578125 274.851562 790.65625 281.144531 792.578125 287.488281 C 794.503906 293.828125 796.269531 300.214844 797.882812 306.644531 C 799.492188 313.074219 800.945312 319.542969 802.238281 326.042969 C 803.53125 332.542969 804.664062 339.074219 805.636719 345.628906 C 806.609375 352.1875 807.421875 358.761719 808.070312 365.359375 C 808.71875 371.957031 809.207031 378.5625 809.53125 385.183594 C 809.859375 391.804688 810.019531 398.429688 810.019531 405.058594 Z M 810.019531 405.058594 "/><path style=" stroke:none;fill-rule:evenodd;fill:#ffffff;fill-opacity:1;" d="M 172.882812 264.132812 L 319.886719 404.484375 L 170.808594 542.320312 C 167.851562 536.453125 166.273438 529.925781 166.273438 523.238281 L 166.273438 286.882812 C 166.273438 278.761719 168.601562 270.882812 172.882812 264.132812 Z M 639.171875 542.320312 L 490.105469 404.484375 L 637.09375 264.132812 C 641.378906 270.882812 643.703125 278.761719 643.703125 286.882812 L 643.703125 523.238281 C 643.703125 529.925781 642.125 536.453125 639.171875 542.320312 Z M 191.976562 562.222656 L 340.882812 424.542969 L 383.222656 464.964844 C 395.402344 476.597656 414.574219 476.597656 426.757812 464.964844 L 469.09375 424.542969 L 618 562.222656 C 612.769531 564.464844 607.09375 565.652344 601.285156 565.652344 L 208.691406 565.652344 C 202.882812 565.652344 197.207031 564.464844 191.976562 562.222656 Z M 196.222656 246.339844 C 200.230469 245.109375 204.421875 244.464844 208.691406 244.464844 L 601.285156 244.464844 C 605.558594 244.464844 609.75 245.109375 613.757812 246.339844 L 406.742188 444.003906 C 405.757812 444.9375 404.222656 444.9375 403.25 444.003906 Z M 196.222656 246.339844 "/></g></svg>