<svg xmlns="http://www.w3.org/2000/svg" xmlns:xlink="http://www.w3.org/1999/xlink" width="1080" zoomAndPan="magnify" viewBox="0 0 810 809.999993" height="1080" preserveAspectRatio="xMidYMid meet" version="1.2"><defs><clipPath id="4f1f59f28d"><path d="M 380.539062 414.921875 L 383.410156 414.921875 L 383.410156 417.359375 L 380.539062 417.359375 Z M 380.539062 414.921875 "/></clipPath><clipPath id="e45b27dd9b"><path d="M 383.398438 415.800781 C 382.125 417.824219 380.925781 417.449219 380.699219 417 C 380.398438 416.550781 380.625 415.351562 381 415.050781 C 381.449219 414.75 383.023438 415.199219 383.023438 415.199219 "/></clipPath></defs><g id="8a3c1b88eb"><g clip-rule="nonzero" clip-path="url(#4f1f59f28d)"><g clip-rule="nonzero" clip-path="url(#e45b27dd9b)"><path style=" stroke:none;fill-rule:nonzero;fill:#ffffff;fill-opacity:1;" d="M 377.699219 412.050781 L 386.484375 412.050781 L 386.484375 420.601562 L 377.699219 420.601562 Z M 377.699219 412.050781 "/></g></g><path style=" stroke:none;fill-rule:nonzero;fill:#ffffff;fill-opacity:1;" d="M 553.601562 495.8125 L 489.601562 502.675781 C 486.597656 502.996094 484.320312 505.5625 484.320312 508.613281 L 484.320312 529.808594 C 484.320312 533.101562 486.96875 535.78125 490.214844 535.78125 L 554.214844 535.78125 C 557.460938 535.78125 560.105469 533.101562 560.105469 529.808594 L 560.105469 501.753906 C 560.105469 498.203125 557.074219 495.441406 553.601562 495.8125 Z M 553.601562 495.8125 "/><path style=" stroke:none;fill-rule:nonzero;fill:#ffffff;fill-opacity:1;" d="M 320.464844 502.675781 L 256.460938 495.8125 C 252.976562 495.441406 249.957031 498.203125 249.957031 501.753906 L 249.957031 529.808594 C 249.957031 533.101562 252.605469 535.78125 255.847656 535.78125 L 319.851562 535.78125 C 323.097656 535.78125 325.742188 533.101562 325.742188 529.808594 L 325.742188 508.613281 C 325.742188 505.5625 323.46875 502.996094 320.464844 502.675781 Z M 320.464844 502.675781 "/><path style=" stroke:none;fill-rule:nonzero;fill:#ffffff;fill-opacity:1;" d="M 337.398438 209.796875 L 472.652344 209.796875 C 481.027344 209.796875 487.808594 202.839844 487.808594 194.25 L 487.808594 179.273438 C 487.808594 178.949219 487.550781 178.691406 487.242188 178.691406 L 322.773438 178.691406 C 322.464844 178.691406 322.207031 178.949219 322.207031 179.273438 L 322.207031 194.234375 C 322.207031 202.824219 329.003906 209.78125 337.367188 209.78125 Z M 337.398438 209.796875 "/><path style=" stroke:none;fill-rule:nonzero;fill:#ffffff;fill-opacity:1;" d="M 451.585938 520.625 L 358.464844 520.625 C 353.476562 520.625 349.441406 524.757812 349.441406 529.875 L 349.441406 546.046875 C 349.441406 551.148438 353.476562 555.296875 358.464844 555.296875 L 451.585938 555.296875 C 456.574219 555.296875 460.609375 551.164062 460.609375 546.046875 L 460.609375 529.875 C 460.609375 524.773438 456.574219 520.625 451.585938 520.625 Z M 451.585938 520.625 "/><path style=" stroke:none;fill-rule:nonzero;fill:#ffffff;fill-opacity:1;" d="M 535.234375 228.457031 L 274.832031 228.457031 C 261.09375 228.457031 249.957031 239.882812 249.957031 253.976562 L 249.957031 411.519531 C 249.957031 417.089844 251.214844 422.578125 253.652344 427.566406 L 264.9375 450.714844 C 266.890625 454.71875 270.910156 457.25 275.332031 457.25 L 534.714844 457.25 C 539.140625 457.25 543.175781 454.699219 545.128906 450.664062 L 556.394531 427.292969 C 558.785156 422.351562 560.027344 416.914062 560.027344 411.410156 L 560.125 253.976562 C 560.125 239.882812 548.984375 228.457031 535.25 228.457031 Z M 535.234375 228.457031 "/><path style=" stroke:none;fill-rule:nonzero;fill:#ffffff;fill-opacity:1;" d="M 405.03125 0 C 181.339844 0 0 181.339844 0 405.03125 C 0 628.726562 181.339844 810.066406 405.03125 810.066406 C 628.726562 810.066406 810.066406 628.726562 810.066406 405.03125 C 810.066406 181.339844 628.726562 0 405.03125 0 Z M 663.109375 390.84375 C 663.109375 398.027344 657.441406 403.835938 650.4375 403.835938 L 622.15625 403.835938 C 615.167969 403.835938 609.484375 398.011719 609.484375 390.84375 L 609.484375 346.839844 L 592.761719 346.839844 L 592.761719 584.125 C 592.761719 588.03125 589.679688 591.179688 585.886719 591.179688 L 546.902344 591.179688 L 546.902344 617.460938 C 546.902344 630.453125 536.621094 640.996094 523.949219 640.996094 L 505.726562 640.996094 C 493.054688 640.996094 482.773438 630.453125 482.773438 617.460938 L 482.773438 591.179688 L 327.292969 591.179688 L 327.292969 617.460938 C 327.292969 630.453125 317.011719 640.996094 304.339844 640.996094 L 286.113281 640.996094 C 273.445312 640.996094 263.160156 630.453125 263.160156 617.460938 L 263.160156 591.179688 L 224.179688 591.179688 C 220.367188 591.179688 217.300781 588.015625 217.300781 584.125 L 217.300781 346.839844 L 200.964844 346.839844 L 200.964844 390.746094 C 200.964844 397.976562 195.253906 403.835938 188.199219 403.835938 L 159.707031 403.835938 C 152.652344 403.835938 146.941406 397.976562 146.941406 390.746094 L 146.941406 295.769531 C 146.941406 288.535156 152.652344 282.675781 159.707031 282.675781 L 188.199219 282.675781 C 195.253906 282.675781 200.964844 288.535156 200.964844 295.769531 L 200.964844 318.949219 L 217.300781 318.949219 L 217.300781 218.433594 C 217.300781 191.167969 238.835938 169.085938 265.421875 169.085938 L 544.644531 169.085938 C 571.214844 169.085938 592.761719 191.167969 592.761719 218.433594 L 592.761719 318.949219 L 609.484375 318.949219 L 609.484375 295.6875 C 609.484375 288.503906 615.152344 282.691406 622.15625 282.691406 L 650.4375 282.691406 C 657.425781 282.691406 663.109375 288.519531 663.109375 295.6875 L 663.109375 390.859375 Z M 663.109375 390.84375 "/></g></svg>