<svg xmlns="http://www.w3.org/2000/svg" xmlns:xlink="http://www.w3.org/1999/xlink" width="1080" zoomAndPan="magnify" viewBox="0 0 810 809.999993" height="1080" preserveAspectRatio="xMidYMid meet" version="1.2"><defs><clipPath id="7c1ce18b2b"><path d="M 380.539062 414.921875 L 383.410156 414.921875 L 383.410156 417.359375 L 380.539062 417.359375 Z M 380.539062 414.921875 "/></clipPath><clipPath id="b23e0021d7"><path d="M 383.398438 415.800781 C 382.125 417.824219 380.925781 417.449219 380.699219 417 C 380.398438 416.550781 380.625 415.351562 381 415.050781 C 381.449219 414.75 383.023438 415.199219 383.023438 415.199219 "/></clipPath><clipPath id="8ff5b34837"><path d="M 111.375 0 L 698.625 0 L 698.625 810 L 111.375 810 Z M 111.375 0 "/></clipPath><clipPath id="8a07ab3a01"><path d="M 263.695312 117.449219 L 550.503906 117.449219 L 550.503906 448.4375 L 263.695312 448.4375 Z M 263.695312 117.449219 "/></clipPath><clipPath id="5a8cfdda38"><path d="M 263.699219 377.773438 C 267.824219 325.5 269.25 309.148438 269.324219 294.449219 C 269.476562 280.574219 267.976562 267.375 267.675781 254.175781 C 267.375 241.351562 266.023438 228.898438 267.300781 216.300781 C 268.648438 203.476562 270.375 189.601562 275.773438 177.75 C 281.398438 165.449219 290.25 151.273438 300.976562 144 C 311.25 137.101562 325.875 137.550781 338.25 134.023438 C 350.550781 130.574219 362.625 125.625 375.148438 123.074219 C 387.449219 120.675781 400.050781 119.851562 412.574219 119.101562 C 425.25 118.425781 438.074219 117.074219 450.898438 118.949219 C 464.476562 120.898438 485.101562 126.148438 491.773438 131.324219 C 494.925781 133.726562 495.375 138.601562 496.648438 139.351562 C 497.023438 139.574219 497.773438 139.351562 497.773438 139.351562 C 497.851562 139.351562 501.300781 140.25 503.101562 140.699219 C 504.824219 141.226562 508.273438 142.125 508.351562 142.125 C 508.425781 142.125 511.5 143.851562 513.148438 144.75 C 514.726562 145.648438 517.875 147.300781 517.875 147.375 C 517.949219 147.375 520.574219 149.851562 521.925781 151.050781 C 523.273438 152.25 525.898438 154.648438 525.976562 154.726562 C 525.976562 154.800781 527.925781 157.726562 528.976562 159.300781 C 529.949219 160.800781 531.976562 163.726562 531.976562 163.800781 C 532.050781 163.875 533.25 167.25 533.851562 168.898438 C 534.449219 170.625 535.648438 174 535.648438 174.074219 C 535.726562 174.148438 536.023438 177.675781 536.25 179.476562 C 536.398438 181.273438 536.773438 184.800781 536.773438 184.875 C 536.851562 185.023438 543.976562 209.625 545.550781 222.375 C 547.050781 235.199219 545.324219 248.625 546 261.675781 C 546.75 274.726562 549.074219 287.699219 549.675781 300.675781 C 550.273438 313.574219 550.351562 326.625 549.75 339.449219 C 549.148438 352.199219 550.5 367.574219 546.226562 377.398438 C 542.773438 385.351562 530.175781 393.675781 529.800781 395.851562 C 529.726562 396.226562 530.023438 396.226562 530.175781 396.601562 C 530.550781 397.949219 531.523438 402.675781 531.675781 405.75 C 531.824219 408.75 531.601562 411.898438 531 414.898438 C 530.398438 417.898438 529.351562 420.898438 528.074219 423.675781 C 526.800781 426.449219 525.074219 429.148438 523.199219 431.550781 C 521.25 433.875 519 436.125 516.523438 437.925781 C 514.125 439.800781 511.351562 441.375 508.574219 442.574219 C 505.726562 443.773438 502.726562 444.675781 499.648438 445.199219 C 496.648438 445.726562 490.425781 445.574219 490.425781 445.574219 C 490.425781 445.574219 473.476562 444.300781 463.5 443.699219 C 451.125 442.949219 435.75 441.75 421.949219 441.449219 C 408.300781 441.226562 394.648438 441.148438 381.074219 442.273438 C 367.574219 443.324219 353.925781 448.425781 340.726562 448.125 C 327.976562 447.898438 314.550781 446.398438 303.148438 441.226562 C 291.449219 435.898438 278.25 426.898438 271.648438 416.175781 C 265.125 405.675781 263.699219 377.773438 263.699219 377.773438 "/></clipPath><clipPath id="ca42d235de"><path d="M 200.15625 81 L 609.65625 81 L 609.65625 490.5 L 200.15625 490.5 Z M 200.15625 81 "/></clipPath></defs><g id="b39c338017"><g clip-rule="nonzero" clip-path="url(#7c1ce18b2b)"><g clip-rule="nonzero" clip-path="url(#b23e0021d7)"><path style=" stroke:none;fill-rule:nonzero;fill:#ffffff;fill-opacity:1;" d="M 377.699219 412.050781 L 386.484375 412.050781 L 386.484375 420.601562 L 377.699219 420.601562 Z M 377.699219 412.050781 "/></g></g><g clip-rule="nonzero" clip-path="url(#8ff5b34837)"><path style=" stroke:none;fill-rule:nonzero;fill:#ffffff;fill-opacity:1;" d="M 358.042969 658.859375 C 346.558594 625.347656 325.527344 595.925781 297.550781 574.203125 L 228.765625 520.804688 C 158.136719 465.976562 115.242188 382.8125 111.523438 293.476562 C 111.523438 131.394531 242.917969 0 405 0 C 567.085938 0 698.480469 131.394531 698.480469 293.476562 C 694.757812 382.8125 651.867188 465.976562 581.238281 520.804688 L 512.453125 574.203125 C 484.476562 595.925781 463.445312 625.347656 451.957031 658.859375 L 443.871094 682.457031 C 438.171875 699.0625 422.558594 710.21875 405 710.21875 C 387.445312 710.21875 371.828125 699.0625 366.132812 682.457031 Z M 405 810 C 340.167969 810 287.609375 802.113281 287.609375 792.390625 C 287.609375 782.667969 340.167969 774.78125 405 774.78125 C 469.835938 774.78125 522.394531 782.667969 522.394531 792.390625 C 522.394531 802.113281 469.835938 810 405 810 Z M 405 522.390625 C 534.671875 522.390625 639.785156 417.273438 639.785156 287.609375 C 639.785156 157.941406 534.671875 52.824219 405 52.824219 C 275.332031 52.824219 170.21875 157.941406 170.21875 287.609375 C 170.21875 417.273438 275.332031 522.390625 405 522.390625 Z M 487.9375 143.828125 C 506.835938 151.523438 517.335938 161.675781 519.433594 174.273438 L 534.015625 264.902344 C 534.09375 265.375 534.132812 265.847656 534.132812 266.324219 L 534.132812 369.261719 C 534.132812 376.660156 528.136719 382.660156 520.734375 382.660156 L 289.265625 382.660156 C 281.867188 382.660156 275.871094 376.660156 275.871094 369.261719 L 275.871094 266.273438 C 275.871094 265.832031 275.90625 265.390625 275.96875 264.953125 L 289.519531 174.273438 C 291.617188 161.675781 302.117188 151.523438 321.015625 143.828125 C 344.808594 134.03125 372.632812 129.128906 404.472656 129.128906 C 436.320312 129.128906 464.144531 134.03125 487.9375 143.828125 Z M 485.757812 365.808594 C 495.625 365.808594 503.621094 373.808594 503.621094 383.671875 L 503.621094 410.46875 C 503.621094 420.332031 495.625 428.332031 485.757812 428.332031 C 475.894531 428.332031 467.890625 420.332031 467.890625 410.46875 L 467.890625 383.671875 C 467.890625 373.808594 475.894531 365.808594 485.757812 365.808594 Z M 320.527344 365.808594 C 330.394531 365.808594 338.390625 373.808594 338.390625 383.671875 L 338.390625 410.46875 C 338.390625 420.332031 330.394531 428.332031 320.527344 428.332031 C 310.664062 428.332031 302.664062 420.332031 302.664062 410.46875 L 302.664062 383.671875 C 302.664062 373.808594 310.664062 365.808594 320.527344 365.808594 Z M 341.554688 342.445312 C 346.074219 338.09375 348.339844 332.652344 348.339844 326.128906 C 348.339844 319.605469 346.074219 314.167969 341.554688 309.816406 C 337.023438 305.464844 331.675781 303.292969 325.503906 303.292969 C 319.332031 303.292969 313.984375 305.464844 309.453125 309.816406 C 304.925781 314.167969 302.664062 319.605469 302.664062 326.128906 C 302.664062 332.652344 304.925781 338.09375 309.453125 342.445312 C 313.984375 346.792969 319.332031 348.964844 325.503906 348.964844 C 331.675781 348.964844 337.023438 346.792969 341.554688 342.445312 Z M 497.660156 342.445312 C 502.3125 338.09375 504.640625 332.652344 504.640625 326.128906 C 504.640625 319.605469 502.3125 314.167969 497.660156 309.816406 C 493.011719 305.464844 487.511719 303.292969 481.167969 303.292969 C 474.824219 303.292969 469.539062 305.464844 465.308594 309.816406 C 461.078125 314.167969 458.960938 319.605469 458.960938 326.128906 C 458.960938 332.652344 461.078125 338.09375 465.308594 342.445312 C 469.539062 346.792969 474.824219 348.964844 481.167969 348.964844 C 487.511719 348.964844 493.011719 346.792969 497.660156 342.445312 Z M 364.640625 151.460938 C 357.546875 151.460938 351.785156 157.214844 351.785156 164.316406 C 351.785156 171.414062 357.546875 177.171875 364.640625 177.171875 L 441.800781 177.171875 C 448.902344 177.171875 454.65625 171.414062 454.65625 164.316406 C 454.65625 157.214844 448.902344 151.460938 441.800781 151.460938 Z M 316.097656 196.320312 C 313.777344 196.320312 311.570312 198.199219 311.164062 200.519531 L 299.023438 269.808594 C 298.617188 272.128906 300.445312 274.007812 303.097656 274.007812 L 507.570312 274.007812 C 510.222656 274.007812 512.046875 272.128906 511.644531 269.808594 L 499.503906 200.519531 C 499.097656 198.199219 496.890625 196.320312 494.570312 196.320312 Z M 316.097656 196.320312 "/></g><g clip-rule="nonzero" clip-path="url(#8a07ab3a01)"><g clip-rule="nonzero" clip-path="url(#5a8cfdda38)"><path style=" stroke:none;fill-rule:nonzero;fill:#1e1e1e;fill-opacity:1;" d="M 260.699219 115.949219 L 552.75 115.949219 L 552.75 451.433594 L 260.699219 451.433594 Z M 260.699219 115.949219 "/></g></g><path style=" stroke:none;fill-rule:nonzero;fill:#ffffff;fill-opacity:1;" d="M 480.03125 331.660156 L 447.675781 335.128906 C 446.15625 335.292969 445.007812 336.589844 445.007812 338.132812 L 445.007812 348.847656 C 445.007812 350.511719 446.34375 351.867188 447.984375 351.867188 L 480.339844 351.867188 C 481.980469 351.867188 483.320312 350.511719 483.320312 348.847656 L 483.320312 334.664062 C 483.320312 332.871094 481.785156 331.472656 480.03125 331.660156 Z M 480.03125 331.660156 "/><path style=" stroke:none;fill-rule:nonzero;fill:#ffffff;fill-opacity:1;" d="M 362.167969 335.128906 L 329.8125 331.660156 C 328.046875 331.472656 326.523438 332.871094 326.523438 334.664062 L 326.523438 348.847656 C 326.523438 350.511719 327.859375 351.867188 329.5 351.867188 L 361.859375 351.867188 C 363.496094 351.867188 364.835938 350.511719 364.835938 348.847656 L 364.835938 338.132812 C 364.835938 336.589844 363.683594 335.292969 362.167969 335.128906 Z M 362.167969 335.128906 "/><path style=" stroke:none;fill-rule:nonzero;fill:#ffffff;fill-opacity:1;" d="M 370.726562 187.0625 L 439.105469 187.0625 C 443.339844 187.0625 446.769531 183.546875 446.769531 179.203125 L 446.769531 171.632812 C 446.769531 171.46875 446.636719 171.339844 446.484375 171.339844 L 363.335938 171.339844 C 363.179688 171.339844 363.050781 171.46875 363.050781 171.632812 L 363.050781 179.195312 C 363.050781 183.539062 366.484375 187.054688 370.710938 187.054688 Z M 370.726562 187.0625 "/><path style=" stroke:none;fill-rule:nonzero;fill:#ffffff;fill-opacity:1;" d="M 428.457031 344.203125 L 381.378906 344.203125 C 378.855469 344.203125 376.816406 346.292969 376.816406 348.878906 L 376.816406 357.058594 C 376.816406 359.636719 378.855469 361.734375 381.378906 361.734375 L 428.457031 361.734375 C 430.976562 361.734375 433.019531 359.644531 433.019531 357.058594 L 433.019531 348.878906 C 433.019531 346.300781 430.976562 344.203125 428.457031 344.203125 Z M 428.457031 344.203125 "/><path style=" stroke:none;fill-rule:nonzero;fill:#ffffff;fill-opacity:1;" d="M 470.746094 196.496094 L 339.097656 196.496094 C 332.152344 196.496094 326.523438 202.273438 326.523438 209.398438 L 326.523438 289.046875 C 326.523438 291.863281 327.160156 294.636719 328.390625 297.160156 L 334.09375 308.859375 C 335.082031 310.882812 337.113281 312.164062 339.351562 312.164062 L 470.484375 312.164062 C 472.71875 312.164062 474.757812 310.875 475.746094 308.835938 L 481.441406 297.019531 C 482.652344 294.523438 483.28125 291.773438 483.28125 288.988281 L 483.328125 209.398438 C 483.328125 202.273438 477.699219 196.496094 470.753906 196.496094 Z M 470.746094 196.496094 "/><g clip-rule="nonzero" clip-path="url(#ca42d235de)"><path style=" stroke:none;fill-rule:nonzero;fill:#ffffff;fill-opacity:1;" d="M 404.921875 81 C 291.832031 81 200.15625 172.675781 200.15625 285.765625 C 200.15625 398.855469 291.832031 490.53125 404.921875 490.53125 C 518.011719 490.53125 609.6875 398.855469 609.6875 285.765625 C 609.6875 172.675781 518.011719 81 404.921875 81 Z M 535.394531 278.59375 C 535.394531 282.226562 532.527344 285.164062 528.988281 285.164062 L 514.691406 285.164062 C 511.15625 285.164062 508.285156 282.214844 508.285156 278.59375 L 508.285156 256.347656 L 499.828125 256.347656 L 499.828125 376.308594 C 499.828125 378.285156 498.269531 379.875 496.351562 379.875 L 476.644531 379.875 L 476.644531 393.160156 C 476.644531 399.730469 471.445312 405.058594 465.039062 405.058594 L 455.828125 405.058594 C 449.421875 405.058594 444.222656 399.730469 444.222656 393.160156 L 444.222656 379.875 L 365.621094 379.875 L 365.621094 393.160156 C 365.621094 399.730469 360.421875 405.058594 354.015625 405.058594 L 344.800781 405.058594 C 338.394531 405.058594 333.199219 399.730469 333.199219 393.160156 L 333.199219 379.875 L 313.488281 379.875 C 311.5625 379.875 310.011719 378.273438 310.011719 376.308594 L 310.011719 256.347656 L 301.753906 256.347656 L 301.753906 278.542969 C 301.753906 282.199219 298.867188 285.164062 295.300781 285.164062 L 280.894531 285.164062 C 277.328125 285.164062 274.441406 282.199219 274.441406 278.542969 L 274.441406 230.527344 C 274.441406 226.871094 277.328125 223.910156 280.894531 223.910156 L 295.300781 223.910156 C 298.867188 223.910156 301.753906 226.871094 301.753906 230.527344 L 301.753906 242.246094 L 310.011719 242.246094 L 310.011719 191.429688 C 310.011719 177.644531 320.898438 166.484375 334.339844 166.484375 L 475.503906 166.484375 C 488.933594 166.484375 499.828125 177.644531 499.828125 191.429688 L 499.828125 242.246094 L 508.285156 242.246094 L 508.285156 230.484375 C 508.285156 226.855469 511.148438 223.917969 514.691406 223.917969 L 528.988281 223.917969 C 532.519531 223.917969 535.394531 226.863281 535.394531 230.484375 L 535.394531 278.601562 Z M 535.394531 278.59375 "/></g></g></svg>