<svg xmlns="http://www.w3.org/2000/svg" xmlns:xlink="http://www.w3.org/1999/xlink" width="1080" zoomAndPan="magnify" viewBox="0 0 810 809.999993" height="1080" preserveAspectRatio="xMidYMid meet" version="1.2"><defs><clipPath id="96497550db"><path d="M 483.964844 122.015625 L 486.835938 122.015625 L 486.835938 124.453125 L 483.964844 124.453125 Z M 483.964844 122.015625 "/></clipPath><clipPath id="1eb3624af1"><path d="M 486.824219 122.851562 C 485.550781 124.875 484.351562 124.5 484.125 124.125 C 483.824219 123.675781 484.050781 122.476562 484.425781 122.175781 C 484.875 121.800781 486.449219 122.25 486.449219 122.25 "/></clipPath></defs><g id="e26c3fd2fe"><rect x="0" width="810" y="0" height="809.999993" style="fill:#ffffff;fill-opacity:1;stroke:none;"/><rect x="0" width="810" y="0" height="809.999993" style="fill:#ffffff;fill-opacity:1;stroke:none;"/><g clip-rule="nonzero" clip-path="url(#96497550db)"><g clip-rule="nonzero" clip-path="url(#1eb3624af1)"><path style=" stroke:none;fill-rule:nonzero;fill:#ffffff;fill-opacity:1;" d="M 481.125 119.175781 L 489.910156 119.175781 L 489.910156 127.726562 L 481.125 127.726562 Z M 481.125 119.175781 "/></g></g><path style=" stroke:none;fill-rule:nonzero;fill:#ff751f;fill-opacity:1;" d="M 405 200.226562 C 373.054688 200.226562 347.15625 226.121094 347.15625 258.066406 L 347.15625 308.199219 L 462.84375 308.199219 L 462.84375 258.066406 C 462.84375 226.121094 436.945312 200.226562 405 200.226562 Z M 405 200.226562 "/><path style=" stroke:none;fill-rule:nonzero;fill:#ff751f;fill-opacity:1;" d="M 404.148438 385.328125 C 373.230469 385.773438 347.847656 410.957031 347.171875 441.871094 C 346.691406 463.820312 358.445312 483.046875 376.078125 493.253906 L 376.078125 529.929688 C 376.078125 545.902344 389.027344 558.851562 405 558.851562 C 420.96875 558.851562 433.917969 545.902344 433.917969 529.929688 L 433.917969 493.253906 C 451.203125 483.25 462.839844 464.574219 462.839844 443.167969 C 462.84375 410.9375 436.484375 384.863281 404.148438 385.328125 Z M 404.148438 385.328125 "/><path style=" stroke:none;fill-rule:nonzero;fill:#ff751f;fill-opacity:1;" d="M 405 0 C 181.324219 0 0 181.324219 0 405 C 0 628.675781 181.324219 810 405 810 C 628.675781 810 810 628.675781 810 405 C 810 181.324219 628.675781 0 405 0 Z M 617.089844 578.132812 C 617.089844 610.082031 591.191406 635.976562 559.246094 635.976562 L 250.75 635.976562 C 218.804688 635.976562 192.910156 610.078125 192.910156 578.132812 L 192.910156 366.042969 C 192.910156 334.097656 218.808594 308.199219 250.75 308.199219 L 289.3125 308.199219 L 289.3125 258.070312 C 289.3125 194.175781 341.109375 142.382812 405 142.382812 C 468.890625 142.382812 520.6875 194.175781 520.6875 258.070312 L 520.6875 308.199219 L 559.246094 308.199219 C 591.195312 308.199219 617.089844 334.097656 617.089844 366.042969 Z M 617.089844 578.132812 "/></g></svg>