<svg xmlns="http://www.w3.org/2000/svg" xmlns:xlink="http://www.w3.org/1999/xlink" width="1080" zoomAndPan="magnify" viewBox="0 0 810 809.999993" height="1080" preserveAspectRatio="xMidYMid meet" version="1.2"><defs><clipPath id="496706165e"><path d="M 380.539062 414.921875 L 383.410156 414.921875 L 383.410156 417.359375 L 380.539062 417.359375 Z M 380.539062 414.921875 "/></clipPath><clipPath id="4eb86a946a"><path d="M 383.398438 415.800781 C 382.125 417.824219 380.925781 417.449219 380.699219 417 C 380.398438 416.550781 380.625 415.351562 381 415.050781 C 381.449219 414.75 383.023438 415.199219 383.023438 415.199219 "/></clipPath></defs><g id="7baad08710"><g clip-rule="nonzero" clip-path="url(#496706165e)"><g clip-rule="nonzero" clip-path="url(#4eb86a946a)"><path style=" stroke:none;fill-rule:nonzero;fill:#ffffff;fill-opacity:1;" d="M 377.699219 412.050781 L 386.484375 412.050781 L 386.484375 420.601562 L 377.699219 420.601562 Z M 377.699219 412.050781 "/></g></g><path style=" stroke:none;fill-rule:nonzero;fill:#e5aa17;fill-opacity:1;" d="M 0 405 C 0 181.359375 181.359375 0 405 0 C 628.640625 0 810 181.359375 810 405 C 810 628.640625 628.640625 810 405 810 C 181.359375 810 0 628.640625 0 405 Z M 0 405 "/><path style=" stroke:none;fill-rule:nonzero;fill:#ffffff;fill-opacity:1;" d="M 205.355469 379.207031 L 604.644531 379.207031 L 604.644531 640.066406 L 205.355469 640.066406 Z M 205.355469 379.207031 "/><path style=" stroke:none;fill-rule:nonzero;fill:#ffffff;fill-opacity:1;" d="M 557.957031 542.285156 C 545.386719 542.285156 535.101562 532 535.101562 519.433594 L 535.101562 297.425781 C 535.101562 225.597656 476.664062 167.160156 404.835938 167.160156 C 333.011719 167.160156 274.570312 225.597656 274.570312 297.425781 L 274.570312 519.433594 C 274.570312 532 264.285156 542.285156 251.71875 542.285156 C 239.148438 542.285156 228.863281 532 228.863281 519.433594 L 228.863281 297.425781 C 228.863281 200.460938 307.707031 121.613281 404.671875 121.613281 C 501.636719 121.613281 580.484375 200.460938 580.484375 297.425781 L 580.484375 519.433594 C 580.808594 532.164062 570.527344 542.285156 557.957031 542.285156 Z M 557.957031 542.285156 "/><path style=" stroke:none;fill-rule:nonzero;fill:#e5aa17;fill-opacity:1;" d="M 448.421875 492.007812 C 448.421875 468.011719 428.996094 448.585938 405 448.585938 C 381.003906 448.585938 361.578125 468.011719 361.578125 492.007812 C 361.578125 507.351562 369.414062 520.738281 381.328125 528.410156 C 381.328125 535.265625 381.328125 543.753906 381.328125 547.183594 C 381.328125 560.242188 391.941406 570.851562 405 570.851562 C 418.058594 570.851562 428.667969 560.242188 428.667969 547.183594 C 428.667969 543.917969 428.667969 535.429688 428.667969 528.410156 C 440.585938 520.738281 448.421875 507.1875 448.421875 492.007812 Z M 448.421875 492.007812 "/></g></svg>