<svg xmlns="http://www.w3.org/2000/svg" xmlns:xlink="http://www.w3.org/1999/xlink" width="1080" zoomAndPan="magnify" viewBox="0 0 810 809.999993" height="1080" preserveAspectRatio="xMidYMid meet" version="1.2"><defs><clipPath id="28b36d183d"><path d="M 483.964844 122.015625 L 486.835938 122.015625 L 486.835938 124.453125 L 483.964844 124.453125 Z M 483.964844 122.015625 "/></clipPath><clipPath id="a201f6bfca"><path d="M 486.824219 122.851562 C 485.550781 124.875 484.351562 124.5 484.125 124.125 C 483.824219 123.675781 484.050781 122.476562 484.425781 122.175781 C 484.875 121.800781 486.449219 122.25 486.449219 122.25 "/></clipPath></defs><g id="403b526832"><g clip-rule="nonzero" clip-path="url(#28b36d183d)"><g clip-rule="nonzero" clip-path="url(#a201f6bfca)"><path style=" stroke:none;fill-rule:nonzero;fill:#ffffff;fill-opacity:1;" d="M 481.125 119.175781 L 489.910156 119.175781 L 489.910156 127.726562 L 481.125 127.726562 Z M 481.125 119.175781 "/></g></g><path style=" stroke:none;fill-rule:nonzero;fill:#ffffff;fill-opacity:1;" d="M 691.378906 118.621094 C 614.878906 42.128906 513.179688 0 405 0 C 296.820312 0 195.121094 42.128906 118.621094 118.621094 C 42.128906 195.121094 0 296.820312 0 405 C 0 513.179688 42.128906 614.878906 118.621094 691.378906 C 195.121094 767.871094 296.820312 810 405 810 C 513.179688 810 614.878906 767.871094 691.378906 691.378906 C 767.878906 614.890625 810 513.179688 810 405 C 810 296.820312 767.871094 195.121094 691.378906 118.621094 Z M 647.261719 672.160156 L 647.261719 664.21875 C 647.261719 593.851562 590.210938 536.808594 519.839844 536.808594 L 298.988281 536.808594 C 228.621094 536.808594 171.570312 593.859375 171.570312 664.21875 L 171.570312 679.898438 C 93.691406 613.660156 44.179688 515.011719 44.179688 405 C 44.179688 206.039062 206.039062 44.179688 405 44.179688 C 603.960938 44.179688 765.820312 206.039062 765.820312 405 C 765.820312 510.800781 720.039062 606.109375 647.261719 672.160156 Z M 647.261719 672.160156 "/><path style=" stroke:none;fill-rule:nonzero;fill:#ffffff;fill-opacity:1;" d="M 551.53125 355.660156 C 551.53125 358.070312 551.472656 360.480469 551.351562 362.886719 C 551.234375 365.292969 551.058594 367.695312 550.820312 370.09375 C 550.585938 372.492188 550.289062 374.886719 549.9375 377.269531 C 549.582031 379.652344 549.171875 382.027344 548.699219 384.390625 C 548.230469 386.753906 547.703125 389.105469 547.117188 391.445312 C 546.53125 393.78125 545.886719 396.105469 545.1875 398.410156 C 544.488281 400.714844 543.734375 403.003906 542.921875 405.273438 C 542.109375 407.542969 541.242188 409.792969 540.320312 412.019531 C 539.398438 414.246094 538.421875 416.445312 537.390625 418.625 C 536.359375 420.804688 535.277344 422.957031 534.140625 425.082031 C 533.003906 427.207031 531.816406 429.304688 530.578125 431.371094 C 529.339844 433.4375 528.050781 435.476562 526.710938 437.480469 C 525.371094 439.484375 523.984375 441.453125 522.546875 443.386719 C 521.113281 445.324219 519.628906 447.222656 518.101562 449.085938 C 516.574219 450.949219 515 452.773438 513.378906 454.5625 C 511.761719 456.347656 510.101562 458.089844 508.394531 459.796875 C 506.691406 461.5 504.945312 463.160156 503.160156 464.78125 C 501.375 466.398438 499.550781 467.972656 497.6875 469.5 C 495.824219 471.03125 493.925781 472.511719 491.988281 473.949219 C 490.054688 475.382812 488.082031 476.769531 486.078125 478.109375 C 484.074219 479.449219 482.039062 480.738281 479.972656 481.976562 C 477.90625 483.214844 475.808594 484.40625 473.683594 485.539062 C 471.558594 486.675781 469.40625 487.761719 467.226562 488.789062 C 465.046875 489.820312 462.84375 490.796875 460.617188 491.71875 C 458.390625 492.640625 456.144531 493.507812 453.875 494.320312 C 451.605469 495.132812 449.316406 495.890625 447.011719 496.589844 C 444.703125 497.289062 442.382812 497.929688 440.042969 498.515625 C 437.707031 499.101562 435.355469 499.628906 432.992188 500.101562 C 430.628906 500.570312 428.253906 500.984375 425.867188 501.335938 C 423.484375 501.691406 421.09375 501.984375 418.695312 502.222656 C 416.296875 502.457031 413.894531 502.632812 411.484375 502.753906 C 409.078125 502.871094 406.671875 502.929688 404.261719 502.929688 C 401.851562 502.929688 399.441406 502.871094 397.035156 502.753906 C 394.625 502.632812 392.222656 502.457031 389.824219 502.222656 C 387.425781 501.984375 385.035156 501.691406 382.652344 501.335938 C 380.265625 500.984375 377.894531 500.570312 375.527344 500.101562 C 373.164062 499.628906 370.8125 499.101562 368.476562 498.515625 C 366.136719 497.929688 363.816406 497.289062 361.511719 496.589844 C 359.203125 495.890625 356.914062 495.132812 354.644531 494.320312 C 352.375 493.507812 350.128906 492.640625 347.902344 491.71875 C 345.675781 490.796875 343.472656 489.820312 341.292969 488.789062 C 339.113281 487.761719 336.964844 486.675781 334.835938 485.539062 C 332.710938 484.40625 330.617188 483.214844 328.546875 481.976562 C 326.480469 480.738281 324.445312 479.449219 322.441406 478.109375 C 320.4375 476.769531 318.46875 475.382812 316.53125 473.949219 C 314.59375 472.511719 312.695312 471.03125 310.832031 469.5 C 308.96875 467.972656 307.144531 466.398438 305.359375 464.78125 C 303.574219 463.160156 301.828125 461.5 300.125 459.796875 C 298.421875 458.089844 296.757812 456.347656 295.140625 454.5625 C 293.523438 452.773438 291.949219 450.949219 290.417969 449.085938 C 288.890625 447.222656 287.40625 445.324219 285.972656 443.386719 C 284.535156 441.453125 283.148438 439.484375 281.808594 437.480469 C 280.46875 435.476562 279.179688 433.4375 277.941406 431.371094 C 276.703125 429.304688 275.515625 427.207031 274.378906 425.082031 C 273.242188 422.957031 272.160156 420.804688 271.128906 418.625 C 270.097656 416.449219 269.121094 414.246094 268.199219 412.019531 C 267.277344 409.792969 266.410156 407.542969 265.597656 405.273438 C 264.785156 403.003906 264.03125 400.714844 263.332031 398.410156 C 262.632812 396.105469 261.988281 393.78125 261.402344 391.445312 C 260.816406 389.105469 260.289062 386.753906 259.820312 384.390625 C 259.347656 382.027344 258.9375 379.652344 258.582031 377.269531 C 258.230469 374.886719 257.933594 372.492188 257.699219 370.09375 C 257.464844 367.695312 257.285156 365.292969 257.167969 362.886719 C 257.050781 360.480469 256.988281 358.070312 256.988281 355.660156 C 256.988281 353.25 257.050781 350.839844 257.167969 348.433594 C 257.285156 346.027344 257.464844 343.625 257.699219 341.226562 C 257.933594 338.828125 258.230469 336.433594 258.582031 334.050781 C 258.9375 331.667969 259.347656 329.292969 259.820312 326.929688 C 260.289062 324.566406 260.816406 322.214844 261.402344 319.875 C 261.988281 317.539062 262.632812 315.214844 263.332031 312.910156 C 264.03125 310.601562 264.785156 308.316406 265.597656 306.046875 C 266.410156 303.777344 267.277344 301.527344 268.199219 299.300781 C 269.121094 297.074219 270.097656 294.871094 271.128906 292.695312 C 272.160156 290.515625 273.242188 288.363281 274.378906 286.238281 C 275.515625 284.113281 276.703125 282.015625 277.941406 279.949219 C 279.179688 277.878906 280.46875 275.84375 281.808594 273.839844 C 283.148438 271.835938 284.535156 269.867188 285.972656 267.929688 C 287.40625 265.996094 288.890625 264.097656 290.417969 262.234375 C 291.949219 260.371094 293.523438 258.546875 295.140625 256.757812 C 296.757812 254.972656 298.421875 253.230469 300.125 251.523438 C 301.828125 249.820312 303.574219 248.160156 305.359375 246.539062 C 307.144531 244.921875 308.96875 243.347656 310.832031 241.820312 C 312.695312 240.289062 314.59375 238.808594 316.53125 237.371094 C 318.46875 235.9375 320.4375 234.546875 322.441406 233.210938 C 324.445312 231.871094 326.480469 230.582031 328.546875 229.34375 C 330.617188 228.101562 332.710938 226.914062 334.835938 225.78125 C 336.964844 224.644531 339.113281 223.558594 341.292969 222.53125 C 343.472656 221.5 345.675781 220.523438 347.902344 219.601562 C 350.128906 218.679688 352.375 217.8125 354.644531 217 C 356.914062 216.1875 359.203125 215.429688 361.511719 214.730469 C 363.816406 214.03125 366.136719 213.390625 368.476562 212.804688 C 370.8125 212.21875 373.164062 211.691406 375.527344 211.21875 C 377.894531 210.75 380.265625 210.335938 382.652344 209.984375 C 385.035156 209.628906 387.425781 209.335938 389.824219 209.097656 C 392.222656 208.863281 394.625 208.6875 397.035156 208.566406 C 399.441406 208.449219 401.851562 208.390625 404.261719 208.390625 C 406.671875 208.390625 409.078125 208.449219 411.484375 208.566406 C 413.894531 208.6875 416.296875 208.863281 418.695312 209.097656 C 421.09375 209.335938 423.484375 209.628906 425.867188 209.984375 C 428.253906 210.335938 430.628906 210.75 432.992188 211.21875 C 435.355469 211.691406 437.707031 212.21875 440.042969 212.804688 C 442.382812 213.390625 444.703125 214.03125 447.011719 214.730469 C 449.316406 215.429688 451.605469 216.1875 453.875 217 C 456.144531 217.8125 458.390625 218.679688 460.617188 219.601562 C 462.84375 220.523438 465.046875 221.5 467.226562 222.53125 C 469.40625 223.558594 471.558594 224.644531 473.683594 225.78125 C 475.808594 226.914062 477.90625 228.101562 479.972656 229.34375 C 482.039062 230.582031 484.074219 231.871094 486.078125 233.210938 C 488.082031 234.546875 490.054688 235.9375 491.988281 237.371094 C 493.925781 238.808594 495.824219 240.289062 497.6875 241.820312 C 499.550781 243.347656 501.375 244.921875 503.160156 246.539062 C 504.945312 248.160156 506.691406 249.820312 508.394531 251.523438 C 510.101562 253.230469 511.761719 254.972656 513.378906 256.757812 C 515 258.546875 516.574219 260.371094 518.101562 262.234375 C 519.628906 264.097656 521.113281 265.996094 522.546875 267.929688 C 523.984375 269.867188 525.371094 271.835938 526.710938 273.839844 C 528.050781 275.84375 529.339844 277.878906 530.578125 279.949219 C 531.816406 282.015625 533.003906 284.113281 534.140625 286.238281 C 535.277344 288.363281 536.359375 290.515625 537.390625 292.695312 C 538.421875 294.871094 539.398438 297.074219 540.320312 299.300781 C 541.242188 301.527344 542.109375 303.777344 542.921875 306.046875 C 543.734375 308.316406 544.488281 310.601562 545.1875 312.910156 C 545.886719 315.214844 546.53125 317.539062 547.117188 319.875 C 547.703125 322.214844 548.230469 324.566406 548.699219 326.929688 C 549.171875 329.292969 549.582031 331.667969 549.9375 334.050781 C 550.289062 336.433594 550.585938 338.828125 550.820312 341.226562 C 551.058594 343.625 551.234375 346.027344 551.351562 348.433594 C 551.472656 350.839844 551.53125 353.25 551.53125 355.660156 Z M 551.53125 355.660156 "/></g></svg>