<svg xmlns="http://www.w3.org/2000/svg" xmlns:xlink="http://www.w3.org/1999/xlink" width="1080" zoomAndPan="magnify" viewBox="0 0 810 809.999993" height="1080" preserveAspectRatio="xMidYMid meet" version="1.2"><defs><clipPath id="3bbbd9e561"><path d="M 380.539062 414.921875 L 383.410156 414.921875 L 383.410156 417.359375 L 380.539062 417.359375 Z M 380.539062 414.921875 "/></clipPath><clipPath id="88c20816c4"><path d="M 383.398438 415.800781 C 382.125 417.824219 380.925781 417.449219 380.699219 417 C 380.398438 416.550781 380.625 415.351562 381 415.050781 C 381.449219 414.75 383.023438 415.199219 383.023438 415.199219 "/></clipPath></defs><g id="ec62804245"><g clip-rule="nonzero" clip-path="url(#3bbbd9e561)"><g clip-rule="nonzero" clip-path="url(#88c20816c4)"><path style=" stroke:none;fill-rule:nonzero;fill:#ffffff;fill-opacity:1;" d="M 377.699219 412.050781 L 386.484375 412.050781 L 386.484375 420.601562 L 377.699219 420.601562 Z M 377.699219 412.050781 "/></g></g><path style=" stroke:none;fill-rule:evenodd;fill:#ffffff;fill-opacity:1;" d="M 398.011719 548.707031 C 424.554688 548.765625 446.066406 569.996094 446.066406 596.183594 C 446.066406 622.417969 424.554688 643.648438 398.011719 643.648438 C 371.472656 643.648438 349.890625 622.417969 349.890625 596.183594 C 349.890625 570.007812 371.472656 548.707031 398.011719 548.707031 Z M 412.347656 146.566406 C 517.546875 148.289062 606.320312 263.453125 534.601562 364.417969 C 517.433594 386.949219 495.785156 393.664062 477.273438 403.808594 C 443.585938 422.335938 433.929688 417.613281 433.929688 459.484375 C 433.929688 508.953125 360.398438 508.546875 358.144531 459.484375 L 356.796875 429.570312 C 355.449219 401.160156 375.617188 377.507812 392.953125 365.300781 C 418.472656 347.308594 433.160156 348.25 455.160156 320.472656 C 506.710938 255.492188 412.585938 189.367188 340.097656 239.515625 C 321.515625 252.355469 310.375 269.996094 310.375 303.714844 C 311.675781 353.195312 236.84375 353.195312 238.144531 303.714844 C 238.144531 250 262.953125 206.589844 297.410156 181.292969 C 331.84375 156.066406 373.417969 146.566406 412.347656 146.566406 Z M 406.4375 9.34375 C 367.507812 8.460938 329.65625 13.308594 293.808594 23.160156 C 150.394531 62.425781 39.046875 181.621094 21.777344 325.140625 C 4.488281 468.679688 41.355469 572.179688 110.707031 648.847656 L 77.339844 743.4375 C 65.835938 776.070312 86.410156 801.285156 118.496094 788.140625 L 235.554688 740.144531 C 272 756.945312 311.753906 768.519531 353.976562 773.589844 C 564.980469 799 754.457031 655.289062 780.53125 438.796875 C 806.652344 222.363281 656.683594 37.605469 445.738281 12.1875 C 432.582031 10.578125 419.425781 9.640625 406.4375 9.34375 Z M 406.4375 9.34375 "/></g></svg>