<svg xmlns="http://www.w3.org/2000/svg" xmlns:xlink="http://www.w3.org/1999/xlink" width="500" zoomAndPan="magnify" viewBox="0 0 375 374.999991" height="500" preserveAspectRatio="xMidYMid meet" version="1.0"><defs><clipPath id="5c0bacad3a"><path d="M 230.5 120.777344 L 234.761719 120.777344 L 234.761719 124.421875 L 230.5 124.421875 Z M 230.5 120.777344 " clip-rule="nonzero"/></clipPath><clipPath id="851f781dbd"><path d="M 234.75 122.101562 C 232.875 125.101562 231.074219 124.574219 230.699219 123.898438 C 230.324219 123.300781 230.625 121.425781 231.226562 120.976562 C 231.824219 120.523438 234.226562 121.125 234.226562 121.125 " clip-rule="nonzero"/></clipPath><clipPath id="417a52802f"><path d="M 0.5 0.777344 L 4.761719 0.777344 L 4.761719 4.421875 L 0.5 4.421875 Z M 0.5 0.777344 " clip-rule="nonzero"/></clipPath><clipPath id="5078fed760"><path d="M 4.75 2.101562 C 2.875 5.101562 1.074219 4.574219 0.699219 3.898438 C 0.324219 3.300781 0.625 1.425781 1.226562 0.976562 C 1.824219 0.523438 4.226562 1.125 4.226562 1.125 " clip-rule="nonzero"/></clipPath><clipPath id="90206278c5"><rect x="0" width="5" y="0" height="5"/></clipPath><clipPath id="1f4edcc4c9"><path d="M 374.96875 187.503906 C 374.96875 190.574219 374.894531 193.640625 374.742188 196.703125 C 374.59375 199.769531 374.367188 202.828125 374.066406 205.882812 C 373.765625 208.9375 373.390625 211.980469 372.941406 215.015625 C 372.488281 218.050781 371.964844 221.074219 371.367188 224.082031 C 370.769531 227.09375 370.09375 230.085938 369.351562 233.0625 C 368.605469 236.039062 367.785156 238.996094 366.894531 241.933594 C 366.003906 244.871094 365.042969 247.78125 364.007812 250.671875 C 362.976562 253.558594 361.871094 256.421875 360.695312 259.257812 C 359.523438 262.09375 358.277344 264.898438 356.96875 267.671875 C 355.65625 270.445312 354.277344 273.183594 352.828125 275.890625 C 351.382812 278.597656 349.871094 281.265625 348.292969 283.898438 C 346.714844 286.53125 345.074219 289.121094 343.371094 291.675781 C 341.664062 294.226562 339.898438 296.734375 338.070312 299.199219 C 336.242188 301.664062 334.355469 304.082031 332.410156 306.453125 C 330.460938 308.824219 328.457031 311.148438 326.398438 313.421875 C 324.335938 315.695312 322.222656 317.917969 320.050781 320.085938 C 317.882812 322.257812 315.660156 324.371094 313.386719 326.433594 C 311.113281 328.492188 308.789062 330.496094 306.417969 332.445312 C 304.046875 334.390625 301.628906 336.277344 299.164062 338.105469 C 296.699219 339.933594 294.191406 341.699219 291.636719 343.40625 C 289.085938 345.109375 286.496094 346.75 283.863281 348.328125 C 281.230469 349.90625 278.5625 351.417969 275.855469 352.863281 C 273.148438 354.3125 270.410156 355.691406 267.636719 357.003906 C 264.863281 358.316406 262.058594 359.558594 259.222656 360.730469 C 256.386719 361.90625 253.523438 363.011719 250.636719 364.042969 C 247.746094 365.078125 244.835938 366.039062 241.898438 366.929688 C 238.960938 367.820312 236.003906 368.640625 233.027344 369.386719 C 230.050781 370.132812 227.058594 370.804688 224.046875 371.402344 C 221.039062 372 218.015625 372.523438 214.980469 372.976562 C 211.945312 373.425781 208.902344 373.800781 205.847656 374.101562 C 202.792969 374.402344 199.734375 374.628906 196.667969 374.777344 C 193.605469 374.929688 190.539062 375.003906 187.46875 375.003906 C 184.402344 375.003906 181.332031 374.929688 178.269531 374.777344 C 175.203125 374.628906 172.144531 374.402344 169.089844 374.101562 C 166.039062 373.800781 162.992188 373.425781 159.957031 372.976562 C 156.921875 372.523438 153.898438 372 150.890625 371.402344 C 147.878906 370.804688 144.886719 370.132812 141.910156 369.386719 C 138.933594 368.640625 135.976562 367.820312 133.039062 366.929688 C 130.105469 366.039062 127.191406 365.078125 124.300781 364.042969 C 121.414062 363.011719 118.550781 361.90625 115.714844 360.730469 C 112.882812 359.558594 110.078125 358.316406 107.300781 357.003906 C 104.527344 355.691406 101.789062 354.3125 99.082031 352.863281 C 96.375 351.417969 93.707031 349.90625 91.074219 348.328125 C 88.441406 346.75 85.851562 345.109375 83.300781 343.40625 C 80.75 341.699219 78.242188 339.933594 75.777344 338.105469 C 73.3125 336.277344 70.890625 334.390625 68.519531 332.445312 C 66.148438 330.496094 63.824219 328.492188 61.550781 326.433594 C 59.277344 324.371094 57.054688 322.257812 54.886719 320.085938 C 52.71875 317.917969 50.601562 315.695312 48.539062 313.421875 C 46.480469 311.148438 44.476562 308.824219 42.53125 306.453125 C 40.582031 304.082031 38.695312 301.664062 36.867188 299.199219 C 35.039062 296.734375 33.273438 294.226562 31.570312 291.675781 C 29.863281 289.121094 28.222656 286.53125 26.644531 283.898438 C 25.066406 281.265625 23.554688 278.597656 22.109375 275.890625 C 20.664062 273.183594 19.285156 270.445312 17.972656 267.671875 C 16.660156 264.898438 15.417969 262.09375 14.242188 259.257812 C 13.066406 256.421875 11.964844 253.558594 10.929688 250.671875 C 9.894531 247.78125 8.933594 244.871094 8.042969 241.933594 C 7.152344 238.996094 6.332031 236.039062 5.589844 233.0625 C 4.84375 230.085938 4.171875 227.09375 3.570312 224.082031 C 2.972656 221.074219 2.449219 218.050781 2 215.015625 C 1.546875 211.980469 1.171875 208.9375 0.871094 205.882812 C 0.570312 202.828125 0.34375 199.769531 0.195312 196.703125 C 0.0429688 193.640625 -0.03125 190.574219 -0.03125 187.503906 C -0.03125 184.4375 0.0429688 181.371094 0.195312 178.304688 C 0.34375 175.238281 0.570312 172.179688 0.871094 169.125 C 1.171875 166.074219 1.546875 163.027344 2 159.992188 C 2.449219 156.957031 2.972656 153.933594 3.570312 150.925781 C 4.171875 147.914062 4.84375 144.921875 5.589844 141.945312 C 6.332031 138.96875 7.152344 136.011719 8.042969 133.074219 C 8.933594 130.140625 9.894531 127.226562 10.929688 124.335938 C 11.964844 121.449219 13.066406 118.585938 14.242188 115.75 C 15.417969 112.917969 16.660156 110.113281 17.972656 107.339844 C 19.285156 104.5625 20.664062 101.824219 22.109375 99.117188 C 23.554688 96.410156 25.066406 93.742188 26.644531 91.109375 C 28.222656 88.476562 29.863281 85.886719 31.570312 83.335938 C 33.273438 80.785156 35.039062 78.277344 36.867188 75.8125 C 38.695312 73.347656 40.582031 70.929688 42.53125 68.554688 C 44.476562 66.183594 46.480469 63.859375 48.539062 61.585938 C 50.601562 59.3125 52.71875 57.089844 54.886719 54.921875 C 57.054688 52.753906 59.277344 50.636719 61.550781 48.574219 C 63.824219 46.515625 66.148438 44.511719 68.519531 42.566406 C 70.890625 40.617188 73.3125 38.730469 75.777344 36.902344 C 78.242188 35.074219 80.75 33.308594 83.300781 31.605469 C 85.851562 29.898438 88.441406 28.257812 91.074219 26.679688 C 93.707031 25.101562 96.375 23.589844 99.082031 22.144531 C 101.789062 20.699219 104.527344 19.320312 107.300781 18.007812 C 110.078125 16.695312 112.882812 15.453125 115.714844 14.277344 C 118.550781 13.101562 121.414062 12 124.300781 10.964844 C 127.191406 9.929688 130.105469 8.96875 133.039062 8.078125 C 135.976562 7.1875 138.933594 6.371094 141.910156 5.625 C 144.886719 4.878906 147.878906 4.207031 150.890625 3.605469 C 153.898438 3.007812 156.921875 2.484375 159.957031 2.035156 C 162.992188 1.582031 166.039062 1.207031 169.089844 0.90625 C 172.144531 0.605469 175.203125 0.382812 178.269531 0.230469 C 181.332031 0.078125 184.402344 0.00390625 187.46875 0.00390625 C 190.539062 0.00390625 193.605469 0.078125 196.667969 0.230469 C 199.734375 0.382812 202.792969 0.605469 205.847656 0.90625 C 208.902344 1.207031 211.945312 1.582031 214.980469 2.035156 C 218.015625 2.484375 221.039062 3.007812 224.046875 3.605469 C 227.058594 4.207031 230.050781 4.878906 233.027344 5.625 C 236.003906 6.371094 238.960938 7.1875 241.898438 8.078125 C 244.835938 8.96875 247.746094 9.929688 250.636719 10.964844 C 253.523438 12 256.386719 13.101562 259.222656 14.277344 C 262.058594 15.453125 264.863281 16.695312 267.636719 18.007812 C 270.410156 19.320312 273.148438 20.699219 275.855469 22.144531 C 278.5625 23.589844 281.230469 25.101562 283.863281 26.679688 C 286.496094 28.257812 289.085938 29.898438 291.636719 31.605469 C 294.191406 33.308594 296.699219 35.074219 299.164062 36.902344 C 301.628906 38.730469 304.046875 40.617188 306.417969 42.566406 C 308.789062 44.511719 311.113281 46.515625 313.386719 48.574219 C 315.660156 50.636719 317.882812 52.753906 320.050781 54.921875 C 322.222656 57.089844 324.335938 59.3125 326.398438 61.585938 C 328.457031 63.859375 330.460938 66.183594 332.410156 68.554688 C 334.355469 70.929688 336.242188 73.347656 338.070312 75.8125 C 339.898438 78.277344 341.664062 80.785156 343.371094 83.335938 C 345.074219 85.886719 346.714844 88.476562 348.292969 91.109375 C 349.871094 93.742188 351.382812 96.410156 352.828125 99.117188 C 354.277344 101.824219 355.65625 104.5625 356.96875 107.339844 C 358.277344 110.113281 359.523438 112.917969 360.695312 115.75 C 361.871094 118.585938 362.976562 121.449219 364.007812 124.335938 C 365.042969 127.226562 366.003906 130.140625 366.894531 133.074219 C 367.785156 136.011719 368.605469 138.96875 369.351562 141.945312 C 370.09375 144.921875 370.769531 147.914062 371.367188 150.925781 C 371.964844 153.933594 372.488281 156.957031 372.941406 159.992188 C 373.390625 163.027344 373.765625 166.074219 374.066406 169.125 C 374.367188 172.179688 374.59375 175.238281 374.742188 178.304688 C 374.894531 181.371094 374.96875 184.4375 374.96875 187.503906 Z M 374.96875 187.503906 " clip-rule="nonzero"/></clipPath><linearGradient x1="0.0000821613" gradientTransform="matrix(374.728721, 0, 0, 374.728751, -0.0307837, 187.368726)" y1="0" x2="1.000724" gradientUnits="userSpaceOnUse" y2="0" id="06ce89498e"><stop stop-opacity="1" stop-color="rgb(16.468811%, 67.059326%, 93.328857%)" offset="0"/><stop stop-opacity="1" stop-color="rgb(16.419983%, 66.978455%, 93.199158%)" offset="0.03125"/><stop stop-opacity="1" stop-color="rgb(16.320801%, 66.819763%, 92.941284%)" offset="0.0625"/><stop stop-opacity="1" stop-color="rgb(16.223145%, 66.659546%, 92.684937%)" offset="0.09375"/><stop stop-opacity="1" stop-color="rgb(16.125488%, 66.500854%, 92.427063%)" offset="0.125"/><stop stop-opacity="1" stop-color="rgb(16.026306%, 66.340637%, 92.170715%)" offset="0.15625"/><stop stop-opacity="1" stop-color="rgb(15.92865%, 66.181946%, 91.912842%)" offset="0.1875"/><stop stop-opacity="1" stop-color="rgb(15.830994%, 66.021729%, 91.654968%)" offset="0.21875"/><stop stop-opacity="1" stop-color="rgb(15.731812%, 65.863037%, 91.398621%)" offset="0.25"/><stop stop-opacity="1" stop-color="rgb(15.634155%, 65.70282%, 91.140747%)" offset="0.28125"/><stop stop-opacity="1" stop-color="rgb(15.536499%, 65.544128%, 90.882874%)" offset="0.3125"/><stop stop-opacity="1" stop-color="rgb(15.437317%, 65.383911%, 90.626526%)" offset="0.34375"/><stop stop-opacity="1" stop-color="rgb(15.339661%, 65.223694%, 90.368652%)" offset="0.375"/><stop stop-opacity="1" stop-color="rgb(15.242004%, 65.065002%, 90.110779%)" offset="0.40625"/><stop stop-opacity="1" stop-color="rgb(15.142822%, 64.904785%, 89.854431%)" offset="0.4375"/><stop stop-opacity="1" stop-color="rgb(15.045166%, 64.746094%, 89.596558%)" offset="0.46875"/><stop stop-opacity="1" stop-color="rgb(14.94751%, 64.585876%, 89.338684%)" offset="0.5"/><stop stop-opacity="1" stop-color="rgb(14.848328%, 64.427185%, 89.082336%)" offset="0.53125"/><stop stop-opacity="1" stop-color="rgb(14.750671%, 64.266968%, 88.824463%)" offset="0.5625"/><stop stop-opacity="1" stop-color="rgb(14.651489%, 64.108276%, 88.566589%)" offset="0.59375"/><stop stop-opacity="1" stop-color="rgb(14.553833%, 63.948059%, 88.310242%)" offset="0.625"/><stop stop-opacity="1" stop-color="rgb(14.456177%, 63.789368%, 88.052368%)" offset="0.65625"/><stop stop-opacity="1" stop-color="rgb(14.356995%, 63.62915%, 87.794495%)" offset="0.6875"/><stop stop-opacity="1" stop-color="rgb(14.259338%, 63.470459%, 87.538147%)" offset="0.71875"/><stop stop-opacity="1" stop-color="rgb(14.161682%, 63.310242%, 87.280273%)" offset="0.75"/><stop stop-opacity="1" stop-color="rgb(14.0625%, 63.15155%, 87.0224%)" offset="0.78125"/><stop stop-opacity="1" stop-color="rgb(13.964844%, 62.991333%, 86.766052%)" offset="0.8125"/><stop stop-opacity="1" stop-color="rgb(13.867188%, 62.832642%, 86.508179%)" offset="0.84375"/><stop stop-opacity="1" stop-color="rgb(13.768005%, 62.672424%, 86.250305%)" offset="0.875"/><stop stop-opacity="1" stop-color="rgb(13.670349%, 62.513733%, 85.993958%)" offset="0.90625"/><stop stop-opacity="1" stop-color="rgb(13.572693%, 62.353516%, 85.736084%)" offset="0.9375"/><stop stop-opacity="1" stop-color="rgb(13.473511%, 62.194824%, 85.47821%)" offset="0.96875"/><stop stop-opacity="1" stop-color="rgb(13.375854%, 62.037659%, 85.224915%)" offset="1"/></linearGradient></defs><g clip-path="url(#5c0bacad3a)"><g clip-path="url(#851f781dbd)"><g transform="matrix(1, 0, 0, 1, 230, 120)"><g clip-path="url(#90206278c5)"><g clip-path="url(#417a52802f)"><g clip-path="url(#5078fed760)"><rect x="-312.5" width="540" fill="#e7191f" height="539.999987" y="-202.499998" fill-opacity="1"/></g></g></g></g></g></g><g clip-path="url(#1f4edcc4c9)"><path fill="url(#06ce89498e)" d="M 0 0.00390625 L 0 375 L 374.96875 375 L 374.96875 0.00390625 Z M 0 0.00390625 " fill-rule="nonzero"/></g><path fill="#ffffff" d="M 84.664062 185.460938 C 139.28125 161.511719 175.785156 146.03125 194.1875 138.4375 C 246.171875 116.828125 256.980469 113.03125 263.988281 112.738281 C 265.449219 112.738281 268.953125 113.03125 271.289062 114.78125 C 273.042969 116.242188 273.625 118.289062 273.917969 119.746094 C 274.210938 121.207031 274.5 124.421875 274.210938 127.050781 C 271.289062 156.546875 259.316406 228.683594 252.890625 261.6875 C 250.261719 275.707031 245.003906 280.378906 240.039062 280.960938 C 229.234375 281.839844 220.761719 273.660156 210.25 266.945312 C 193.894531 256.136719 184.546875 249.421875 168.484375 238.90625 C 150.085938 226.640625 162.058594 219.921875 172.574219 209.117188 C 175.203125 206.195312 223.390625 162.679688 224.269531 158.589844 C 224.269531 158.007812 224.558594 156.253906 223.390625 155.378906 C 222.222656 154.503906 220.761719 154.792969 219.59375 155.085938 C 217.84375 155.378906 191.558594 172.902344 140.449219 207.363281 C 132.855469 212.621094 126.136719 214.957031 120.003906 214.957031 C 113.285156 214.957031 100.4375 211.160156 90.796875 207.949219 C 79.117188 204.152344 69.769531 202.105469 70.648438 195.683594 C 71.230469 192.46875 75.902344 188.964844 84.664062 185.460938 Z M 84.664062 185.460938 " fill-opacity="1" fill-rule="evenodd"/></svg>