<svg xmlns="http://www.w3.org/2000/svg" xmlns:xlink="http://www.w3.org/1999/xlink" width="1080" zoomAndPan="magnify" viewBox="0 0 810 809.999993" height="1080" preserveAspectRatio="xMidYMid meet" version="1.2"><defs><clipPath id="15faadba77"><path d="M 380.539062 414.921875 L 383.410156 414.921875 L 383.410156 417.359375 L 380.539062 417.359375 Z M 380.539062 414.921875 "/></clipPath><clipPath id="2462e0cc8a"><path d="M 383.398438 415.800781 C 382.125 417.824219 380.925781 417.449219 380.699219 417 C 380.398438 416.550781 380.625 415.351562 381 415.050781 C 381.449219 414.75 383.023438 415.199219 383.023438 415.199219 "/></clipPath><clipPath id="fcd7cf052e"><path d="M 0 81 L 810 81 L 810 729 L 0 729 Z M 0 81 "/></clipPath></defs><g id="67c74c4f2f"><g clip-rule="nonzero" clip-path="url(#15faadba77)"><g clip-rule="nonzero" clip-path="url(#2462e0cc8a)"><path style=" stroke:none;fill-rule:nonzero;fill:#ffffff;fill-opacity:1;" d="M 377.699219 412.050781 L 386.484375 412.050781 L 386.484375 420.601562 L 377.699219 420.601562 Z M 377.699219 412.050781 "/></g></g><g clip-rule="nonzero" clip-path="url(#fcd7cf052e)"><path style=" stroke:none;fill-rule:nonzero;fill:#ffffff;fill-opacity:1;" d="M 45.714844 464.539062 L 213.238281 632.058594 L 764.285156 81.015625 L 812.761719 129.488281 L 237.472656 704.773438 L 213.238281 729.015625 L 189 704.773438 L -2.761719 513.015625 L 45.714844 464.539062 "/></g></g></svg>